<?xml version="1.0" encoding="UTF-8"?>
<svg id="Capa_2" data-name="Capa 2" xmlns="http://www.w3.org/2000/svg" viewBox="0 0 2297.32 612.29">
  <defs>
    <style>
      .cls-1 {
        fill: #bababa;
      }
    </style>
  </defs>
  <g id="Capa_1-2" data-name="Capa 1">
    <g>
      <polygon points="1900.05 584.1 1942.89 510.89 2029.14 378.9 2297.32 8.67 325.36 8.67 312.16 52.39 227.5 157.91 19.35 572.77 48.08 602.5 80.1 612.29 1945.84 612.29 1900.05 584.1"/>
      <g>
        <path class="cls-1" d="M402.28,1.19L114.83,420.08c44.79-56.97,78.29-95.16,100.47-114.55,22.18-19.39,43.3-29.1,63.35-29.1,23.89,0,43.4,8.97,58.56,26.9s22.73,40.49,22.73,67.67c0,59.5-40.92,118-122.75,175.54-60.95,42.96-115.08,64.43-162.38,64.43-22.17,0-40.18-7.77-54.02-23.31-13.86-15.55-20.78-35.71-20.78-60.51,0-29.51,20.44-74.58,61.37-135.19L326.06,0c11.53,3.16,23.92,4.73,37.15,4.73,10.24,0,23.26-1.17,39.07-3.54ZM313.36,324.6c0-26.47-11.94-39.7-35.81-39.7-31.13,0-84.21,47.61-159.24,142.8-56.29,71.11-84.43,118.9-84.43,143.38,0,20.94,11.08,31.41,33.26,31.41,38.36,0,88.99-35.45,151.88-106.36,62.89-70.9,94.33-128.08,94.33-171.53Z"/>
        <path class="cls-1" d="M794.24,412.47c0,8.27-31.1,46.48-93.28,114.61-50.27,55.93-89.88,83.88-118.83,83.88-19.6,0-35.58-6.8-47.92-20.36-12.36-13.58-18.53-30.6-18.53-51.06s6.83-44.28,20.51-69.08c-42.68,55.1-75.33,92.28-97.94,111.57-22.63,19.29-44.6,28.93-65.93,28.93-22.63,0-41.62-8.97-56.97-26.9-15.37-17.93-23.04-40.48-23.04-67.67,0-75.64,57.93-142.63,173.78-200.96,50.86-26,91.9-39,123.12-39,26.5,0,39.75,11.64,39.75,34.93,0,6.7-1.7,15.55-5.11,26.57l32.54-57.27c12.74,2.78,24,4.15,33.79,4.15,11.48,0,26.35-1.37,44.64-4.15l-113.54,173.65c-39.35,60.86-59.02,100.97-59.02,120.32s8.3,27.86,24.93,27.86,44.3-18.05,81.78-54.16c37.48-36.11,75.63-80.61,114.4-133.5,2.55-3.94,4.9-5.91,7.03-5.91,2.55,0,3.84,1.19,3.84,3.54ZM619.43,313.94c0-19.35-9.63-29.03-28.85-29.03-39.32,0-90.93,35.56-154.81,106.66-63.88,71.11-95.82,128.59-95.82,172.43,0,25.67,12.39,38.51,37.18,38.51,29.48,0,80.54-45.22,153.19-135.69,59.4-74.25,89.11-125.22,89.11-152.87Z"/>
        <path class="cls-1" d="M1080.44,1.19l-287.45,418.89c44.79-56.97,78.29-95.16,100.47-114.55,22.18-19.39,43.3-29.1,63.35-29.1,23.89,0,43.4,8.97,58.56,26.9s22.73,40.49,22.73,67.67c0,59.5-40.92,118-122.75,175.54-60.95,42.96-115.08,64.43-162.38,64.43-22.17,0-40.18-7.77-54.02-23.31-13.86-15.55-20.78-35.71-20.78-60.51,0-29.51,20.44-74.58,61.37-135.19L1004.22,0c11.53,3.16,23.92,4.73,37.15,4.73,10.24,0,23.26-1.17,39.07-3.54ZM991.52,324.6c0-26.47-11.94-39.7-35.81-39.7-31.13,0-84.21,47.61-159.24,142.8-56.29,71.11-84.43,118.9-84.43,143.38,0,20.94,11.08,31.41,33.26,31.41,38.36,0,88.99-35.45,151.88-106.36,62.89-70.9,94.33-128.08,94.33-171.53Z"/>
        <path class="cls-1" d="M1241.62,412.47c-.43,1.19-2.56,4.33-6.4,9.45l-27.52,34.87c-80.24,102.79-141.49,154.18-183.74,154.18-20.06,0-36.82-6.6-50.25-19.77-13.45-13.17-20.16-29.59-20.16-49.26,0-22.81,14.71-57.43,44.15-103.85l99.83-156.36c13.3,2.76,23.8,4.14,31.54,4.14,11.58,0,27.87-1.37,48.91-4.14l-145.4,220.35c-20.94,31.91-31.4,56.52-31.4,73.84s10.01,26.58,30.06,26.58c37.95,0,104.66-62.54,200.15-187.66,2.13-3.94,4.27-5.91,6.4-5.91,2.55,0,3.84,1.19,3.84,3.54ZM1233.02,167.53c0,13.86-6.3,26.85-18.87,38.92-12.59,12.08-26.35,18.11-41.27,18.11-19.19,0-28.78-8.9-28.78-26.73,0-13.07,6.6-25.64,19.83-37.71,13.22-12.08,27.08-18.13,41.58-18.13,18.33,0,27.51,8.52,27.51,25.54Z"/>
        <path class="cls-1" d="M1506.3,412.47c0,1.19-3.84,6.3-11.5,15.37l-27.49,31.89c-88.25,100.84-163.91,151.24-226.99,151.24-29.84,0-54.88-9.96-75.13-29.84-20.25-19.9-30.37-44.83-30.37-74.77,0-70.93,53.49-133.37,160.48-187.36,56.27-28.37,102.09-42.56,137.47-42.56,15.35,0,28.45,4.25,39.32,12.72,10.87,8.49,16.31,18.84,16.31,31.06,0,28.42-20.01,52.58-60.01,72.5-40,19.92-106.81,38.56-200.41,55.91-28.95,40.67-43.4,74.63-43.4,101.88,0,33.96,19.78,50.93,59.37,50.93,67.24,0,149.58-61,247.04-183.04,5.09-6.3,9.36-9.46,12.77-9.46,1.69.4,2.55,1.57,2.55,3.54ZM1452.41,302.79c0-12.62-7.44-18.94-22.31-18.94-22.53,0-52.19,14.51-88.94,43.52-36.77,29.01-72.8,66.61-108.06,112.79,61.2-14.59,113.04-35.22,155.55-61.86,42.51-26.65,63.77-51.82,63.77-75.51Z"/>
        <path class="cls-1" d="M1764.59,412.47c0,5.13-30.04,38.21-90.12,99.25-65.62,66.16-121.43,99.25-167.45,99.25-29.82,0-55.38-10.55-76.68-31.61-21.31-21.07-31.96-46.2-31.96-75.36,0-33.1,14.51-67.37,43.52-102.84,29.01-35.46,68.05-66,117.13-91.62,41.39-22.07,75.08-33.1,101.12-33.1,31.56,0,47.36,17.27,47.36,51.79,0,27.08-9.91,54.16-29.71,81.22-19.8,27.08-39.48,40.61-59.07,40.61s-28.73-8.85-28.73-26.55c0-20.83,19.52-40.1,58.56-57.79,30.12-13.76,45.19-31.84,45.19-54.26,0-17.7-10.45-26.55-31.35-26.55-35.4,0-78.9,32.6-130.51,97.77-51.61,65.17-77.4,119.89-77.4,164.12,0,37.13,18.74,55.69,56.26,55.69,58.82,0,138.53-61.37,239.14-184.1,5.52-6.3,9.58-9.46,12.14-9.46,1.7.4,2.56,1.57,2.56,3.54Z"/>
        <path class="cls-1" d="M2155.58,412.47c0,8.27-31.1,46.48-93.28,114.61-50.27,55.93-89.88,83.88-118.83,83.88-19.6,0-35.58-6.8-47.92-20.36-12.36-13.58-18.53-30.6-18.53-51.06s6.83-44.28,20.51-69.08c-42.68,55.1-75.33,92.28-97.94,111.57-22.63,19.29-44.6,28.93-65.93,28.93-22.63,0-41.62-8.97-56.97-26.9-15.37-17.93-23.04-40.48-23.04-67.67,0-75.64,57.93-142.63,173.78-200.96,50.86-26,91.9-39,123.12-39,26.5,0,39.75,11.64,39.75,34.93,0,6.7-1.7,15.55-5.11,26.57l32.54-57.27c12.74,2.78,24,4.15,33.79,4.15,11.48,0,27.88,2.86,46.17.08l-115.06,169.41c-39.35,60.86-59.02,100.97-59.02,120.32s8.3,27.86,24.93,27.86,44.3-18.05,81.78-54.16c37.48-36.11,75.63-80.61,114.4-133.5,2.55-3.94,4.9-5.91,7.03-5.91,2.55,0,3.84,1.19,3.84,3.54ZM1980.77,313.94c0-19.35-9.63-29.03-28.85-29.03-39.32,0-90.93,35.56-154.81,106.66-63.88,71.11-95.82,128.59-95.82,172.43,0,25.67,12.39,38.51,37.18,38.51,29.48,0,80.54-45.22,153.19-135.69,59.4-74.25,89.11-125.22,89.11-152.87Z"/>
      </g>
    </g>
  </g>
</svg>