<?xml version="1.0" encoding="UTF-8"?>
<svg id="Capa_2" data-name="Capa 2" xmlns="http://www.w3.org/2000/svg" viewBox="0 0 34.68 34.14">
  <defs>
    <style>
      .cls-1 {
        fill: #fff;
      }
    </style>
  </defs>
  <g id="Capa_1-2" data-name="Capa 1">
    <g>
      <g>
        <g>
          <path class="cls-1" d="M19.98,25.73l.59.2c-.13-.15-.28-.34-.23-.54.02-.06.05-.12.08-.17.49-.73,1.42-1.01,2.29-1.19.33-.07.68-.13,1.01-.04-.65.59-1.6.7-2.37,1.13-.28.16-.54.37-.85.45.56-.87,1.65-1.35,2.67-1.2-.73.11-1.51.24-2.06.74-.11.1-.22.22-.27.36-.07.17-.09.39-.25.48"/>
          <path class="cls-1" d="M19.94,25.89l.59.2c.17.06.26-.16.16-.27-.08-.09-.18-.2-.19-.32-.01-.11.09-.23.16-.31.16-.19.35-.34.56-.47.44-.26.95-.4,1.45-.5.33-.07.68-.15,1.02-.06l-.07-.27c-.33.3-.74.46-1.15.61-.43.16-.87.3-1.27.54-.24.14-.46.31-.73.38l.18.24c.53-.8,1.54-1.26,2.49-1.12v-.31c-.43.06-.87.13-1.28.29s-.86.4-1.09.78c-.06.1-.1.21-.13.32-.02.08-.05.16-.12.21-.18.11-.02.39.16.28.12-.07.19-.18.23-.31.04-.11.06-.23.12-.33.13-.22.38-.39.6-.51.49-.26,1.05-.34,1.59-.42.16-.02.16-.29,0-.31-.86-.13-1.74.14-2.39.72-.18.16-.34.35-.47.55-.08.12.05.28.18.24.25-.07.47-.21.69-.34.2-.12.4-.24.62-.33.44-.18.9-.31,1.32-.52.24-.12.46-.26.66-.44.09-.08.04-.24-.07-.27-.36-.09-.73-.03-1.09.04-.29.06-.57.13-.85.22-.55.18-1.09.46-1.45.93-.12.15-.22.32-.19.52s.15.36.28.51l.16-.27-.59-.2c-.2-.07-.28.25-.09.31h0Z"/>
        </g>
        <path class="cls-1" d="M16.73,20.54c.16-.09.35-.02.53.02.49.13,1.02.07,1.52,0,.53-.07,1.12-.18,1.42-.61.07-.1.09-.29-.03-.31.09-.02.18-.03.26-.05-.57-.09-1.13.21-1.63.49s-1.07.56-1.64.44c1.05.1,2.12-.11,3.05-.61-.11-.08-.24-.14-.38-.15-.06.07-.08.17-.06.26"/>
        <g>
          <g>
            <path class="cls-1" d="M5.23,18.3c.15.1.36.05.53,0,.32-.1.63-.2.95-.3.37-.12.74-.23,1.11-.36.16-.05.33-.11.48-.2.35-.2.59-.54.91-.78-.7.41-1.43.77-2.18,1.06"/>
            <path class="cls-1" d="M5.14,18.44c.26.17.57.04.84-.04.31-.1.62-.19.93-.29s.62-.2.93-.3c.28-.09.55-.2.78-.39s.44-.44.69-.63c.06-.05.06-.16.01-.21-.05-.06-.14-.08-.21-.04-.68.4-1.4.76-2.14,1.05-.08.03-.14.11-.11.2.02.08.12.15.2.11.77-.3,1.51-.66,2.22-1.08l-.2-.26c-.2.16-.38.35-.57.53s-.4.29-.65.38c-.57.2-1.15.37-1.73.55-.16.05-.33.11-.49.15-.11.03-.24.07-.34,0-.18-.11-.34.17-.16.28h0Z"/>
          </g>
          <g>
            <g>
              <path class="cls-1" d="M18.32,12.99c-.07.15-.02.4.08.49.06.06.12.08.17.08.04,0,.07-.01.09-.02.11-.06.18-.22.15-.37-.02-.14-.12-.24-.26-.27-.11-.02-.19.02-.24.11Z"/>
              <path class="cls-1" d="M18.46,12.58s.02,0,.03,0c.05,0,.09-.02.12-.06.13-.15.07-.36-.06-.48-.11-.09-.24-.09-.32,0-.05.06-.06.16-.03.26.04.12.14.25.26.27Z"/>
              <g>
                <path class="cls-1" d="M34.38,20.71c-.35-.22-.68-.22-.91-.01-.02.01-.03.03-.05.04-.02.02-.07.08-.08.12l-.18.21s-.05.06-.07.09c-.02.02-.04.05-.05.07l-.05.03c-.15.12-.33.21-.53.27-.26.09-.51.11-.74.08h0s0,0,0,0c-.04.02-.08.02-.12.02-.3-.02-.49-.16-.72-.31-.05-.03-.09-.06-.14-.1-.05-.03-.11-.07-.18-.1h0s0,0,0,0c-.02,0-.1-.03-.17-.06-.13-.05-.3-.12-.38-.13-.27-.05-.54-.04-.8-.04-.25,0-.5,0-.75-.03-.29-.05-.59-.24-.89-.43-.14-.09-.27-.17-.39-.24-2.16-1.14-3.99-.99-6.3-.79l-.33.03c-.24.02-.27.09-.29.21,0,.05-.02.12-.07.2-.53.92-2.4.8-3.38.6,0,0,0,0,0,0,.12,0,.26,0,.41,0,.6,0,1.34-.02,1.94-.21.71-.23,1.06-.66,1.05-1.31v-.08s0,0,0,0c0,0,0-.01,0-.02.21-.22.44-.5.48-.71.01-.08,0-.14-.03-.19-.11-.16-.54,0-1.04.22,0,0-.01,0-.02,0-.18.05-.34.14-.49.26-.1.08-.2.18-.28.29-.1.08-.22.16-.35.23-.16.09-.58.27-.89.38-.35.21-.77.33-1.14.47-.41.15-.83.27-1.25.39-.2.06-.4.13-.61.16-.15.02-.29.04-.43.08-.05.03-.09.08-.12.13,0,.09.02.18.03.27,0,0,0,.01.01.02.1.25.17.5.22.76.02,0,.04.02.07.02,0,0-.01,0-.02,0,0,0-.01,0-.02,0,0,0-.02-.01-.02-.02.06.32.08.64.05.98,0,.04,0,.08-.01.12,0,.06-.01.12-.02.18,0,.01,0,.03,0,.04,0,.06-.02.12-.03.18.01.2.02.4.02.59,0,.29,0,.59.04.87,0,.06.03.17.07.3.02.08.04.16.06.24,0,.03,0,.06.02.09,0,.02,0,.04.01.05,0,0,0,0,0,0,0,0,0,0,0-.01.08.16.37.58.27.76-.06.11-.33.12-.44.15-.19.05-.38.13-.56.21-.39.16-.77.38-1.19.45-.19.03-.4.02-.58-.03-.02,0-.04-.01-.05-.02.04-.04.07-.09.11-.12.15-.14.31-.26.46-.38.26-.21.59-.45.61-.81,0,0,0,0,0,0,0-.05,0-.11,0-.16-.01-.02-.02-.05-.03-.08-.08-.71-.21-1.41-.4-2.09,0-.49-.24-.98-.45-1.41-.29-.6-.62-1.25-.41-1.94.02-.07.04-.12.08-.18.02-.03.01-.02.04-.05,0-.01.02-.02.03-.03.02-.02.01-.01.02-.02.06-.05.13-.08.21-.1.03-.03.05-.06.08-.09.06-.06.13-.11.2-.14,0,0,0,0,0,0,0,0,0-.01,0-.02,0,0,0,0,0,0,.18-.15.33-.32.52-.45.28-.26.74-.44.99-.58.29-.16.54-.39.79-.6-.01,0-.02-.02-.03-.02-.08-.04-.17-.04-.24,0-.02,0-.03,0-.05,0-.18-.06-.38-.11-.57,0-.09.05-.16.19-.22.3-.05.09-.09.17-.13.19-.04.02-.11.03-.17.05-.15.02-.32.05-.39.25-.02.01-.04.02-.05.04-.18-.07-.36-.15-.54-.22-.7-.29-1.43-.58-2.03-1.01-.01,0-.02-.01-.03-.01,0,0-.01,0-.01,0,0,0,0,0,0-.02.02-.03.29-.36.32-.39.14-.12.45-.24.72-.35.15-.06.3-.12.41-.17.62-.31,1.07-.63,1.45-1.04.38.25.89.26,1.25,0,.31-.18.57-.46.73-.79.25.22.49.47.57.58.16.21.58,1.08.57,1.27,0,.11-.08.15-.17.2-.07.04-.14.08-.18.15-.03.06-.05.12-.07.19-.03.1-.05.19-.12.27l-.03.03s.09,0,.12,0c.6-.13,1.21-.05,1.81.23.11.05.24.13.36.22.22.15.45.3.68.33.05,0,.14.02.25.02.07-.02.13-.03.21-.02,0,0,0,0,0,0,.21-.03.44-.11.58-.31.22-.32.22-1.25.2-1.78-.06-1.44-.31-3.97-1.34-4.79-.2-.16-.99-.5-1.33-.57h-.02s-.02-.02-.03-.02c-.11-.05-.24-.09-.39-.13-.02,0-.04-.01-.07-.02-.04-.05-.11-.09-.16-.1-.55-.1-1.35.28-1.67.67l-.03.03h.02s0,.02-.01.03c-.02.02-.04.05-.04.08,0,.01,0,.03,0,.04-.27.08-.58.16-.8.35-.27.22-.38.53-.48.83-.05.15-.1.3-.18.44-.05.1-.1.18-.14.26l-.02.04s-.03-.02-.05-.03c-.05-.03-.1-.05-.15-.07h-.01s-.08-.03-.13-.04l-.33-3.7.82.2c.03.05.13.32.13.38,0,.09,0,.17-.02.24-.03.15-.06.28.22.4l.22.66c.11.23.37.13.53.07h0c.26-.1.33-.21.4-.34.04-.07.08-.14.16-.22.32-.35.82-.46,1.26-.56l.1-.02v-.02c.11-1.02.11-2.04-1.17-2.34h0s-.07-.04-.1-.05c-.03,0-.09-.02-.15,0-.02,0-.03.01-.05.02-.56-.07-1.07.1-1.39.46-.07.08-.12.2-.18.31-.06.13-.13.27-.2.32-.08.05-.22.09-.35.12-.09.02-.18.04-.26.07l-.64-7.64s.01-.04.06-.07c.09-.05.25-.1.42-.15.35-.1.75-.22.79-.46.02-.12,0-.21-.07-.27-.11-.09-.33-.09-.66.02-.39.13-1.26.5-1.6.71-.04.03-.39.3-.41.33-.06.08-.07.17-.04.24.03.06.09.09.17.09h0c.08,0,.29-.09.5-.18.16-.07.41-.18.47-.18h0l.97,11.45c-.01.12-.09.22-.16.33-.07.11-.15.22-.17.34-.02.12-.01.28,0,.44h0c-.02.06-.02.12,0,.16v.04s.02.06.04.07c0,0,.01,0,.02.01,0,.01,0,.03.01.04,0,.01,0,.02.01.03-.09.07-.18.14-.27.2-.15.12-.3.22-.43.34-.11.09-.26.25-.43.43-.42.44-1,1.05-1.33,1.06-.09,0-.16,0-.24-.01-.18-.02-.33-.04-.51.17-.03-.01-.06-.02-.08-.03v-.02s-.02,0-.02,0c-.15-.06-.31-.17-.46-.28-.15-.11-.35-.28-.59-.47-.64-.52-1.43-1.17-1.84-1.25-.33-.06-.5,0-.62.19,0,0-.02,0-.02-.01.07-.08.15-.16.18-.19.05-.05.1-.08.16-.12.07-.05.15-.1.23-.18.2-.21.35-.54.39-.82v-.02s-.12-.07-.12-.07l-1.77.91s-.05,0-.08-.01c-.15-.03-.35-.06-.46.01-.02.01-.04.03-.05.06-.08.04-.12.14-.08.22,0,0,0,0,0,0-.29.04-.55.34-.78.61-.08.09-.16.18-.22.24-.24.23-.5.46-.75.68-.19.17-.39.34-.58.51h0s0,.02,0,.02c0,0,0,0-.01,0-.04.05-.08.09-.12.14,0,0,0,0,0,0-.06.01-.32.26-.76.7-.08.08-.14.14-.17.17-.03.03-.08.07-.14.11-.12.09-.26.18-.29.3-.04.17.04.31.12.46.04.07.08.14.1.22.02.07.02.12.03.18,0,.11.02.22.16.34.28.23.5.13.66-.01l-.06.22h.01c.12.14.26.2.42.19.33-.01.64-.33.8-.52l.04-.02c.51.2,1.13.2,1.72.19.17,0,.3-.02.4-.03.26-.03.38-.05.79.18,1.09.58,1.57,1.66,2.04,2.71.1.23.21.46.32.69-.03.04-.04.09-.03.14.05.16.1.32.15.48,0,.03.02.05.04.06,0,0,0,.01,0,.02,0,.07,0,.16,0,.24,0,.19.05.37.13.54.04.08.08.15.13.22.04.06.08.12.11.19.06.11.11.23.16.34v.02c-.05,0-.11,0-.17.03-.01,0-.02.01-.03.02l-3.34.44c-.22.07-.39.25-.48.5-.08.23-.09.49-.02.71-.16.38-.16.82,0,1.2-.02.17-.01.42,0,.65,0,.1,0,.19,0,.26,0,.04-.01.08-.02.11-.01.04-.02.07-.02.1,0,.11.04.46.09.55.02.05.06.08.11.11.01.03.03.07.05.1v.02c.01.1.06.17.11.25.04.07.08.13.1.21.01.08.01.17,0,.25,0,.1,0,.2.01.29.05.2.9,1.01,1.1,1.11.06.03.11.04.16.04.05,0,.1-.02.15-.05.32-.22.33-1.14.3-1.36-.06-.49-.34-.59-.78-.58-.02-.02-.03-.09-.04-.14,0-.03-.01-.07-.02-.1l.08-.23c.05-.14.05-.28-.02-.41-.02-.05-.05-.1-.08-.15v-.05c-.04-.09-.06-.18-.07-.26,0-.04,0-.13,0-.23,0-.19,0-.33,0-.44-.01-.4-.02-.8-.03-1.21.01,0,.03-.01.04-.02.21-.06,1.08.1,1.78.23.3.06.56.1.74.13.02,0,.03.01.05.02.41.1.82.15,1.23.16.03,0,.05,0,.08,0,.09,0,.18,0,.27,0,.07.04.14.06.21.08-.23.22-.45.45-.67.68-.34.36-.69.72-1.07,1.05h0c-.25.39-.23.76.06,1.12.18.23.61.47.91.33,0,0,0,0,0,0,.1.09.24.16.37.21.29.12.6.19.91.23,0,0,0,0,0,0,.18.05.37.11.47.13.44.12,1.18.31,1.43.31.02,0,.03,0,.04,0,.08-.01.16-.04.24-.07.09-.04.19-.07.28-.08.16-.02.31-.02.45-.02.2,0,.42,0,.66-.05.01,0,1.06-.23,1.06-.49,0-.24-1.01-.76-1.22-.8-.37-.07-.51.09-.65.24-.09.1-.18.19-.33.22l-.54-.2c-.09-.05-.2-.09-.34-.13-.12-.03-1.11-.19-1.46-.22-.2-.12-.43-.19-.67-.2-.04,0-.08,0-.12,0l-.08-.02v.03s-.05,0-.07.02c.04-.07.08-.12.13-.14.19-.08.39-.15.58-.22.41-.16.84-.32,1.24-.51.2-.1.4-.22.6-.33.23-.14.48-.28.72-.39.12-.05.27-.1.43-.14.39-.11.84-.24.99-.55,0,0,0-.01.01-.02,0-.01.01-.02.02-.04h0s.03-.02.04-.03h.02s.02-.01.03-.02c.03,0,.06-.02.1-.02.02,0,.04,0,.05,0,0,0,0,0,.01,0h0s.01,0,.02,0h0c1.5.05,3.01-.16,4.49-.63h.03c.16-.06.43-.15.68-.25.12-.01.22-.04.31-.09.01,0,.02-.01.04-.02.02,0,.03,0,.04-.01.05-.02.1-.05.13-.1.05-.07.09-.15.12-.23.02-.04.04-.07.06-.1.1-.11.23-.21.34-.31.07-.06.14-.13.2-.2.34-.21.7-.37,1.08-.47.57-.14,1.36-.25,1.59-.28,0,0,.01,0,.02,0,.01,0,.05,0,.07,0-.26.1-.53.19-.79.28-.63.21-1.28.43-1.82.84-.76.57-1.06,1.32-1.35,2.17-.09.26-.15.48-.2.67-.17.66-.25.96-1.17,1.42-.17.09-.47.22-.81.37-1,.44-2.36,1.05-2.59,1.39-.04.06-.07.13-.1.19-.04.08-.07.16-.14.24-.16.18-.4.28-.62.37-.18.07-.36.14-.49.26-.09.07-.17.18-.26.3-.08.1-.17.21-.25.29-.04.04-.12.1-.21.18-.36.29-.63.52-.63.63,0,.27.79.31.95.31.05,0,.1,0,.14,0,.64,0,1.05-.14,1.18-.39.08-.17.03-.28,0-.36-.04-.08-.06-.14.02-.22.1-.1.28-.12.46-.15.13-.02.26-.03.36-.08.18-.02.35-.09.5-.2.1-.07.19-.15.28-.26.17-.08.33-.18.48-.28.12-.08.24-.15.35-.22,1.22-.64,2.24-1.1,3.09-1.41.09-.03.21-.06.33-.09.34-.08.72-.18.86-.4.1-.15.12-.36.14-.56,0-.11.02-.21.04-.3.34-1.46,1.42-1.73,2.57-2,.43-.11.88-.21,1.3-.39.88-.38,2.36-1.41,2.86-2.36.31-.59.43-1.27.34-1.95h0s0-.02,0-.03c0-.04-.01-.08-.01-.11-.03-.15-.06-.29-.11-.43.08.01.15.03.21.05h.02s.01,0,.01,0c.01,0,.02-.02.04-.02,0,0,0,0,.01,0,.26.03.53.02.79-.03h.47c.32,0,.48.07.66.16.13.06.26.12.46.16.99.22,2.2-.11,2.95-.53.21-.12.6-.34.61-.6,0-.13-.09-.25-.27-.37ZM2.9,18.58s0,0,0,0c0,0,0,0,0,0,0,0,0,0,0,0,0,0,0,0,0,0,0,0,0,0,0,0,0,0-.02-.01-.02-.02,0,0-.02-.01-.03-.02.12-.05.24-.1.39-.17.05,0,.1.01.15.02.24.04.47.09.65.2h-1.11ZM8.74,25.52s0,0,0,0c0,0,0,0,0-.01,0,.01.02.03.03.04,0,0-.02-.02-.03-.03ZM9.12,16.81c-.07.14-1.36.82-1.65.96-.64.29-1.49.63-2.19.71,0-.05-.04-.09-.08-.12-.04-.03-.07-.06-.11-.09.15.02.31-.02.45-.08.02,0,.04-.02.06-.03.01,0,.03,0,.04,0,.1,0,.35-.07.51-.12.03,0,.06-.02.08-.02.55-.15,1.12-.38,1.61-.66.07-.04.93-.56,1.03-.66.06.01.13.02.2.03h0s0,0,0,0h0s.02,0,.02,0c.01,0,.02,0,.03,0,0,0,0,0,0,0,0,.02-.01.04-.02.06ZM18.68,29.74s.04-.04.05-.05c.04-.02.08-.03.13-.02-.06.02-.12.05-.18.07Z"/>
                <path class="cls-1" d="M13.38,34.14s-.09,0-.14,0c-.23,0-.98-.05-.98-.34,0-.11.2-.29.64-.66.09-.08.17-.14.21-.18.09-.08.17-.19.25-.29.09-.12.18-.23.27-.3.14-.12.32-.19.5-.27.22-.09.45-.18.61-.36.07-.07.1-.15.13-.23.03-.07.06-.13.1-.2.24-.35,1.61-.96,2.61-1.4.35-.16.65-.29.81-.37.9-.46.98-.75,1.15-1.4.05-.19.11-.41.2-.67.29-.86.59-1.61,1.36-2.19.55-.41,1.2-.63,1.83-.84.18-.06.35-.12.53-.18-.33.05-.95.14-1.41.25-.38.09-.74.25-1.07.46-.06.07-.12.13-.2.2-.03.02-.06.05-.09.07-.09.07-.18.15-.25.23-.01.03-.03.06-.05.09h0c-.04.1-.08.17-.12.24-.03.06-.08.09-.14.11-.01,0-.03.01-.04.01-.01,0-.02.01-.03.02-.09.05-.2.08-.32.1-.25.1-.52.18-.67.23h-.03c-1.48.48-3,.69-4.5.64h0s-.01,0-.02,0h-.02s0,0,0,0c-.01,0-.03,0-.04,0-.04,0-.07.01-.1.02,0,0-.02,0-.02,0h-.03s-.02.02-.03.03c0,0-.01.02-.01.03s0,.02-.01.02c-.16.32-.61.45-1.01.57-.16.05-.31.09-.43.14-.24.1-.48.25-.72.39-.2.12-.4.24-.6.34-.4.2-.83.36-1.25.51l-.02-.03v.03c-.18.07-.37.14-.56.22-.02,0-.03.02-.05.04h.06s.08.01.12.01c.24,0,.47.08.68.2.37.03,1.35.2,1.46.22.15.04.26.08.35.13l.53.2c.13-.03.21-.11.3-.21.14-.15.3-.32.68-.25.22.04,1.24.56,1.24.83,0,.3-1.07.52-1.08.52-.25.05-.46.05-.67.06-.14,0-.29,0-.45.02-.09.01-.18.05-.27.08-.09.03-.17.07-.25.08-.01,0-.03,0-.05,0-.26,0-1.02-.19-1.44-.31-.08-.02-.28-.08-.46-.13h0c-.34-.04-.64-.12-.92-.23-.1-.04-.25-.1-.36-.2-.31.13-.75-.12-.93-.35-.3-.37-.32-.76-.06-1.15h0c.38-.34.73-.71,1.07-1.06.2-.21.41-.43.63-.64-.05-.01-.1-.04-.15-.06-.09.01-.18,0-.27,0-.03,0-.06,0-.08,0-.41,0-.83-.06-1.24-.16-.02,0-.04-.01-.05-.02-.18-.03-.45-.08-.74-.13-.66-.12-1.56-.29-1.76-.23,0,0,0,0-.01,0l.03,1.19c0,.1,0,.23,0,.44,0,.09,0,.18,0,.23,0,.07.03.16.05.25v.04s.07.09.09.14c.07.14.08.28.02.44l-.08.22s.01.06.02.09c0,.03.02.09.03.12.43,0,.74.1.8.61.03.23.02,1.15-.31,1.39-.1.07-.22.07-.34,0-.19-.1-1.06-.91-1.11-1.13-.02-.09-.02-.2-.02-.29,0-.08,0-.17,0-.24-.01-.07-.05-.13-.09-.2-.05-.08-.1-.16-.11-.26h0s-.03-.07-.04-.1c-.05-.03-.08-.07-.11-.12-.05-.1-.1-.47-.1-.57,0-.04.01-.08.02-.11,0-.04.02-.07.02-.1,0-.07,0-.16,0-.26,0-.21-.02-.48,0-.65-.17-.38-.17-.82,0-1.2-.07-.23-.06-.49.02-.72.09-.26.27-.44.5-.52l3.34-.44s.02-.02.03-.02c.05-.02.1-.03.14-.04-.05-.1-.09-.21-.15-.31-.03-.06-.07-.13-.11-.19-.04-.07-.09-.14-.13-.22-.09-.17-.13-.35-.14-.55,0-.09,0-.18,0-.25h0s-.03-.05-.03-.07l-.15-.48s0-.1.02-.15c-.11-.22-.2-.43-.31-.67-.47-1.04-.95-2.12-2.03-2.7-.41-.22-.52-.2-.78-.17-.1.01-.23.03-.4.03-.59.01-1.2.01-1.72-.19h-.02c-.16.2-.48.52-.82.54-.16,0-.31-.06-.44-.19l-.03-.03.04-.15c-.21.14-.42.13-.63-.05-.15-.13-.16-.25-.17-.36,0-.05,0-.11-.03-.17-.02-.07-.06-.14-.1-.21-.08-.15-.16-.3-.12-.48.03-.13.17-.23.3-.32.05-.04.1-.07.13-.1.03-.03.09-.09.17-.17.51-.51.7-.68.77-.71.04-.05.08-.1.12-.13,0,0,0,0,0,0h0s.01-.02.01-.02c.19-.17.39-.35.58-.52.25-.22.51-.45.75-.68.07-.06.14-.15.22-.24.23-.26.48-.56.77-.61-.02-.08.02-.17.1-.21.01-.02.03-.04.05-.06.12-.09.33-.05.48-.02.03,0,.05,0,.07.01l1.78-.92.16.09v.04c-.05.29-.21.62-.41.84-.08.08-.16.14-.23.19-.04.03-.08.06-.12.09.11-.04.24-.04.42-.01.42.07,1.22.73,1.86,1.25.24.2.44.36.59.47.15.11.3.21.45.27l.04.02v.02s.03,0,.04.01c.19-.21.35-.19.52-.17.07,0,.14.02.23.01.32-.02.89-.61,1.31-1.05.17-.18.32-.33.43-.43.14-.12.28-.23.44-.34h0c.08-.06.16-.13.24-.19,0,0,0,0,0,0,0,0,0-.02,0-.03,0,0-.01,0-.02-.01-.02-.02-.04-.05-.04-.09v-.03c-.03-.06-.03-.11,0-.17h0c0-.16-.01-.33,0-.45.02-.14.1-.25.18-.36.07-.1.14-.2.16-.31l-.97-11.41c-.09.02-.31.12-.43.17-.23.1-.42.18-.51.18-.09,0-.17-.04-.2-.11-.04-.08-.02-.19.04-.28.03-.03.38-.32.42-.34.34-.21,1.22-.58,1.61-.71.34-.11.58-.12.69-.01.07.07.1.17.08.3-.05.27-.46.39-.81.49-.17.05-.33.09-.42.15t-.04.04l.63,7.59c.07-.02.15-.04.22-.06.13-.03.27-.06.34-.11.07-.05.13-.18.19-.31.06-.12.11-.24.18-.32.32-.37.84-.54,1.41-.48.02,0,.03-.02.05-.02.06-.02.13-.01.16,0,.04,0,.07.03.11.05,1.3.31,1.3,1.34,1.19,2.37v.05s-.13.03-.13.03c-.44.1-.93.21-1.25.55-.07.08-.11.15-.15.22-.08.13-.15.26-.42.36h0c-.16.06-.45.17-.57-.09l-.22-.65c-.29-.13-.26-.28-.23-.43.01-.07.03-.14.02-.23,0-.05-.09-.29-.12-.36l-.76-.18.33,3.63s.07.02.11.03h.01c.05.03.11.05.16.08,0,0,.01,0,.02.01h0c.05-.08.09-.16.14-.26.07-.14.12-.29.17-.44.11-.3.21-.62.49-.85.23-.19.54-.28.79-.35,0,0,0-.02,0-.02,0-.03.02-.05.04-.08h-.02s.05-.07.05-.07c.33-.4,1.14-.79,1.7-.68.06.01.12.05.17.1.02,0,.04,0,.06.01.15.04.28.08.4.14.01,0,.02,0,.03.02h.01c.35.08,1.13.42,1.34.58,1.04.82,1.29,3.37,1.35,4.81.02.53.02,1.48-.21,1.8-.12.18-.33.29-.6.33h0s-.01,0-.01,0c-.06-.01-.12,0-.19.02h-.01c-.11,0-.21,0-.25-.01-.23-.03-.46-.19-.69-.33-.13-.08-.25-.16-.36-.22-.59-.28-1.19-.36-1.79-.23h0s0,0,0,0c-.04,0-.07-.01-.11,0h-.09s.09-.09.09-.09c.06-.07.09-.16.11-.25.02-.07.04-.14.07-.2.05-.08.13-.13.2-.16.09-.05.15-.08.15-.17.01-.17-.4-1.02-.56-1.25-.08-.1-.29-.33-.53-.55-.17.32-.42.58-.73.76-.36.25-.88.25-1.26,0-.38.4-.82.72-1.44,1.03-.11.05-.25.11-.41.17-.27.11-.58.23-.72.34-.02.02-.24.28-.3.36,0,0,.01,0,.02.01.59.42,1.32.72,2.02,1,.19.08.36.15.53.22,0,0,.02-.01.03-.02.08-.2.27-.23.41-.26.06-.01.13-.02.16-.04.03-.02.08-.11.12-.18.07-.12.14-.26.23-.32.2-.12.41-.07.59,0,.01,0,.02,0,.04,0,.08-.04.18-.04.26,0,.01,0,.03.02.04.03l.03.03-.03.02c-.06.05-.12.1-.18.15-.19.16-.39.33-.62.45-.07.04-.15.08-.24.13-.24.12-.54.27-.74.45-.13.09-.24.2-.35.3-.05.05-.1.1-.16.14v.02s-.02.01-.02.01c-.07.03-.13.08-.19.14-.03.03-.05.06-.08.08h0s0,0,0,0c-.08.02-.15.05-.2.09,0,0,0,0-.02.01h0s-.01.02-.02.03h0s-.01.02-.02.04h0c-.03.06-.06.1-.08.17-.2.66.1,1.28.39,1.88v.03c.25.48.46.94.46,1.42.19.67.32,1.38.4,2.09,0,.03.02.05.03.07h0s0,.01,0,.01c0,.05,0,.1,0,.15v.03s0,0,0,0c-.03.34-.32.57-.57.77l-.05.04s-.07.05-.1.08c-.12.1-.25.2-.36.3-.02.02-.04.05-.07.07h0s0,.01,0,.01c.17.06.37.07.56.03.3-.05.6-.19.88-.31.1-.05.2-.09.31-.14l.07-.03c.16-.07.33-.14.5-.18.03,0,.07-.01.11-.02.11-.02.26-.04.3-.11.08-.13-.1-.43-.2-.6-.01-.03-.03-.05-.04-.07l-.02.04-.02-.1s0-.03,0-.04h0s-.02-.07-.02-.11c-.02-.08-.04-.16-.06-.23-.03-.13-.06-.24-.07-.3-.03-.28-.04-.58-.04-.88,0-.18,0-.39-.02-.59h0s0,0,0,0c0-.06.02-.12.03-.17v-.04c.01-.06.02-.12.03-.18,0-.04,0-.08.01-.12.03-.32.01-.65-.05-.97h0c-.05-.26-.12-.52-.22-.76,0,0,0,0,0-.01v-.02c-.02-.11-.03-.2-.03-.28h0s0-.02,0-.02c.03-.06.08-.11.13-.14h0c.11-.04.21-.05.33-.07.04,0,.07-.01.11-.02.17-.03.33-.08.49-.12.04-.01.08-.02.12-.03l.19-.06c.35-.1.71-.2,1.05-.33.09-.03.17-.06.27-.1.3-.1.6-.21.87-.37.31-.11.73-.3.89-.38.13-.07.24-.15.34-.23.1-.12.19-.21.28-.29.16-.13.33-.22.5-.26h.01c.54-.23.96-.4,1.08-.22.04.06.05.13.04.22-.05.24-.31.55-.48.71h0s0,.09,0,.09c0,.67-.34,1.11-1.07,1.34-.6.19-1.35.2-1.95.21-.05,0-.09,0-.14,0,1.03.17,2.6.19,3.08-.63.04-.08.05-.14.06-.19.02-.13.05-.21.31-.24l.33-.03c2.32-.2,4.14-.35,6.32.79.13.07.26.15.39.24.29.19.59.38.87.42.24.04.5.03.74.03.27,0,.54,0,.81.04.09.02.26.08.39.13.06.02.14.05.16.06h.01s.02,0,.02,0c.08.04.13.07.18.1.05.03.1.07.14.1.22.16.41.29.7.31.03,0,.07,0,.11-.02h.02s.02,0,.02,0c.23.03.48,0,.73-.08.2-.07.37-.16.52-.27l.04-.03s.03-.05.05-.07c.02-.03.05-.06.07-.09l.17-.2c.02-.06.07-.12.09-.13.01-.01.03-.03.05-.04.24-.22.59-.22.95.01h0c.19.12.28.25.28.4,0,.28-.41.5-.63.62-.76.42-1.97.75-2.97.53-.2-.04-.33-.11-.46-.16-.18-.08-.34-.15-.65-.15h-.47c-.26.05-.53.06-.79.03,0,0,0,0,0,0,0,0-.01.01-.02.02l-.03.02h-.03s-.1-.04-.15-.05c.04.13.07.26.09.39,0,.04,0,.08.01.12,0,0,0,.01,0,.02h0c.09.7-.03,1.38-.34,1.98-.5.96-1.99,2-2.88,2.38-.42.18-.87.29-1.3.39-1.14.27-2.21.53-2.54,1.98-.02.09-.03.19-.04.3-.02.2-.03.41-.14.57-.15.23-.54.33-.88.41-.12.03-.24.06-.33.09-.86.31-1.87.77-3.09,1.41-.11.06-.23.13-.35.21-.16.1-.32.21-.48.28-.09.1-.18.19-.28.26-.15.11-.33.18-.51.2-.1.05-.23.06-.37.08-.17.02-.35.05-.44.14-.07.07-.06.1-.02.18.04.09.1.21,0,.39-.14.27-.55.41-1.21.41ZM23.72,24.14s0,0,0,0h.15s-.14.06-.14.06c-.26.1-.53.19-.79.28-.63.21-1.27.43-1.81.84-.75.56-1.05,1.31-1.34,2.16-.09.26-.14.48-.19.67-.17.67-.25.97-1.18,1.44-.17.09-.47.22-.81.37-1,.44-2.36,1.05-2.58,1.38-.04.06-.07.13-.1.19-.04.09-.07.17-.15.25-.17.19-.4.28-.63.37-.18.07-.35.14-.49.25-.08.07-.17.18-.26.29-.08.1-.17.21-.26.3-.04.04-.12.1-.21.18-.26.21-.62.51-.62.61,0,.17.46.27.91.28.71.02,1.16-.11,1.29-.37.08-.15.03-.25,0-.34-.04-.09-.07-.16.03-.26.11-.11.3-.13.48-.15.13-.02.26-.03.35-.08h.01c.17-.02.34-.09.49-.19.1-.07.19-.15.28-.26h.01c.16-.08.32-.19.48-.29.12-.08.24-.16.36-.22,1.23-.64,2.24-1.11,3.1-1.41.09-.03.21-.06.34-.09.33-.08.7-.18.84-.39.1-.15.11-.35.13-.54,0-.11.02-.21.04-.31.35-1.48,1.44-1.75,2.59-2.03.43-.1.88-.21,1.29-.39.87-.38,2.35-1.4,2.85-2.35.31-.59.42-1.26.33-1.93h0s0-.02,0-.03c0-.04-.01-.08-.02-.12-.03-.14-.06-.29-.1-.43l-.02-.05h.05c.08.02.15.04.22.06h0s.03-.02.04-.03h.01s.01,0,.01,0c0,0,0,0,0,0,.26.03.52.02.77-.03h.48c.32,0,.49.07.68.16.13.06.26.12.45.16.98.22,2.18-.11,2.92-.53.2-.11.59-.33.59-.57,0-.12-.08-.23-.25-.34h0c-.33-.21-.65-.22-.87-.01-.02.01-.04.03-.05.04-.02.02-.06.07-.07.11h0s-.18.22-.18.22c-.02.03-.05.06-.07.09-.02.02-.04.05-.05.07h0s-.05.04-.05.04c-.15.12-.34.21-.54.28-.26.09-.52.11-.76.08h0s-.09.02-.13.02c-.31-.02-.51-.16-.73-.32-.05-.03-.09-.06-.14-.1-.05-.03-.1-.06-.17-.1h0s-.07-.02-.18-.06c-.14-.05-.3-.12-.38-.13-.26-.05-.53-.04-.8-.04-.25,0-.51,0-.76-.03-.29-.05-.6-.24-.9-.43-.14-.09-.27-.17-.39-.24-2.15-1.14-3.97-.98-6.28-.79l-.33.03c-.23.02-.24.08-.26.18,0,.06-.02.13-.07.22-.54.93-2.4.82-3.41.62h-.04s.03-.06.03-.06h.02c.13-.01.27-.02.41-.02.6,0,1.34-.02,1.93-.2.7-.22,1.03-.64,1.02-1.28h0s-.02.02-.02.02v-.1s.01-.01.01-.02h0s0-.02,0-.02c.27-.27.44-.53.47-.69.01-.07,0-.12-.03-.17-.1-.15-.64.08-1,.24h-.02c-.17.05-.33.14-.48.26-.09.07-.18.16-.28.28-.11.09-.23.17-.36.24-.16.09-.58.27-.89.38-.26.16-.57.27-.87.37-.09.03-.18.06-.26.1-.35.13-.71.23-1.06.33l-.19.06s-.08.02-.12.03c-.16.05-.33.1-.5.12-.04,0-.07.01-.11.02-.11.02-.21.03-.31.06-.04.03-.08.06-.1.11,0,.07.01.15.03.26,0,0,0,.01,0,.02.1.24.17.49.22.75.02,0,.03.01.05.02l.16.05h-.17s-.02.01-.03.01c.05.31.06.62.04.92,0,.04,0,.08-.01.12,0,.06-.01.12-.02.18v.04c-.01.06-.02.11-.03.17.01.2.02.41.02.59,0,.29,0,.59.04.87,0,.06.03.17.06.29.02.08.04.16.06.24,0,.03,0,.06.02.09h0s.01.04.01.04c.02.03.04.08.07.12.12.21.29.51.2.67-.06.1-.22.12-.35.14-.04,0-.08.01-.11.02-.17.05-.33.11-.49.18l-.07.03c-.1.04-.21.09-.31.13-.29.13-.58.26-.89.32-.2.04-.41.02-.6-.04l-.1-.03.03-.04s.03-.03.04-.05c.02-.03.05-.06.07-.08.12-.11.24-.21.37-.31.03-.03.07-.05.1-.08l.05-.04c.25-.2.53-.42.55-.75v-.03s0,0,0,0c0-.04,0-.08,0-.12-.01-.02-.02-.04-.03-.07h0c-.08-.72-.21-1.42-.4-2.09h0c0-.51-.26-1.03-.44-1.4v-.03c-.3-.58-.62-1.25-.41-1.93.02-.07.05-.13.08-.18h0s.02-.03.03-.05h0s.01-.02.02-.03h0s.02-.03.02-.03c.06-.05.13-.08.21-.1.03-.03.05-.05.08-.08.06-.06.12-.1.19-.14v-.03s.03,0,.03,0c.05-.05.1-.09.16-.14.11-.1.23-.21.35-.3.2-.19.51-.34.75-.46.09-.04.17-.09.24-.12.22-.12.42-.29.61-.45.05-.04.1-.08.15-.12-.07-.03-.14-.03-.2,0h-.01s-.01,0-.01,0c-.01,0-.03,0-.04,0h-.01c-.18-.06-.36-.11-.54,0-.08.05-.15.18-.21.29-.06.11-.1.18-.14.21-.05.03-.11.04-.18.05-.14.02-.31.05-.37.23h0s0,.02,0,.02c-.02.01-.03.02-.05.03h-.02s-.02,0-.02,0c-.17-.07-.35-.14-.54-.22-.71-.29-1.44-.58-2.03-1.01,0,0-.01,0-.02,0v-.03s0,0,0,0h-.03s0,0,0,0h0s0-.02,0-.03c.02-.04.3-.38.33-.4.15-.12.46-.25.73-.35.16-.06.3-.12.41-.17.62-.31,1.06-.63,1.44-1.03l.02-.02.02.02c.37.24.87.25,1.22,0,.31-.18.56-.45.72-.77l.02-.04.03.03c.25.23.49.48.57.59.16.22.59,1.09.58,1.29,0,.13-.1.18-.19.23-.07.04-.13.07-.17.14-.03.05-.05.12-.07.19-.02.09-.05.18-.11.26.02,0,.03,0,.05,0,.6-.13,1.22-.05,1.82.23.12.06.24.14.37.22.22.14.45.29.66.32.04,0,.13.02.24.02.08-.03.15-.03.22-.02h0c.25-.04.44-.14.55-.3.22-.31.22-1.24.19-1.76-.06-1.43-.31-3.96-1.32-4.76-.2-.15-.98-.49-1.31-.56h0s-.02-.01-.02-.01c0,0-.02,0-.03-.01-.11-.05-.24-.09-.39-.13-.02,0-.04-.01-.07-.02h-.01s0-.01,0-.01c-.04-.04-.09-.08-.14-.09-.54-.1-1.32.27-1.64.66h.02s-.03.04-.03.04c0,0,0,0,0,.01-.02.02-.03.05-.04.07,0,.01,0,.02,0,.03v.02s-.02,0-.02,0c-.25.07-.56.16-.79.34-.27.22-.37.52-.47.82-.05.15-.1.3-.18.44-.05.1-.1.19-.15.26l-.04.07-.03-.03s-.03-.02-.04-.03c-.04-.03-.09-.05-.14-.07h-.02s-.08-.03-.12-.04h-.02s-.34-3.77-.34-3.77l.88.21h0c.04.07.13.34.14.41,0,.1,0,.18-.02.25-.03.14-.05.25.2.36h.01s.22.68.22.68c.09.18.29.13.49.05h0c.25-.09.31-.2.39-.33.04-.07.08-.15.16-.23.33-.35.83-.47,1.28-.57l.08-.02c.11-1,.11-2.01-1.15-2.3h-.01s-.06-.04-.09-.05c-.03,0-.08-.01-.13,0-.02,0-.03.01-.05.02h0s-.01,0-.01,0c-.55-.07-1.05.1-1.36.45-.07.07-.12.19-.17.3-.06.14-.13.28-.21.33-.08.06-.22.09-.36.12-.09.02-.18.04-.26.07l-.04.02v-.04s-.64-7.64-.64-7.64c0-.06.03-.07.07-.1.1-.06.26-.1.43-.15.34-.1.73-.21.77-.44.02-.11,0-.19-.05-.24-.1-.09-.32-.08-.63.03-.39.13-1.26.49-1.59.7-.05.03-.38.3-.4.32-.05.07-.06.15-.03.21.03.06.09.07.14.07.08,0,.29-.09.49-.18.23-.1.42-.18.48-.18h.03v.03s.97,11.46.97,11.46h0c-.02.13-.09.24-.17.35-.07.1-.15.21-.16.33-.02.12-.01.28,0,.43v.02s0,0,0,0c-.02.05-.02.09,0,.13l.02.05s.01.04.01.05c0,0,0,0,.01,0h.02s0,.02,0,.02c0,.01,0,.02.01.04,0,0,0,.02.01.03v.02s0,.02,0,.02c-.09.07-.18.14-.26.2h0c-.15.12-.3.23-.43.34-.11.09-.25.25-.42.42-.42.45-1.01,1.06-1.35,1.07-.09,0-.17,0-.24-.01-.17-.02-.31-.04-.48.16v.02s-.04,0-.04,0c-.03-.01-.06-.02-.08-.03h-.02s0-.03,0-.03c-.16-.06-.32-.17-.46-.28-.15-.11-.35-.28-.59-.47-.64-.52-1.43-1.17-1.83-1.24-.35-.06-.49.03-.59.17l-.02.02-.09-.04.03-.03c.08-.09.15-.17.18-.2.05-.05.11-.08.16-.12.07-.05.15-.1.22-.18.19-.21.34-.53.38-.81l-.09-.05-1.76.91h-.01s-.05,0-.08-.02c-.14-.03-.34-.06-.43,0-.02.01-.03.03-.04.04h0s0,.01,0,.01c-.07.03-.1.11-.07.17l.02.04h-.05c-.28.04-.54.34-.76.6-.08.09-.16.18-.23.25-.24.23-.5.46-.75.68-.19.17-.39.34-.57.51h0s0,.01,0,.01h-.01c-.04.05-.08.1-.12.15h0s-.02.01-.02.01h0c-.07.02-.49.44-.74.69-.08.08-.14.14-.18.17-.04.03-.09.07-.14.11-.12.08-.25.18-.28.29-.04.16.04.3.11.43.04.07.08.15.1.22.02.07.03.13.03.19,0,.11.02.21.15.32.21.18.41.17.62-.01l.08-.07-.08.3c.11.12.25.18.39.17.32-.01.63-.33.78-.51h0s.06-.03.06-.03h.01c.51.2,1.12.2,1.7.19.17,0,.3-.02.4-.03.26-.03.39-.05.81.18,1.1.58,1.59,1.67,2.06,2.73.11.24.21.46.32.69v.02s0,.02,0,.02c-.02.03-.03.08-.02.11l.15.48s.02.04.03.05h0s0,.05,0,.05c0,.07,0,.15,0,.24,0,.19.05.36.13.52.04.08.08.15.12.22.04.06.08.12.11.19.06.11.11.23.16.34l.03.07h-.05c-.06,0-.11,0-.17.03,0,0-.01,0-.02.02h0s-.01,0-.01,0l-3.34.44c-.2.07-.37.24-.46.48-.08.22-.09.47-.02.69h0s0,.02,0,.02c-.16.37-.16.8,0,1.17h0s0,.02,0,.02c-.02.16-.01.43,0,.65,0,.1,0,.19,0,.26,0,.04-.01.08-.02.12,0,.03-.02.07-.02.1,0,.12.05.46.09.54.02.04.05.07.09.1h0s0,.01,0,.01c.01.03.03.06.05.1h0s0,.03,0,.03c0,.09.06.16.1.24.04.07.09.14.1.22.01.08.01.17,0,.26,0,.09,0,.19.01.28.05.19.89.99,1.08,1.09.1.05.2.05.28,0,.29-.2.32-1.08.29-1.33-.06-.47-.33-.56-.75-.56h-.02s0-.01,0-.01c-.02-.03-.03-.08-.05-.16,0-.03-.01-.06-.02-.1h0s.09-.25.09-.25c.05-.14.04-.26-.02-.39-.02-.05-.05-.1-.08-.14h0s-.01-.06-.01-.06c-.02-.09-.05-.18-.06-.26,0-.04,0-.13,0-.23,0-.21,0-.34,0-.44l-.03-1.23h.02s.03-.02.04-.03c.22-.06,1.09.1,1.79.23.29.05.56.1.74.13h0s.03.01.04.02c.41.1.82.15,1.23.16.02,0,.05,0,.08,0,.09,0,.18,0,.27,0h.01s0,0,0,0c.06.04.13.06.2.07h.06s-.04.06-.04.06c-.23.23-.46.46-.67.68-.34.36-.69.72-1.07,1.05h0c-.24.37-.22.73.06,1.07.18.22.59.46.87.32h.02s.02,0,.02,0c.11.1.26.16.36.2.28.11.57.18.9.23h0c.18.06.39.11.47.13.42.11,1.17.3,1.43.3.02,0,.03,0,.04,0,.07-.01.15-.04.24-.07.1-.04.19-.07.29-.08.16-.02.31-.02.46-.02.2,0,.41,0,.66-.05.32-.07,1.03-.28,1.03-.46,0-.21-.98-.73-1.19-.77-.35-.07-.48.08-.62.23-.09.1-.19.2-.35.23h0s-.55-.2-.55-.2c-.09-.05-.2-.09-.34-.13-.1-.03-1.1-.19-1.46-.22h0s0,0,0,0c-.2-.12-.43-.19-.66-.19-.04,0-.08,0-.12,0h0s-.06-.01-.06-.01h0s0,.02,0,.02h-.02s-.04.01-.05.02l-.09.03.05-.08c.05-.08.1-.13.14-.16.19-.08.38-.15.57-.22h0c.41-.16.84-.32,1.24-.52.2-.1.4-.22.59-.33.24-.14.48-.29.73-.39.12-.05.27-.1.44-.14.39-.11.82-.24.97-.54,0,0,0-.02.01-.02,0-.01.01-.02.02-.03h0s.02-.02.02-.02c.01,0,.03-.02.04-.02h.03s.02-.02.03-.02c.03,0,.06-.02.1-.02.02,0,.04,0,.06,0,0,0,0,0,.01,0h.02s0,0,0,0h0c1.49.05,3-.16,4.48-.63h.03c.16-.06.43-.15.68-.24h0c.12-.02.21-.05.3-.09.01,0,.02-.01.03-.02h.01s.02,0,.04-.02c.05-.02.09-.05.11-.09.04-.06.08-.14.12-.22h0s.04-.08.05-.11c.08-.09.17-.17.26-.24.03-.02.06-.05.09-.07.08-.07.14-.13.19-.19h0c.34-.22.71-.38,1.09-.48.57-.14,1.37-.25,1.59-.28,0,0,.01,0,.02,0,.02,0,.05,0,.07,0ZM18.6,29.81l.06-.09s.04-.05.06-.06c.04-.02.09-.03.14-.03h.13s-.4.17-.4.17ZM8.89,25.69l-.14-.11s-.02-.02-.03-.03l-.02-.02v-.03s.04-.05.04-.05l.15.25ZM4.12,18.61h-1.24s-.03-.03-.03-.03l-.09-.07.05-.02c.12-.05.24-.1.38-.17h0s0,0,0,0c.05,0,.1.01.15.02.22.03.46.08.66.21l.09.06ZM2.89,18.53h.01s-.01.04-.01.04l.02-.03h0s.98,0,.98,0c-.16-.08-.35-.11-.52-.14-.05,0-.1-.01-.14-.02-.12.05-.23.1-.33.14ZM5.25,18.52v-.03s-.04-.08-.07-.1c-.03-.03-.07-.05-.11-.09l-.08-.07.11.02c.12.02.26,0,.43-.08l.08-.03h.01s.02.01.03.01c0,0,0,0,0,0,.1,0,.34-.07.49-.11l.09-.02c.54-.15,1.11-.38,1.6-.65.06-.04.92-.55,1.02-.65h.01s.02,0,.02,0c.06.01.13.02.19.03h.03s.02,0,.03,0h.04s0,.04,0,.04c0,.02-.01.04-.03.07h0c-.08.15-1.41.85-1.67.97-.6.28-1.48.63-2.2.71h-.03ZM5.19,18.31s.02.02.03.02c.04.03.07.07.08.11.71-.09,1.56-.43,2.15-.7.32-.15,1.58-.82,1.64-.94h0s0-.01,0-.02h-.02c-.06,0-.12-.02-.18-.03-.15.13-.97.62-1.02.65-.49.27-1.07.51-1.62.66l-.08.02c-.18.05-.42.12-.52.12-.01,0-.03,0-.04,0l-.05.02c-.1.04-.23.09-.37.09Z"/>
              </g>
            </g>
            <g>
              <path class="cls-1" d="M14.85,10.6c.14.06.27.14.39.23s.27-.06.24-.18c-.06-.23-.12-.46-.19-.69l-.27.16c.22.18.43.36.64.56.06.06.15.06.21.01.07-.05.07-.13.04-.21-.11-.26-.14-.55-.08-.82l-.24.1c.28.17.42.48.55.77.08.17.35.05.3-.13-.08-.27-.09-.56-.02-.84h-.31l.21,1.05.27-.16c-.1-.09-.13-.26-.18-.38-.06-.15-.12-.3-.19-.46-.03-.07-.09-.13-.18-.12-.08.01-.14.08-.14.16v.46c-.01.07-.01.15-.02.22v.11s0,.04,0,.06c0,.04,0,.04,0,0l.06-.06h0s.06,0,.09,0c.03,0,.01.02,0,0,0-.02-.02-.04-.03-.06-.02-.04-.03-.08-.05-.12-.03-.08-.04-.17-.05-.26l-.32.04c.03.1.05.21.06.32,0,.05,0,.11,0,.16,0,0,0,.03,0,.03.01,0,.07-.04.07-.04,0-.01-.1-.06-.11-.07-.04-.03-.08-.06-.12-.1-.08-.07-.15-.14-.22-.22-.12-.14-.36.04-.26.2.12.19.27.36.44.5.13.11.3,0,.27-.16l-.09-.57-.27.16c.2.16.38.34.54.54.07.09.25.04.27-.07.04-.19.06-.38.06-.57,0-.1,0-.19-.01-.29,0-.01,0-.11-.01-.11.03.01-.06.03-.06.04,0,0,.02.05.02.06.01.04.02.08.03.12.02.08.05.16.1.23.08.14.21.26.35.34.18.1.35-.18.16-.28-.14-.08-.25-.21-.29-.37-.03-.1-.04-.2-.1-.29s-.16-.15-.27-.14-.22.08-.25.19c-.03.1,0,.21,0,.32.01.22,0,.45-.05.67l.27-.07c-.16-.2-.34-.38-.54-.54-.13-.1-.3,0-.27.16l.09.57.27-.16c-.15-.12-.29-.27-.39-.43l-.26.2c.1.12.22.22.34.31s.26.2.42.15.19-.22.19-.37c0-.17-.03-.33-.08-.49-.05-.17-.33-.15-.32.04.01.17.05.34.12.5.07.15.21.34.4.22.09-.06.09-.15.1-.24v-.27c.01-.19.01-.38.02-.57l-.32.04c.07.17.14.34.21.52.07.16.12.34.24.47s.3,0,.27-.16l-.21-1.05c-.03-.16-.28-.15-.31,0-.08.33-.08.68.02,1.01l.3-.13c-.16-.34-.34-.68-.66-.88-.08-.05-.22,0-.24.1-.07.37-.03.73.12,1.07l.26-.2c-.21-.19-.42-.38-.64-.56-.12-.1-.32-.01-.27.16.06.23.12.46.19.69l.24-.18c-.15-.11-.3-.19-.47-.26-.08-.03-.18.04-.2.11-.03.09.03.17.11.2h0Z"/>
              <path class="cls-1" d="M15.57,10.9s-.09-.02-.14-.05c0,0,0,0,0,0,0,0,0,0,0,0-.07.04-.14.05-.2,0-.13-.1-.26-.17-.39-.22h0c-.11-.04-.16-.14-.13-.24.01-.05.06-.1.11-.13.05-.02.09-.03.13,0,0,0,0,0,.01,0,0-.03,0-.07.02-.1l-.02-.06h0l-.02-.06c-.02-.08,0-.16.07-.21.08-.05.18-.04.25.01.05.04.09.07.14.11.02,0,.03-.01.05-.01,0-.13,0-.26.03-.4.01-.06.05-.1.1-.13.06-.03.13-.02.18,0,.05.03.09.06.13.09.03-.04.07-.06.13-.07,0,0,0,0,0,0,.01,0,.03-.01.04-.02.03-.08.11-.13.19-.12.09,0,.16.06.18.14l.03.16c.03.06.05.12.06.19,0,.02.01.05.02.07.04.14.14.27.28.35.11.06.12.18.07.26-.05.08-.14.13-.25.08,0,.07-.04.13-.1.16-.07.04-.16.03-.22-.03-.01-.01-.03-.03-.04-.04h0s0,0,0,0c0,0-.01-.02-.02-.03-.01,0-.02,0-.03,0,0,.03-.01.07-.02.1-.01.07-.07.12-.15.14-.07.02-.14,0-.18-.05,0,0,0,0,0,0-.02.02-.05.03-.08.04-.05.02-.09.02-.13.01,0,0,0,0,0,0-.03.02-.06.02-.09.02ZM15.48,10.79s0,0,0,0c.02.02.05.03.08.04-.03-.01-.05-.03-.07-.04,0,0,0,0,0,0ZM15.19,10.75s.05.03.07.05c.05.04.1.02.12,0-.04-.03-.08-.07-.11-.11l-.08.06ZM15.97,10.79s.06.02.09,0c.04-.01.08-.04.09-.07,0,0-.02.01-.02.02-.05.03-.1.05-.16.04ZM15.76,10.75s-.01.04-.02.06c.02,0,.03,0,.05-.01.02,0,.04-.02.06-.03,0,0-.01-.01-.02-.02-.02,0-.05,0-.07,0ZM15.51,10.73s.1.06.15.07c.02-.02.03-.04.04-.07-.02,0-.04-.02-.06-.04,0,0,0,0-.01,0h0s0-.01,0-.01l-.1.06ZM15.96,10.73s.08,0,.13-.03c.04-.03.06-.06.07-.11l-.16.04s-.02.07-.04.09ZM14.86,10.57c.09.04.18.08.27.14l-.07-.27s-.04-.05-.06-.08h0s0,0,0,0c0,0,0,0,0,0,0,0,0,0,0,0-.02,0-.04-.02-.06-.03-.02,0-.05,0-.08,0-.04.02-.07.05-.08.09-.02.08.03.14.09.16h0ZM16.35,10.62s.02.02.03.03c.04.04.1.05.15.02.04-.02.08-.07.07-.14-.02,0-.03-.02-.05-.03l-.2.12ZM15.44,10.68s0,0,.01.01c0-.01,0-.03,0-.04l-.02-.08h0s.02.11.02.11ZM15.77,10.68s.01,0,.02,0c0,0-.01-.01-.02-.02,0,0,0,.01,0,.02ZM15.16,10.57l.03.1.04-.03s-.04-.05-.06-.07ZM15.68,10.64s0,0,0,0c0,0,0,0,.01,0v-.02s-.01,0-.01,0ZM15.49,10.55l.02.08s0,.01,0,.02l.05-.03s-.05-.05-.08-.07ZM15.78,10.57s.04.05.06.08v-.02s.01-.05.02-.07c0,0-.01-.02-.01-.04l-.06.05ZM15.36,10.62s0,0,0,0h0s0,0,0,0ZM15.14,10.41c.05.06.11.11.17.16l.04-.03c-.07-.05-.14-.09-.21-.13ZM16.02,10.47s0,.06,0,.09l.08-.02s-.03-.04-.05-.06c0,0,0,0-.01,0h0ZM16.31,10.43l.02.11c.05-.03.09-.08.07-.15,0,0,0,0,0,0l-.09.04ZM15.46,10.44s.07.06.1.09c0,0,0,0,0-.01-.04-.03-.07-.07-.1-.11v.02ZM16.66,10.49s.02,0,.02.01c.08.04.14,0,.18-.05.03-.06.03-.13-.04-.17-.1-.06-.19-.14-.24-.23l.09.44ZM15.74,10.49h0s0,.02,0,.02l.09-.07s-.09-.08-.13-.12l.02.16s0,0,0,0c0,0,0,0,0,0ZM16.17,10.49h0s0,0,0,0h0ZM16.48,10.44s0,.02,0,.03h.02s-.01-.03-.02-.03ZM15.12,10.33c.08.04.15.08.22.12v-.04c-.06-.04-.1-.08-.15-.13l-.06.05ZM16.12,10.31s.02.08.03.11h.01s-.03-.08-.04-.11c0,0,0,0,0,0ZM15.58,10.38s.03.02.04.03c0-.01,0-.03,0-.04h0c-.02-.06-.03-.12-.04-.17,0,0-.01-.01-.02-.02h-.02c.01.07.02.14.04.2ZM15.94,10.38s0,.02,0,.03h0s0-.02,0-.03c0,0,0,0,0,0ZM16.41,9.99l.03.07s.02.06.04.1c.03.07.05.16.1.22l-.14-.7c-.02.1-.03.21-.02.32ZM16.28,10.25l.02.11.07-.03s-.06-.08-.09-.12c0,0,0,0,0,0,0,.02,0,.04,0,.05ZM16.46,10.33s.02.02.03.03c-.02-.03-.03-.06-.04-.09,0,.02.01.05.02.07ZM15.7,10.21s.09.09.14.13c0-.03-.02-.06-.03-.1-.04-.04-.08-.08-.13-.11v.08ZM15.24,10.25s.05.05.08.07v-.08s-.02-.02-.03-.02l-.05.04ZM15.44,10.25s.04.04.06.06c0-.03-.01-.06-.02-.08l-.05.03ZM15.05,10.18l.03.11.05-.04s-.06-.05-.08-.07ZM16.09,10.05l.06.14s.02.05.03.08v-.19s-.03-.19-.03-.19c-.02-.03-.04-.05-.06-.08,0,.08,0,.16,0,.24ZM15.98,10.12s.04.07.06.1c0-.05-.01-.1-.02-.15l-.07-.18s0,.05,0,.07c0,.02,0,.04,0,.05,0,.03.02.07.02.1ZM15.1,10.13s.06.05.09.07l.06-.05s0,0,0,0c-.04-.05-.1-.05-.15-.02ZM15.37,10.1l.03.1.08-.04s0-.04,0-.06c-.02-.02-.04-.03-.06-.05-.02.01-.03.03-.03.06ZM15.7,10.06s.06.05.09.08c0-.03,0-.06-.01-.09h-.08ZM16.28,9.99s.05.09.07.13c0-.04,0-.08-.01-.13l-.07-.17s0,0,0,.01c0,0,0,.01,0,.02,0,.05,0,.09,0,.14ZM15.85,10.04s0,.05,0,.07v-.07s0,0,0,0ZM15.19,10.05s.07.02.1.06c0,0,0,0,0,0,0,0,0,0,0,0l-.03-.1-.08.05ZM15.53,10.07s.03.02.04.03c0-.02,0-.04,0-.06h0s-.02-.02-.03-.02c0,.02,0,.03,0,.05ZM15.14,9.87s-.06,0-.08.02c-.04.03-.06.08-.05.13v.04s.25-.14.25-.14c-.01,0-.02-.02-.03-.03-.03-.02-.06-.03-.09-.03ZM15.34,9.99v.02s.01,0,.01,0c0,0,0,0-.01-.01ZM15.62,10s0,0,0,0c0,0,0,0,.01,0l.14-.02s0-.03,0-.05c-.02-.02-.04-.04-.06-.06,0,0,0,0,0,0-.02,0-.1.03-.1.12ZM15.52,9.95s.02,0,.04,0c0-.06.05-.11.1-.13-.03-.02-.05-.04-.08-.06l-.05-.03c0,.07,0,.14,0,.21ZM15.84,9.92s.01.01.02.02h0s-.01-.02-.02-.03h0ZM15.95,9.72l.07.17s0-.1,0-.15c0,0-.02-.02-.02-.03h-.05ZM15.84,9.84s.01,0,.02,0v-.16s0,0,0,0c0,.05-.02.11-.02.16ZM16.26,9.62l.09.22c0-.08.02-.17.04-.25,0,0,0,0,0,0h-.14s0,0,0,.01v.02s0,0,0,0h0ZM15.74,9.81s.02,0,.04,0c0-.04,0-.08.01-.12l-.13.05s.05.04.08.06c0,0,0,0,0,0ZM16.17,9.69v.05s.02,0,.02,0v-.05s-.02,0-.02,0ZM16.09,9.72s.01.01.02.02v-.04s-.02,0-.02,0c0,0,0,.01,0,.02ZM15.68,9.48s-.04,0-.06.01c-.04.02-.06.05-.07.08-.01.06-.02.11-.02.17l.34-.14s0,0,0,0c-.04-.03-.09-.07-.13-.1-.02-.01-.04-.02-.06-.02ZM15.86,9.66s0,0,0,0h0s0,0,0,0ZM15.98,9.59s.03.03.05.05h.01s.01-.08.02-.12c0,0,0,0,0,0-.03.02-.06.04-.08.07ZM16.15,9.58v.04s.04,0,.04,0h0s-.01-.03-.02-.04h-.02ZM16.2,9.52h.09s-.08-.03-.12-.03h0s.02.02.03.03ZM16.17,9.43c.08,0,.16.03.23.08v-.04c-.02-.06-.08-.09-.12-.09-.04,0-.08.01-.11.05,0,0,0,0,0,0Z"/>
            </g>
          </g>
        </g>
      </g>
      <g>
        <path class="cls-1" d="M14.62,17.65c.64-.27,1.35-.52,2.02-.33.26.08.65.1.89.24.41.24.54.47,1.12.59.09.02.64.01.7.09.09.13-.45.65-.52.78s-.2.24-.32.33c-.76.57-1.65.93-2.47,1.42-.34.2-.68.44-.89.78-.17.29-.24.62-.29.95-.08.61-.11,1.23-.13,1.85,0,.19-.01.38.04.57.1.34.4.59.46.94.01.07.02.16-.02.22-.04.07-.13.11-.21.14-.39.15-.77.3-1.16.45-.64.25-1.3.5-1.99.51-.18,0-.37-.01-.54-.09s-.31-.23-.32-.42c-.02-.21.12-.4.23-.59.48-.8.5-1.78.51-2.71,0-.42.01-.85-.11-1.26-.11-.35-.3-.67-.45-1-.15-.32-.26-.67-.32-1.02-.03-.16-.05-.32,0-.48.11-.42.6-.6,1.01-.73.96-.32,1.87-.76,2.72-1.31"/>
        <path class="cls-1" d="M15.28,20.06c.24-.1.49-.2.75-.27.08-.02.47-.08.09-.05s.02.02.1.02c.33-.02-.49-.09-.12,0,.09.02.18.03.27.05.02,0,.27.05.27.06,0,.02-.63-.34-.2-.05s.87.55,1.39.69c.3.09.63.11.95.14.08,0,.17.02.24.01.13.01.07,0-.19-.03-.26-.01-.51-.1-.74-.24l-1.15-1.49v.04c0-.44,0-.89,0-1.33,0,.01.34-.67.16-.41,0-.01.42-.51.2-.27-.15.17-.28.35-.42.53.08-.1-.46.57-.13.16.05-.1.13-.18.22-.23.15-.11.17-.13.06-.05-.22.13-.42.27-.64.4-.94.53-1.95.94-2.74,1.7-1.08,1.04-1.29,2.48-1.38,3.9-.03.48-.08.97-.03,1.45.06.6.16,1.07.46,1.61.05.09.1.17.16.26.4.65-.35-.23-.05-1.23l.64-1.1c.78-.41.99-.55.65-.41l-.25.1c-.14.05-.28.11-.41.16-.3.11-.6.23-.9.33-.16.06-.33.11-.5.15l-.17.04c-.22.04-.22.04,0,0,.22-.03.22-.03,0-.01h-.14c.71-.03,1.03.45.98,1.43.16,1.4.38,1.81.68,1.24.46-.66.63-1.54.74-2.32.09-.7.14-1.4.12-2.11-.03-.97-.27-1.78-.7-2.64-.06-.11-.13-.33-.21-.42.16.2.14.37.04.01-.04-.14-.05-.31-.1-.43.28.62-.26,1.54-.76,1.87.35-.23-.45.15-.17.06.12-.04.24-.08.36-.12.48-.17.96-.37,1.43-.58.6-.26,1.17-.57,1.72-.93,1.1-.71,1.65-2.25.9-3.42-.71-1.1-2.24-1.65-3.42-.9-.51.33-1.12.77-1.72.93.63-.16.08-.04-.06.01-.13.05-.27.09-.4.14-.43.15-.87.31-1.26.56-1.09.71-1.67,1.91-1.5,3.21.12.9.42,1.73.85,2.53.26.48-.13-.55,0-.02.14.57.02-.41.01-.04,0,.32.01.64,0,.97,0,.27-.07.56-.05.83l.05-.34c-.02.11-.04.21-.06.32-.02.11-.05.21-.09.31-.07.2-.07.2,0,0l.06-.15c-.05.1-.11.19-.16.28-.15.28-.3.58-.38.89-.19.74-.1,1.54.28,2.21.63,1.14,1.9,1.68,3.16,1.61.81-.05,1.57-.25,2.32-.53.85-.32,1.87-.56,2.54-1.2,1.08-1.03,1.02-2.53.32-3.74-.12-.22-.18-.52-.03.07s.02.44.04.24c.04-.42.02-.84.05-1.26,0-.12.02-.25.03-.37.05-.61-.16.51.01-.03.06-.2.28-.56-.02-.03-.23.41-.26.32-.11.16.35-.37-.48.27-.03.03.14-.07.28-.17.42-.24.29-.16.59-.31.89-.47.66-.35,1.39-.74,1.91-1.27.19-.19.34-.4.5-.61.35-.47-.46.54-.18.22.25-.28.52-.58.71-.9.91-1.51.23-3.47-1.51-3.94-.35-.1-.77-.12-1.14-.13s.75.15.24,0c.63.19.38.16.18.02-1.53-1.06-3.55-1.14-5.24-.44-.63.26-1.14.54-1.49,1.15-.31.54-.45,1.33-.25,1.93s.57,1.19,1.15,1.49,1.32.5,1.93.25h0Z"/>
      </g>
    </g>
  </g>
</svg>