<?xml version="1.0" encoding="UTF-8"?>
<svg id="Capa_2" data-name="Capa 2" xmlns="http://www.w3.org/2000/svg" viewBox="0 0 142.34 51.36">
  <defs>
    <style>
      .cls-1 {
        fill: #fff;
      }
    </style>
  </defs>
  <g id="Capa_1-2" data-name="Capa 1">
    <g>
      <path class="cls-1" d="M62.88,7.41c0,.46-.05.96-.16,1.48-.11.52-.21.79-.31.8-.05,0-.08-.02-.08-.08,0-.06,0-.12.03-.18.21-.57.31-1.23.31-1.98,0-1.15-.35-2.04-1.05-2.68-.7-.64-1.62-.91-2.77-.82-2.21.18-4.34,1.39-6.41,3.63.78,1.4,1.18,2.92,1.18,4.54,0,2.99-1.15,5.61-3.44,7.84-2.29,2.23-5.09,3.43-8.4,3.58-1.02.04-2.42-.04-4.2-.27-1.54.33-3.02.5-4.43.52-2.41.03-3.61-.22-3.61-.71,0-.24.29-.45.88-.63.59-.18,1.27-.28,2.06-.29.95,0,2.83.28,5.66.81,1.9-.56,3.4-1.41,4.5-2.54,1.07-1.1,2.7-3.46,4.91-7.11,1.33-2.21,2.79-4.12,4.39-5.74-1.33-2.15-3.49-3.12-6.47-2.96-3.08.17-5.91,1.49-8.48,3.98-1.29,1.26-2.33,2.62-3.1,4.11-.78,1.49-1.16,2.85-1.16,4.09,0,.98.31,1.77.94,2.35.62.58,1.45.87,2.48.84,1.74-.04,3.55-1.04,5.42-3,1.87-1.96,2.81-3.81,2.81-5.54,0-.66-.18-1.18-.55-1.56-.37-.38-.84-.56-1.44-.53-.67.03-1.01.15-1.01.37,0,.06.05.09.15.09.05,0,.1-.01.14-.03.08,0,.11,0,.19,0,.45-.02.67.18.67.59,0,.3-.11.57-.34.8-.23.23-.5.36-.81.37-.56.02-.83-.27-.83-.87,0-.41.18-.77.55-1.07.36-.31.81-.47,1.33-.49.67-.03,1.21.17,1.62.59.41.42.62.99.62,1.7,0,1.84-.96,3.78-2.88,5.78-1.92,2.01-3.8,3.03-5.64,3.08-1.27.03-2.31-.37-3.13-1.21-.82-.83-1.23-1.91-1.23-3.24,0-2.83,1.4-5.37,4.2-7.69,2.8-2.31,5.96-3.55,9.49-3.74,3-.16,5.26.79,6.78,2.9,2.22-2.21,4.48-3.4,6.78-3.59,1.15-.09,2.08.2,2.79.88.71.68,1.07,1.62,1.07,2.83ZM37.1,23.21c-2.52-.29-4.39-.44-5.63-.44-1.09,0-1.64.11-1.64.32,0,.32,1.19.49,3.58.46,1.37-.02,2.6-.13,3.69-.34ZM52.88,11.17c0-1.17-.25-2.24-.74-3.23-1.23,1.49-2.34,3.33-3.31,5.51-1.29,2.89-2.62,5.01-3.99,6.31-1.41,1.34-3.5,2.46-6.25,3.32,1.16.21,2.39.28,3.69.23,3.49-.16,6.32-2.02,8.49-5.55,1.4-2.28,2.11-4.48,2.11-6.58Z"/>
      <path class="cls-1" d="M60.94,17.36s-.08.15-.25.38c-.24.31-.35.47-.59.79-1.89,2.48-3.51,3.78-4.86,3.88-.64.05-1.17-.14-1.61-.57-.43-.43-.65-.99-.65-1.68,0-1.64,1.14-3.16,3.43-4.59,1.2-.75,2.18-1.16,2.94-1.22.33-.03.61.05.84.23.23.18.35.41.35.69,0,.66-.43,1.25-1.29,1.78-.86.53-3.24.84-4.29,1.63-.6.44-.93,1.79-.93,2.42,0,.78.42,1.15,1.27,1.08,1.44-.11,3.21-1.65,5.3-4.64.11-.16.21-.24.27-.24.03,0,.05.03.05.08ZM59.78,14.92c0-.29-.16-.42-.48-.4-.48.04-1.12.43-1.91,1.16-.79.73-1.56,1.66-2.32,2.78,1.31-.43,2.42-1,3.34-1.69.91-.69,1.37-1.31,1.37-1.85Z"/>
      <path class="cls-1" d="M65.17,16.98c.02.11-.51.81-1.52,2.03-1.04,1.25-2.46,2.46-4.26,3.62-.28.51-.42.76-.7,1.27-1.41,2.53-2.81,4.41-4.18,5.64-1.46,1.3-2.71,1.99-3.75,2.05-.93.06-1.39-.34-1.39-1.19,0-1.05.71-2.17,2.12-3.37.77-.65,1.43-1.16,1.97-1.5.83-.53,2.11-1.23,3.83-2.11.08-.04.11-.07.19-.11.96-1.78,1.44-2.66,2.39-4.44.67-1.21,1.52-2.77,2.57-4.67.25.04.47.06.64.04.25-.02.59-.08,1.01-.18-.73,1.25-1.83,3.21-3.31,5.88-.5.96-.75,1.44-1.26,2.4,1.17-.75,2.13-1.49,2.87-2.2.74-.72,1.54-1.69,2.41-2.91.11-.19.21-.29.29-.3.03,0,.06.02.07.05ZM57.37,23.58c-2.6,1.52-4.25,2.54-4.95,3.07-1.91,1.45-2.86,2.7-2.86,3.79,0,.29.11.53.33.71.22.18.49.26.82.24.96-.06,1.9-.67,2.84-1.8.79-.95,2.01-2.86,3.65-5.73.07-.11.1-.17.16-.29ZM65.55,11.33c0,.31-.13.61-.4.9-.27.29-.56.45-.88.47-.37.03-.56-.15-.56-.54,0-.29.13-.59.4-.88.27-.3.55-.46.85-.48.39-.03.59.15.59.54Z"/>
      <path class="cls-1" d="M74.77,16.15c0,.19-.68,1.14-2,2.83-1.08,1.38-1.93,2.11-2.55,2.17-.42.04-.76-.09-1.03-.38-.26-.29-.4-.67-.4-1.15s.15-1.04.44-1.64c-.91,1.36-1.61,2.28-2.09,2.77-.48.49-.95.75-1.41.79-.48.04-.89-.13-1.22-.52-.33-.39-.49-.89-.49-1.52,0-1.75,1.23-3.4,3.71-4.97,1.08-.7,1.96-1.07,2.62-1.13.56-.05.85.2.85.75,0,.16-.04.36-.11.62.28-.55.42-.83.7-1.39.27.04.51.05.72.03.25-.02.56-.08.96-.18-.97,1.69-1.45,2.53-2.42,4.22-.84,1.48-1.26,2.44-1.26,2.89s.18.63.53.6c.37-.03.95-.5,1.75-1.41.8-.91,1.62-2.01,2.45-3.3.05-.1.1-.15.15-.15.05,0,.08.02.08.07ZM71,14.22c0-.45-.21-.65-.62-.62-.84.07-1.94.99-3.3,2.75-1.36,1.76-2.04,3.14-2.04,4.16,0,.59.26.87.79.82.63-.05,1.72-1.19,3.27-3.42,1.27-1.82,1.9-3.06,1.9-3.69Z"/>
      <path class="cls-1" d="M88.35,15.05c0,.14-.5.8-1.51,1.98-1.11,1.3-2.56,2.52-4.35,3.65-.27.5-.4.75-.67,1.26-1.32,2.48-2.7,4.36-4.14,5.64-1.49,1.32-2.78,2.03-3.87,2.13-.37.03-.69-.06-.94-.27-.25-.22-.38-.5-.38-.84,0-1.83,2.11-3.92,6.33-6.24.35-.2.87-.49,1.56-.86.08-.06.12-.08.21-.14.96-1.79,1.44-2.69,2.41-4.48-.95,1.38-1.64,2.29-2.06,2.73-.43.44-.86.68-1.3.72-.37.03-.7-.1-.98-.4-.28-.3-.42-.66-.42-1.09,0-.52.32-1.36.97-2.52.84-1.49,1.26-2.24,2.11-3.73.21.02.45.02.72,0,.24-.02.56-.08.98-.18-1.08,1.84-1.62,2.76-2.69,4.6-.77,1.3-1.15,2.15-1.15,2.53,0,.41.19.6.56.57.98-.08,2.5-1.96,4.54-5.61.5-.9.75-1.35,1.26-2.25.21.02.46.02.77,0,.25-.02.55-.07.92-.17-1.13,1.88-2.66,4.63-4.59,8.26,1.11-.66,2.05-1.36,2.82-2.09.77-.73,1.62-1.74,2.57-3.03.13-.17.21-.26.25-.26.05,0,.08.02.08.08ZM80.45,21.6c-.15.09-.66.4-1.54.91-4.15,2.41-6.22,4.45-6.22,6.09,0,.68.38.99,1.15.92.97-.08,1.93-.69,2.88-1.82.96-1.13,2.14-3.07,3.55-5.81.07-.12.11-.17.18-.29Z"/>
      <path class="cls-1" d="M97.99,14.43c0,.19-.68,1.11-2,2.76-1.08,1.35-1.93,2.06-2.55,2.1-.42.03-.76-.11-1.03-.41-.26-.3-.4-.68-.4-1.16s.15-1.03.44-1.63c-.91,1.34-1.61,2.24-2.09,2.72-.48.48-.95.74-1.41.77-.48.03-.89-.14-1.22-.53s-.49-.9-.49-1.53c0-1.75,1.23-3.4,3.71-4.91,1.08-.68,1.96-1.03,2.63-1.07.56-.03.85.22.85.77,0,.16-.04.36-.11.62.28-.55.42-.82.7-1.37.27.05.51.07.72.05.25-.01.56-.06.96-.15-.97,1.65-1.45,2.48-2.42,4.14-.84,1.45-1.26,2.41-1.26,2.85s.18.63.53.61c.37-.02.95-.48,1.75-1.36.8-.88,1.62-1.96,2.45-3.22.05-.09.1-.14.15-.14.05,0,.08.02.08.08ZM94.22,12.38c0-.45-.21-.66-.62-.63-.84.05-1.94.94-3.3,2.68-1.36,1.73-2.04,3.11-2.04,4.12,0,.59.26.87.79.83.63-.04,1.72-1.17,3.27-3.35,1.27-1.79,1.9-3.01,1.9-3.65Z"/>
      <path class="cls-1" d="M115.37,4.52c-3.42,5.39-5.58,8.9-6.47,10.42-.9,1.55-1.35,2.53-1.35,2.93s.19.61.56.61c.83-.01,2.24-1.48,4.23-4.38.05-.09.1-.14.15-.14.05,0,.09.04.08.08,0,.02-.05.1-.14.22-.24.32-.35.48-.59.81-1.72,2.39-3,3.6-3.82,3.61-.42,0-.76-.14-1.03-.45s-.4-.71-.4-1.2.16-1.07.49-1.72c-1.6,2.29-2.78,3.46-3.55,3.49-.48.02-.89-.18-1.22-.58-.33-.4-.49-.92-.49-1.55,0-1.5.94-2.91,2.8-4.18,1.48-1.02,2.65-1.53,3.5-1.54.56,0,.85.26.85.81,0,.26-.08.54-.23.86,1.95-3.3,2.93-4.94,4.88-8.2.3.09.6.14.89.14.07,0,.36-.01.85-.04ZM108.78,11.87c0-.48-.22-.72-.67-.71-.82.01-1.9.85-3.25,2.53-1.34,1.68-2.02,3.02-2.02,4.02,0,.61.25.91.75.89.73-.02,1.98-1.33,3.76-3.9.95-1.39,1.42-2.33,1.42-2.83Z"/>
      <path class="cls-1" d="M119.49,14.18s-.08.14-.25.35c-.24.29-.35.43-.59.72-1.89,2.27-3.51,3.42-4.86,3.41-.64,0-1.17-.24-1.61-.7-.43-.46-.65-1.04-.65-1.73,0-1.64,1.14-3.1,3.43-4.32,1.2-.64,2.18-.95,2.94-.93.33,0,.61.11.84.32.23.2.35.45.35.73,0,.66-.43,1.2-1.29,1.64-.86.44-3.26.54-4.29,1.23-.57.38-.93,1.72-.93,2.35,0,.78.42,1.18,1.27,1.18,1.44.01,3.21-1.37,5.3-4.12.11-.14.21-.22.27-.21.03,0,.05.04.05.08ZM118.34,11.61c0-.29-.16-.44-.48-.45-.48-.01-1.12.31-1.91.96-.79.66-1.56,1.52-2.32,2.58,1.31-.33,2.42-.79,3.34-1.38.91-.6,1.37-1.16,1.37-1.71Z"/>
      <path class="cls-1" d="M13.95,36.3c0,1.49-.93,2.77-2.78,3.81-1.5.84-2.68,1.2-3.53,1.1-.58-.07-.88-.38-.88-.93,0-.16.04-.38.14-.65-2.09,3.23-3.14,4.82-5.24,7.97-.32-.13-.58-.21-.78-.24-.3-.05-.6-.05-.89.01,4.49-6.59,6.73-9.98,11.22-16.92.25.11.49.17.72.19.25.02.55.01.9-.04-1.62,2.48-2.44,3.71-4.06,6.15.97-1.18,1.68-1.96,2.13-2.31.44-.36.88-.51,1.32-.47.48.05.89.29,1.22.74.33.45.49.98.49,1.6ZM12.93,35.12c0-.59-.26-.91-.79-.96-.67-.06-1.78.9-3.35,2.86-1.21,1.52-1.82,2.58-1.82,3.2,0,.46.21.73.64.78.84.1,1.93-.59,3.29-2.09,1.35-1.5,2.03-2.77,2.03-3.79Z"/>
      <path class="cls-1" d="M21.76,37.74s-.08.14-.25.35c-.24.29-.35.43-.59.71-1.89,2.25-3.51,3.31-4.86,3.22-.64-.05-1.17-.32-1.61-.81-.43-.49-.65-1.09-.65-1.78,0-1.64,1.14-2.98,3.43-4.08,1.2-.58,2.18-.86,2.94-.82.33.02.61.13.84.33.23.21.35.45.35.73,0,.66-.43,1.2-1.29,1.62-.86.42-3.28.42-4.29,1.03-.55.34-.93,1.65-.93,2.28,0,.78.42,1.21,1.27,1.27,1.44.1,3.21-1.2,5.3-3.92.11-.14.21-.22.27-.21.03,0,.05.04.05.08ZM20.6,35.15c0-.29-.16-.44-.48-.46-.48-.02-1.12.28-1.91.9-.79.62-1.56,1.44-2.32,2.45,1.31-.24,2.42-.66,3.34-1.22.91-.57,1.37-1.13,1.37-1.68Z"/>
      <path class="cls-1" d="M29.55,37.88c0,.07-.28.41-.82,1-.69.76-1.35,1.14-1.96,1.13-.69-.01-1.04-.42-1.04-1.22,0-.25.05-.58.16-.97-.57.49-1.04.98-1.4,1.46-.36.48-.98,1.47-1.87,2.95-.48-.05-.77-.08-.85-.09-.04,0-.31,0-.83.02.9-1.42,1.35-2.13,2.24-3.55,1.12-1.79,1.68-2.91,1.68-3.34,0-.25-.11-.39-.32-.39-.51-.01-1.44.95-2.78,2.86-.08.12-.16.19-.22.18-.03,0-.06-.04-.05-.08,0-.04.03-.08.05-.11.1-.13.15-.2.25-.33,1.41-1.82,2.36-2.73,2.86-2.72.73.02,1.1.49,1.1,1.43,0,.7-.37,1.63-1.12,2.76.47-.53,1.1-.98,1.35-1.31.4-.52.78-1.48,1.29-2.02.51-.54.98-.81,1.39-.81.28,0,.42.13.42.37,0,.44-.63,1.06-1.9,1.86-.2.13-.5.31-.9.55-.07.05-.1.08-.16.13-.13.42-.19.76-.19,1.04,0,.77.29,1.15.86,1.16.71.01,1.49-.57,2.33-1.75.18-.2.3-.3.34-.3.05,0,.08.03.08.08Z"/>
      <path class="cls-1" d="M34.15,32.54c0,.36-.57,1.1-1.71,2.19-.05.28-.08.53-.08.74,0,.53.24,1.37.72,2.51.25.57.37,1.05.37,1.44,0,.82-.4,1.54-1.2,2.15-.8.61-1.74.91-2.84.91-.62,0-1.11-.18-1.48-.54-.37-.35-.55-.83-.55-1.42,0-.68.24-1.35.73-1.99.49-.64.99-.96,1.51-.96.09,0,.17.02.25.05.44-.54.66-.8,1.09-1.34.33-.39.77-.94,1.31-1.64.15-.64.39-1.19.71-1.65.32-.46.63-.69.94-.7.15,0,.22.08.22.24ZM32.25,37.96c0-.27,0-.54-.03-.81-.02-.27-.03-.65-.03-1.16,0-.41.02-.75.05-1.03-.51.65-1.25,1.57-2.21,2.74.17.15.26.32.26.53,0,.54-.44.9-1.33,1.09-.36.08-.66.27-.92.57-.26.3-.39.62-.39.96,0,.36.13.67.4.92.26.25.59.37.98.38.77,0,1.49-.44,2.18-1.33.69-.89,1.03-1.85,1.03-2.87Z"/>
      <path class="cls-1" d="M41.88,37.63s-.08.15-.25.37c-.24.3-.35.46-.59.76-1.89,2.41-3.51,3.62-4.86,3.65-.64.02-1.17-.2-1.61-.66-.43-.45-.65-1.03-.65-1.72,0-1.64,1.14-3.1,3.43-4.41,1.2-.69,2.18-1.05,2.94-1.08.33-.01.61.07.84.26.23.19.35.42.35.7,0,.66-.43,1.23-1.29,1.73-.86.49-3.25.7-4.29,1.42-.58.4-.93,1.74-.93,2.37,0,.78.42,1.17,1.27,1.15,1.44-.04,3.21-1.5,5.3-4.4.11-.15.21-.24.27-.23.03,0,.05.03.05.08ZM40.73,35.14c0-.29-.16-.43-.48-.42-.48.02-1.12.38-1.91,1.07-.79.7-1.56,1.58-2.32,2.67,1.31-.37,2.42-.88,3.34-1.53.91-.65,1.37-1.25,1.37-1.79Z"/>
      <path class="cls-1" d="M51.24,37.1c0,.15-.49.81-1.48,1.97-1.1,1.29-2.53,2.47-4.28,3.52-.27.51-.41.77-.68,1.28-1.24,2.35-2.63,4.18-4.17,5.48-1.48,1.25-2.75,1.89-3.83,1.92-.39.01-.72-.1-.97-.33-.25-.23-.38-.52-.38-.87,0-1.87,2.11-3.79,6.33-5.89.91-.46,1.5-.77,1.76-.93.93-1.76,1.39-2.64,2.32-4.4-1.01,1.4-1.73,2.29-2.14,2.7-.42.41-.84.62-1.28.64-.47.02-.88-.17-1.21-.58-.33-.41-.5-.91-.5-1.51,0-1.58,1.03-3.04,3.09-4.43,1.38-.92,2.46-1.41,3.24-1.46.55-.03.82.25.82.85,0,.16-.04.36-.12.6.31-.57.46-.86.77-1.43.25.05.46.07.64.06.24-.01.58-.07,1.04-.16-.06.09-.46.8-1.2,2.13-1.36,2.43-2.03,3.64-3.39,6.05,1.19-.74,2.15-1.45,2.86-2.12.71-.67,1.52-1.63,2.43-2.87.14-.19.23-.29.27-.29.04,0,.06.03.06.08ZM43.39,43.48c-.17.11-.69.39-1.54.85-4.16,2.24-6.23,4.12-6.23,5.76,0,.28.1.52.31.7s.48.28.81.27c1-.03,1.98-.57,2.93-1.63.95-1.06,2.14-2.95,3.57-5.67.07-.11.1-.17.16-.28ZM47.73,35.07c0-.46-.22-.68-.67-.66-.82.05-1.91.93-3.26,2.63-1.35,1.7-2.03,3.05-2.03,4.05,0,.61.26.91.79.88.54-.02,1.45-.88,2.73-2.57,1.62-2.14,2.43-3.59,2.43-4.33Z"/>
      <path class="cls-1" d="M60.03,36.42c0,.21-.66,1.15-1.98,2.82-1.1,1.38-1.96,2.1-2.6,2.15-.4.03-.74-.11-1.02-.41s-.42-.68-.42-1.14c0-.36.18-.86.53-1.53-.11.16-.16.23-.27.39-.84,1.14-1.46,1.9-1.85,2.29-.43.43-.83.67-1.22.7-.4.03-.74-.11-1.01-.4s-.41-.67-.41-1.13c0-.53.21-1.15.62-1.86,1-1.74,1.49-2.61,2.49-4.35.31.04.55.06.72.04.17-.01.48-.07.93-.16-1.3,2.24-1.95,3.36-3.25,5.59-.33.57-.49,1.06-.49,1.48s.17.6.52.58c.92-.06,2.4-1.88,4.43-5.47.54-.95.8-1.42,1.34-2.37.28.04.52.06.71.04.23-.02.55-.08.97-.17-.88,1.5-1.31,2.25-2.19,3.74-1.04,1.78-1.56,2.9-1.56,3.39,0,.39.19.57.56.55.73-.06,1.92-1.3,3.56-3.73.17-.25.25-.37.42-.62.1-.13.15-.19.25-.32.04-.09.09-.14.14-.15.05,0,.08.02.08.08Z"/>
      <path class="cls-1" d="M64.7,36.03s-.05.11-.14.23c-.24.34-.35.51-.59.86-1.72,2.53-3.03,3.83-3.93,3.9-.43.04-.79-.09-1.08-.37-.29-.28-.43-.65-.43-1.11,0-.53.31-1.36.94-2.48.85-1.52,1.28-2.28,2.13-3.8.28.04.51.05.67.04.25-.02.59-.08,1.04-.18-1.24,2.15-1.86,3.22-3.1,5.36-.45.77-.67,1.36-.67,1.76s.21.6.64.56c.81-.07,2.24-1.63,4.29-4.7.04-.09.09-.14.14-.15.05,0,.09.03.08.07ZM64.5,30.4c0,.32-.13.63-.4.93-.27.3-.56.47-.88.49-.41.03-.62-.15-.62-.56,0-.3.14-.6.42-.9.28-.3.58-.47.89-.49.39-.03.59.15.59.54Z"/>
      <path class="cls-1" d="M72.52,35.35c0,.07-.28.43-.82,1.07-.69.82-1.35,1.27-1.96,1.32-.69.06-1.04-.31-1.04-1.11,0-.25.05-.58.16-.99-.57.55-1.04,1.09-1.4,1.61-.36.52-.98,1.58-1.87,3.17-.48,0-.77.01-.85.02-.04,0-.31.05-.83.13.9-1.53,1.35-2.3,2.24-3.83,1.12-1.92,1.68-3.1,1.68-3.54,0-.25-.11-.37-.32-.35-.51.04-1.44,1.11-2.78,3.19-.08.13-.16.21-.22.21-.03,0-.06-.04-.05-.08,0-.04.03-.08.05-.11.1-.15.15-.22.25-.36,1.41-1.99,2.36-3.01,2.86-3.06.73-.06,1.1.37,1.1,1.31,0,.7-.37,1.66-1.12,2.89.47-.59,1.1-1.09,1.35-1.46.41-.58.78-1.56,1.29-2.15.51-.59.98-.91,1.39-.94.28-.02.42.09.42.33,0,.44-.63,1.12-1.9,2.04-.2.15-.5.36-.9.64-.07.06-.1.09-.16.15-.13.43-.19.78-.19,1.06,0,.77.29,1.12.86,1.07.71-.06,1.49-.72,2.33-1.97.18-.22.3-.33.34-.33.05,0,.08.02.08.07Z"/>
      <path class="cls-1" d="M84.35,34.36s-.08.15-.25.37c-.24.31-.35.47-.59.78-1.89,2.48-3.51,3.78-4.86,3.9-.64.05-1.17-.13-1.61-.55-.43-.42-.65-.98-.65-1.67,0-1.64,1.14-3.19,3.43-4.63,1.2-.76,2.18-1.17,2.94-1.23.33-.03.61.05.84.23.23.18.35.41.35.69,0,.66-.43,1.25-1.29,1.78-.86.53-3.24.85-4.29,1.65-.6.45-.93,1.8-.93,2.43,0,.78.42,1.14,1.27,1.07,1.44-.12,3.21-1.68,5.3-4.66.11-.15.21-.24.27-.24.03,0,.05.03.05.08ZM83.19,31.91c0-.29-.16-.42-.48-.4-.48.04-1.12.43-1.91,1.16-.79.74-1.56,1.67-2.32,2.8,1.31-.45,2.42-1.02,3.34-1.71.91-.69,1.37-1.31,1.37-1.85Z"/>
      <path class="cls-1" d="M88.96,28.69c0,.36-.57,1.13-1.71,2.29-.05.29-.08.53-.08.74,0,.53.24,1.35.72,2.46.25.56.37,1.03.37,1.42,0,.82-.4,1.56-1.2,2.22-.8.66-1.74,1.03-2.84,1.12-.62.05-1.11-.09-1.48-.41s-.55-.78-.55-1.37c0-.68.24-1.37.73-2.06.49-.69.99-1.05,1.51-1.09.09,0,.17,0,.25.04.44-.57.66-.86,1.09-1.43.33-.42.77-.99,1.31-1.73.15-.65.39-1.21.71-1.69.32-.48.63-.73.94-.75.15-.01.22.06.22.22ZM87.06,34.22c0-.27,0-.54-.03-.81-.02-.27-.03-.65-.03-1.15,0-.41.02-.75.05-1.03-.51.69-1.25,1.65-2.21,2.9.17.13.26.3.26.51,0,.54-.44.94-1.33,1.2-.36.11-.66.33-.92.66-.26.33-.39.66-.39,1,0,.36.13.66.4.88.26.22.59.32.98.29.77-.06,1.49-.56,2.18-1.5.69-.94,1.03-1.92,1.03-2.94Z"/>
      <path class="cls-1" d="M99.42,33.37c0,.19-.68,1.11-2,2.75-1.08,1.34-1.93,2.05-2.55,2.09-.42.02-.76-.11-1.03-.41-.26-.3-.4-.68-.4-1.16s.15-1.03.44-1.63c-.91,1.33-1.61,2.24-2.09,2.72-.48.48-.95.73-1.41.76-.48.03-.89-.15-1.22-.54s-.49-.9-.49-1.53c0-1.75,1.23-3.39,3.71-4.9,1.08-.67,1.96-1.03,2.62-1.06.56-.03.85.22.85.77,0,.16-.04.36-.11.62.28-.55.42-.82.7-1.37.27.05.51.07.72.06.25-.01.56-.06.96-.15-.97,1.65-1.45,2.48-2.42,4.14-.84,1.45-1.26,2.4-1.26,2.85s.18.63.53.61c.37-.02.95-.47,1.75-1.35.8-.88,1.62-1.95,2.45-3.21.05-.09.1-.14.15-.14.05,0,.08.02.08.08ZM95.65,31.3c0-.45-.21-.66-.62-.63-.84.05-1.94.94-3.3,2.67-1.36,1.73-2.04,3.11-2.04,4.12,0,.59.26.87.79.83.63-.04,1.72-1.16,3.27-3.34,1.27-1.79,1.9-3,1.9-3.64Z"/>
      <path class="cls-1" d="M111.28,33.06s-.08.15-.25.36c-.24.3-.35.44-.59.74-1.89,2.34-3.51,3.54-4.86,3.58-.64.02-1.17-.2-1.61-.64-.43-.45-.65-1.02-.65-1.71,0-1.64,1.14-3.13,3.43-4.43,1.2-.68,2.18-1.02,2.94-1.03.33,0,.61.09.84.29.23.19.35.43.35.72,0,.66-.43,1.22-1.29,1.69-.86.47-3.25.65-4.29,1.38-.58.41-.93,1.75-.93,2.38,0,.78.42,1.16,1.27,1.14,1.44-.04,3.21-1.48,5.3-4.3.11-.15.21-.23.27-.22.03,0,.05.04.05.08ZM110.13,30.54c0-.29-.16-.44-.48-.43-.48,0-1.12.35-1.91,1.03-.79.68-1.56,1.57-2.32,2.66,1.31-.37,2.42-.87,3.34-1.5.91-.63,1.37-1.21,1.37-1.76Z"/>
      <path class="cls-1" d="M115.9,27.77c0,.36-.57,1.07-1.71,2.15-.05.28-.08.53-.08.74,0,.53.24,1.37.72,2.52.25.58.37,1.06.37,1.45,0,.82-.4,1.52-1.2,2.12-.8.6-1.74.89-2.84.9-.62,0-1.11-.17-1.48-.52-.37-.35-.55-.82-.55-1.41,0-.68.24-1.35.73-2,.49-.65.99-.98,1.51-.98.09,0,.17.02.25.05.44-.54.66-.81,1.09-1.34.33-.39.77-.93,1.31-1.62.15-.64.39-1.18.71-1.63.32-.45.63-.68.94-.67.15,0,.22.08.22.24ZM114,33.14c0-.27,0-.54-.03-.81-.02-.27-.03-.65-.03-1.16,0-.41.02-.75.05-1.02-.51.64-1.25,1.55-2.21,2.73.17.15.26.32.26.53,0,.54-.44.9-1.33,1.1-.36.08-.66.28-.92.59-.26.31-.39.63-.39.97,0,.36.13.67.4.91.26.24.59.36.98.36.77,0,1.49-.45,2.18-1.34.69-.89,1.03-1.84,1.03-2.86Z"/>
      <path class="cls-1" d="M121.78,30.12c-.04.08-.07.12-.11.2-.72-.03-1.07-.05-1.79-.07-1.22,2.04-1.83,3.06-3.05,5.12-.37.62-.56,1.12-.56,1.49,0,.41.21.62.64.63.83.02,2.23-1.4,4.2-4.21.06-.09.12-.13.16-.13.05,0,.09.04.08.09,0,.02-.05.1-.14.21-.24.31-.35.47-.59.78-1.72,2.31-3.01,3.48-3.87,3.46-.43,0-.79-.17-1.08-.48-.29-.31-.43-.7-.43-1.17,0-.55.24-1.23.72-2.04.92-1.53,1.38-2.29,2.3-3.8-.56-.02-.84-.02-1.39-.03.05-.08.08-.12.14-.2.55.01.82.02,1.37.03.64-1.04.96-1.56,1.6-2.6.27.08.53.13.78.14.25.01.52-.01.79-.08-.63,1.03-.94,1.55-1.57,2.59.72.03,1.07.04,1.79.07Z"/>
      <path class="cls-1" d="M128.25,33.68s-.08.14-.25.33c-.24.28-.35.41-.59.69-1.89,2.18-3.51,3.26-4.86,3.19-.64-.03-1.17-.29-1.61-.76-.43-.48-.65-1.06-.65-1.76,0-1.64,1.14-3.05,3.43-4.17,1.2-.59,2.18-.85,2.94-.8.33.02.61.14.84.36.23.21.35.46.35.75,0,.66-.43,1.18-1.29,1.58-.86.4-3.28.4-4.29,1.03-.56.35-.93,1.68-.93,2.31,0,.78.42,1.19,1.27,1.24,1.44.07,3.21-1.23,5.3-3.87.11-.14.21-.21.27-.2.03,0,.05.04.05.09ZM127.09,31.05c0-.29-.16-.45-.48-.47-.48-.04-1.12.26-1.91.88-.79.62-1.56,1.45-2.32,2.48,1.31-.27,2.42-.68,3.34-1.24.91-.55,1.37-1.1,1.37-1.65Z"/>
      <path class="cls-1" d="M135.42,24.73c-3.83,5.88-6.06,9.46-6.69,10.53-.63,1.07-.95,1.79-.95,2.15,0,.41.17.63.52.66.77.06,2.17-1.27,4.22-3.94.04-.09.11-.13.16-.12.03,0,.05.04.05.09,0,.05-.05.12-.14.2-.24.3-.35.45-.59.74-1.72,2.2-3,3.28-3.82,3.22-.39-.03-.71-.21-.96-.52s-.38-.7-.38-1.16c0-.5.12-.98.35-1.43.23-.45,1.02-1.75,2.37-3.87,1.65-2.59,3.04-4.82,4.17-6.71.27.1.51.17.72.2.35.04.67.03.96-.04Z"/>
      <path class="cls-1" d="M142.34,35.47c0,.19-.68.96-2,2.32-1.08,1.11-1.93,1.64-2.55,1.56-.42-.06-.76-.27-1.03-.62s-.4-.76-.4-1.24.15-1.01.44-1.54c-.91,1.15-1.61,1.93-2.09,2.31-.48.39-.95.56-1.41.5-.48-.05-.89-.31-1.22-.76s-.49-.99-.49-1.62c0-1.75,1.23-3.19,3.71-4.22,1.08-.46,1.96-.64,2.63-.55.56.08.85.4.85.95,0,.16-.04.35-.11.6.28-.49.42-.73.7-1.22.27.11.51.18.72.21.25.04.56.06.96.06-.97,1.44-1.45,2.17-2.42,3.62-.84,1.28-1.26,2.15-1.26,2.59s.18.67.53.72c.37.05.95-.28,1.75-.99.8-.71,1.62-1.6,2.45-2.68.05-.08.1-.12.15-.11.05,0,.08.04.08.1ZM138.58,32.59c0-.45-.21-.7-.62-.76-.84-.12-1.94.55-3.3,2.02-1.36,1.47-2.04,2.73-2.04,3.74,0,.59.26.92.79.98.63.07,1.72-.85,3.27-2.72,1.27-1.54,1.9-2.62,1.9-3.26Z"/>
    </g>
  </g>
</svg>