<?xml version="1.0" encoding="UTF-8"?>
<svg id="Capa_2" data-name="Capa 2" xmlns="http://www.w3.org/2000/svg" viewBox="0 0 416.11 140.66">
  <defs>
    <style>
      .cls-1 {
        fill: #fff;
      }

      .cls-2 {
        stroke: #fff;
        stroke-miterlimit: 10;
        stroke-width: .5px;
      }

      .cls-2, .cls-3 {
        fill: none;
      }
    </style>
  </defs>
  <g id="Capa_1-2" data-name="Capa 1">
    <g>
      <path class="cls-3" d="M87.06,107.38v6.31c0,.96-.03,1.89-.08,2.8,2.1.55,4.08,1.07,5.93,1.56v-13.87c-1.85,1.14-3.8,2.21-5.85,3.2Z"/>
      <path class="cls-3" d="M122.12,67.27c.55-.64.95-1.49,1.2-2.52-.4.85-.8,1.69-1.2,2.52Z"/>
      <path class="cls-3" d="M167.31,36.16l-2.59,36.98c1.31-.24,2.55-.36,3.69-.36.76,0,1.48.09,2.17.25l-2.44-36.86h-.84Z"/>
      <path class="cls-3" d="M314.86,121.22c2.81,0,4.45-1.28,5.1-3.49-2.69-2.95-4.06-6.65-4.06-11.03,0-1.17.09-2.34.28-3.49-2.56,3.42-4.95,6.35-7.17,8.85v3.1c0,3.76,2.09,6.06,5.85,6.06Z"/>
      <path class="cls-3" d="M59.26,121.22c1.91,0,3.27-.59,4.16-1.67-1.98-.62-4.03-1.26-6.17-1.94-1.07.21-2.14.4-3.22.59.87,1.91,2.64,3.02,5.23,3.02Z"/>
      <path class="cls-3" d="M218.52,94.98v20.39c.94-.87,1.94-1.86,3.01-2.97,1.65-1.71,3.31-3.58,4.99-5.57l-2.61-20.77-5.39,8.91Z"/>
      <path class="cls-3" d="M258.38,106.94c-.99,1.24-1.94,2.39-2.87,3.48v1.72l2.87-5.2Z"/>
      <path class="cls-3" d="M141.13,98.73c-3.75,5.71-5.65,10.54-5.65,14.33,0,3.17,1.13,5.2,3.45,6.19.52-.41,1.03-.84,1.52-1.27l.09-.07c.7-.39.95-.48,1.14-.49l1.88-19.19c-.8.17-1.61.34-2.44.5Z"/>
      <path class="cls-3" d="M217.68,43.26c.47,7.79.7,16.62.79,32.64l1.33-2.53.38.09c.77.18,1.5.31,2.19.41l-3.85-30.62h-.84Z"/>
      <path class="cls-3" d="M143.7,45.65v19.56c0,13.79-5.64,21.74-20.69,21.74h-8.78v36.37c3.59.66,7.08,1.02,10.41,1.02,4.15,0,8.08-1.11,11.69-3.29-1.56-.75-2.98-1.8-4.23-3.13-2.8-2.97-4.22-6.75-4.22-11.21,0-9.31,5.83-17.71,17.32-25.01l4.11-41.99c-1.87,2.07-3.74,4.05-5.6,5.96Z"/>
      <path class="cls-3" d="M39.61,60.61c-2.1-3.61-3.61-7.23-4.54-11.72-3.52,7.93-5.29,16.02-5.29,24.2,0,7.55,2.44,13.55,7.27,17.85,4.84,4.31,11.59,6.49,20.08,6.49,2.5,0,5-.23,7.51-.65-.3-7.69-1.87-10.14-5.58-14.22-6.69-7.32-14.63-13.59-19.44-21.95Z"/>
      <path class="cls-3" d="M85.18,41.8h-19.85v-16.09c0-3.97-1.88-6.06-5.23-6.06-3.55,0-5.22,2.3-5.22,5.43v12.12c0,7.73.63,9.82,4.39,14,.35.4.71.79,1.07,1.18.76-.21,1.56-.33,2.38-.33,3.81,0,5.83,1.99,5.83,5.74,0,.79-.12,1.55-.35,2.28,4.91,4.46,9.71,8.54,12.94,12.77,3.83-2,7.76-4.92,11.78-8.75V3.41c-4.98.09-9.91,1.03-14.78,2.8,5,4.92,7.04,12.53,7.04,22v13.58Z"/>
      <path class="cls-3" d="M118.61,19.85h-1.38c.12,1.02.2,2.06.2,3.14,0,5.18-1.08,10.46-3.21,15.83v20.76c3.78-6.17,6.92-11.14,9.41-14.88v-19.41c0-3.76-1.67-5.43-5.02-5.43Z"/>
      <path class="cls-3" d="M82.6,74.99c2.15,3.45,3.5,7.19,4.1,12.63,1.98-1.27,4.05-2.68,6.21-4.24v-15.64c-3.47,3.05-6.91,5.47-10.31,7.25Z"/>
      <path class="cls-3" d="M162.2,109.51c.49-.47.99-.95,1.49-1.46h-1.39l-.1,1.46Z"/>
      <path class="cls-3" d="M171.6,88.3c-.69.54-1.45,1.06-2.28,1.57h2.39l-.1-1.57Z"/>
      <path class="cls-3" d="M114.23,29.39c.38-2.1.58-4.18.58-6.22,0-1.15-.1-2.24-.26-3.31h-.32v9.53Z"/>
      <path class="cls-3" d="M87.06,99.29c1.79-1.91,3.74-4.21,5.85-6.9v-5.65c-2.01,1.38-4,2.65-5.98,3.82.08,1.41.12,2.9.12,4.53v4.2Z"/>
      <path class="cls-3" d="M64.69,110.57v-10.67c0-.23,0-.44,0-.66-2.76.49-5.48.74-8.16.74-1.06,0-2.1-.04-3.12-.11v8.04c3.57.78,7.33,1.67,11.29,2.66Z"/>
      <polygon class="cls-3" points="260.21 72.77 261.78 72.77 261.78 70.13 260.21 72.77"/>
      <path class="cls-3" d="M170.58,77.14c0-1.56-.77-2.25-2.51-2.25-1.04,0-2.22.28-3.53.82l-.76,10.86c4.51-3.34,6.8-6.5,6.8-9.42Z"/>
      <path class="cls-3" d="M348.51,88.78v-10.81c-1.28.86-2.63,1.89-4.07,3.11-.93.79-1.86,1.64-2.78,2.52.51,2.37.82,5.09.94,8.34,2.09-.97,4.07-2.03,5.91-3.16Z"/>
      <path class="cls-3" d="M143.92,94.65c-.39.52-.79,1.05-1.18,1.59.36-.1.7-.21,1.06-.31l.13-1.28Z"/>
      <path class="cls-3" d="M33.34,110.64c-8.95-2.28-15.6-3.44-19.88-3.44-7.14,0-10.75,1.51-10.75,4.48s4.49,6.2,25.88,6.2c1.67,0,3.31-.03,4.94-.07-.12-1.38-.18-2.82-.18-4.32v-2.85Z"/>
      <path class="cls-3" d="M191.47,89.61l2.18,22.3c2.02-2.24,4.25-4.94,6.68-8.1v-23.34c-2.72,2.31-5.68,5.36-8.86,9.14Z"/>
      <path class="cls-3" d="M149.71,35.47l1.68-17.16c-1.28,1.32-2.61,2.78-3.99,4.41-1.2,1.41-2.44,3-3.7,4.75v14.51c2.03-2.12,4.04-4.28,6.02-6.51Z"/>
      <path class="cls-3" d="M342.66,95.56v18.14c0,.7-.02,1.37-.04,2.04,1.9-1.26,3.86-2.79,5.89-4.62v-17.35c-1.78.61-3.73,1.2-5.85,1.79Z"/>
      <path class="cls-3" d="M258.94,75.06l-3.43,5.86v26.45c1.95-2.41,4.05-5.17,6.27-8.26v-24.04h-2.84Z"/>
      <path class="cls-3" d="M295.49,61.07c-2.75,4.43-5.69,9.18-8.83,14.27-.17.28-1.36,2.26-3.56,5.93v1.7c6.05-6.83,11.12-10.2,15.34-10.2,2.61,0,4.86,1.13,6.7,3.36,1.82,2.2,2.74,4.91,2.74,8.05,0,3.43-1.76,7.98-5.36,13.84h6.5v10.93c2.4-2.89,5.02-6.31,7.88-10.31l1.48-2.05c.48-.95,1.04-1.9,1.66-2.83-.59-5.41-2.19-7.71-5.37-11.21-6.56-7.18-14.33-13.36-19.16-21.49Z"/>
      <path class="cls-3" d="M369.83,75.03v10.94c3.74-4.71,6.87-8.13,9.41-10.31v-.63h-9.41Z"/>
      <path class="cls-3" d="M374.93,98.01c1.63-2.64,3.06-5.05,4.31-7.23v-12.95c-2.25,2.09-5.29,5.6-9.41,11.3v17.14l5.1-8.27Z"/>
      <path class="cls-1" d="M33.34,113.49c0,1.5.06,2.94.18,4.32,6.74-.19,13.05-.76,18.82-1.71-7.18-2.24-13.52-4.07-18.99-5.46v2.85Z"/>
      <path class="cls-1" d="M68.55,78.75c-4.46,0-8.29-1.43-11.38-4.26-3.1-2.84-4.67-6.37-4.67-10.51,0-3.2,1.01-6.01,3-8.36,1.41-1.66,3.03-2.74,4.83-3.24-.36-.39-.72-.78-1.07-1.18-3.76-4.18-4.39-6.27-4.39-14v-12.12c0-3.14,1.67-5.43,5.22-5.43,3.34,0,5.23,2.09,5.23,6.06v16.09h19.85v-13.58c0-9.47-2.05-17.08-7.04-22-9.48,3.45-18.74,10.05-27.64,19.78-6.81,7.45-11.96,15.1-15.41,22.89.93,4.49,2.44,8.1,4.54,11.72,4.81,8.36,12.75,14.63,19.44,21.95,3.72,4.09,5.28,6.54,5.58,14.22,4.85-.82,9.7-2.41,14.48-4.79,2.34-1.17,4.87-2.62,7.58-4.36-.6-5.45-1.95-9.18-4.1-12.63-4.76,2.5-9.45,3.76-14.04,3.76Z"/>
      <path class="cls-1" d="M87.06,107.38c-4.35,2.11-9.13,3.89-14.35,5.33,5.26,1.4,10.01,2.66,14.27,3.78.05-.91.08-1.84.08-2.8v-6.31Z"/>
      <path class="cls-1" d="M45.14,21.86c9.46-8.96,19.36-15.06,29.59-18.3-3.79-2.31-8.73-3.56-15.05-3.56-16.72,0-25.71,8.78-25.71,24.45v10.08c3.09-4.31,6.8-8.54,11.17-12.68Z"/>
      <path class="cls-1" d="M53.41,99.87c-3.49-.23-6.74-.85-9.72-1.85h-10.35v6.29c5.8.73,12.5,1.94,20.06,3.6v-8.04Z"/>
      <path class="cls-1" d="M64.69,110.57c1.42.36,2.86.72,4.32,1.1,6.15-2.43,11.7-6.06,16.49-10.79.5-.5,1.02-1.03,1.55-1.59v-4.2c0-1.63-.04-3.13-.12-4.53-7.65,4.52-15.08,7.42-22.25,8.68,0,.22,0,.43,0,.66v10.67Z"/>
      <path class="cls-1" d="M59.26,121.22c-2.59,0-4.36-1.11-5.23-3.02-6.59,1.14-13.36,1.84-20.22,2.1,1.95,13.47,10.21,20.35,26.29,20.35,13.88,0,21.95-5.13,25.23-14.86-5.73-1.4-13.05-3.49-21.91-6.24-.89,1.07-2.25,1.67-4.16,1.67Z"/>
      <path class="cls-1" d="M68.19,60.08c-.35,1.12-.97,2.15-1.85,3.09-1.47,1.56-3.15,2.35-5,2.35-1.6,0-2.8-.41-3.56-1.2-.71-.74-1.04-1.81-.98-3.19.05-1.4-.11-1.84-.17-1.97-.84.09-1.32,1.84-1.32,4.82,0,3.44,1.32,6.35,3.91,8.65,2.61,2.31,5.93,3.48,9.85,3.48s7.92-1.1,12.06-3.27c-3.23-4.23-8.03-8.31-12.94-12.77Z"/>
      <path class="cls-1" d="M101.96,79.86c-3.05,2.53-6.06,4.82-9.05,6.88v5.65c2.76-3.52,5.78-7.7,9.05-12.52Z"/>
      <path class="cls-1" d="M117.24,19.85h1.38c3.34,0,5.02,1.67,5.02,5.43v19.41c.76-1.14,1.46-2.18,2.09-3.09,3.89-5.61,8.62-11.35,14.06-17.07,1.33-1.39,2.61-2.69,3.86-3.91-.58-12.48-6.39-19.79-20.63-19.79h-30.1v.03c7.27.14,13.2,2.12,17.61,5.94,3.85,3.34,6.09,7.73,6.72,13.05Z"/>
      <path class="cls-1" d="M98.9,57.77c8.55-9.88,13.69-19.4,15.33-28.39v-9.53h.32c-.63-4.27-2.51-7.94-5.64-10.89-3.92-3.7-9.03-5.58-15.17-5.58-.28,0-.55.02-.83.03v60.69c1.98-1.89,3.98-3.99,5.99-6.32Z"/>
      <path class="cls-1" d="M92.91,127.43v12.18h21.32v-10.43c-.34,0-.67.01-1.02.01-6.96,0-13.77-.6-20.3-1.77Z"/>
      <path class="cls-1" d="M100.81,59.76c-2.65,3.02-5.28,5.67-7.91,7.98v15.64c4.09-2.96,8.51-6.44,13.24-10.44,2.95-4.94,5.64-9.4,8.07-13.36v-20.76c-2.74,6.87-7.22,13.87-13.41,20.94Z"/>
      <path class="cls-1" d="M123,86.94c15.05,0,20.69-7.94,20.69-21.74v-19.56c-6.62,6.78-13.14,12.55-19.48,17.21-.3.65-.59,1.27-.89,1.91-.25,1.03-.65,1.87-1.2,2.52-6.51,13.4-13.27,23.48-20.15,29.99-2.68,2.54-5.71,4.84-9.07,6.91v13.87c9.79,2.56,16.13,4.17,18.9,4.79.81.18,1.61.33,2.41.48v-36.37h8.78Z"/>
      <path class="cls-1" d="M143.7,41.98v-14.51c-5.3,7.35-11.1,17.63-17.28,30.68,5.9-4.91,11.67-10.32,17.28-16.17Z"/>
      <path class="cls-1" d="M162.2,87.68c.56-.38,1.08-.75,1.58-1.12l.76-10.86c-2.32.96-5.04,2.75-8.14,5.38-4.21,3.58-8.4,8.14-12.49,13.56l-.13,1.28c7.13-2.05,13.32-4.81,18.41-8.25Z"/>
      <path class="cls-1" d="M191.18,118.07c-3.12,2.88-6.21,4.34-9.19,4.34-3.18,0-5.89-1.38-8.04-4.1-.1-.12-.18-.26-.28-.39l1.58,21.69h21.11l-2.39-24.44c-1.03,1.15-1.96,2.13-2.79,2.89Z"/>
      <path class="cls-1" d="M152.74,31.99c8.82-10.31,13.29-17.27,13.29-20.69,0-.97-.47-1.39-1.56-1.39-3.29,0-7.67,2.82-13.07,8.39l-1.68,17.16c1.02-1.14,2.03-2.3,3.03-3.47Z"/>
      <path class="cls-1" d="M166.64,108.05h4.11c0-1.77.22-3.55.64-5.29-1.62,1.91-3.2,3.66-4.76,5.29Z"/>
      <path class="cls-1" d="M190.84,90.35c-8.45,10.17-12.73,18.48-12.73,24.69,0,3.47,1.42,5.09,4.48,5.09,2.44,0,6.15-2.76,11.06-8.21l-2.18-22.3c-.21.25-.41.48-.63.74Z"/>
      <path class="cls-1" d="M141.2,122.34l-1.69,17.27h20.69l1.79-27.02c-7.22,6.51-13.73,9.82-19.44,9.82-.45,0-.91-.03-1.35-.06Z"/>
      <path class="cls-1" d="M168.48,11.31c0,4.23-4.94,12.01-15.12,23.79-1.36,1.57-2.72,3.1-4.07,4.59l-4.11,41.99c1.42-.9,2.92-1.8,4.51-2.67,5.79-3.16,10.82-5.12,15.02-5.88l2.59-36.98h.84l2.44,36.86c1.28.3,2.43.87,3.44,1.72,1.57,1.33,2.37,2.97,2.37,4.89,0,3.26-1.61,6.16-4.79,8.67l.1,1.57h-2.39c-.41.25-.82.49-1.26.73-5.02,2.7-13.25,5.26-24.48,7.63l-1.88,19.19s.03,0,.04,0l.19.04c.43.17.7.42.8.73l.03.16c0,.46-.24.97-.73,1.57.32.02.64.03.97.03,5.55,0,11.99-3.52,19.21-10.44l.1-1.46h1.39c3.41-3.43,6.98-7.59,10.72-12.49,3.2-5.29,8.64-10.31,16.18-14.92L182.78.84h-29.68l-1.23,12.59c5.03-3.82,9.2-5.71,12.59-5.71s4.02,1.95,4.02,3.59Z"/>
      <path class="cls-1" d="M216.87,78.42c0,.18,0,.38-.02.58l1.63-3.09c-.09-16.02-.32-24.86-.79-32.64h.84l3.85,30.62c.81.11,1.56.18,2.25.18,1.51,0,3.51-.2,5.94-.59l1.07-.17-7.72,12.78,2.61,20.77c3.42-4.06,6.89-8.66,10.36-13.78.17-.28.34-.51.53-.69l10.31-17.31h-8.82l1.53-2.29h8.58l6.51-10.79V.84h-18.39v30.93c0,32.4.42,45.14.84,58.31h-.84L228.55.84h-28.21v74.68c4.18-1.81,7.78-2.75,10.71-2.75,3.81,0,5.83,1.96,5.83,5.66Z"/>
      <path class="cls-1" d="M211.21,75.06c-3.02,0-6.66,1.82-10.88,5.41v23.34c.78-1.01,1.58-2.06,2.4-3.17,7.86-10.63,11.85-17.99,11.85-21.87,0-2.53-1.07-3.71-3.37-3.71Z"/>
      <path class="cls-1" d="M218.52,94.98l-2.67,4.41c-5.2,8.7-7.83,14.48-7.83,17.19,0,3.17,1.63,3.54,2.86,3.54,1.68,0,4.25-1.6,7.64-4.75v-20.39Z"/>
      <path class="cls-1" d="M239.92,107.55c-2.29,3.86-3.46,6.95-3.46,9.2s1.13,3.37,3.54,3.37c3.44,0,8.63-4.28,15.5-12.76v-26.45l-15.59,26.64Z"/>
      <path class="cls-1" d="M249.98,122.14l5.53-10v-1.72c-6.89,8.05-12.31,11.99-16.44,11.99-2.83,0-5.22-1.04-7.12-3.08-1.89-2.03-2.84-4.6-2.84-7.64,0-1.83.42-3.91,1.26-6.21-1.07,1.3-2.25,2.71-3.49,4.18l3.77,29.95h24.87v-18.13c-1.18.04-2.68.2-4.51.49l-1.01.17Z"/>
      <path class="cls-1" d="M203.35,119.27c-1.73-2.06-2.61-4.67-2.61-7.76,0-1.97.37-4.05,1.09-6.22-.51.7-1.01,1.36-1.5,2.01v32.31h18.18v-21.23c-3.23,2.7-5.99,4.03-8.33,4.03-2.78,0-5.08-1.06-6.84-3.14Z"/>
      <path class="cls-1" d="M261.78,139.61h21.32v-53.08c-5.37,6.51-12.53,17.75-21.32,33.45v19.63Z"/>
      <path class="cls-1" d="M269.09,56.11l1.18-.32-8.5,14.34v2.64h9.65l-1.22,2.29h-8.43v24.04c1.31-1.82,2.67-3.75,4.07-5.81,1.41-2.59,3.13-5.71,5.17-9.35,1.5-2.46,5.56-9.32,12.08-20.41V.84h-21.32v55.75c2.48.36,4.81.19,7.31-.48Z"/>
      <path class="cls-1" d="M279.43,87.37c1.26-1.61,2.48-3.07,3.67-4.41v-1.7c-1.01,1.68-2.23,3.71-3.67,6.1Z"/>
      <path class="cls-1" d="M288.95,98.02v.71c.14-.24.27-.47.41-.71h-.41Z"/>
      <path class="cls-1" d="M302.06,31.96c1.68.34,3.12.51,4.29.51,1.42,0,2.79-.13,4.13-.35v-7.03c0-3.14,1.67-5.43,5.22-5.43,3.34,0,5.23,2.09,5.23,6.06v16.09h19.85v-13.58c0-17.14-6.69-28.21-25.5-28.21-16.72,0-25.71,8.78-25.71,24.45v11.7c0,5.69.46,10.15,1.38,13.99l10.76-18.25.35.07Z"/>
      <path class="cls-1" d="M341.66,83.6c-3.68,3.51-7.33,7.73-10.89,12.63,4.29-1.17,8.24-2.61,11.83-4.29-.12-3.25-.43-5.97-.94-8.34Z"/>
      <path class="cls-1" d="M320.12,117.91c-.06-.06-.1-.12-.16-.18-.65,2.21-2.3,3.49-5.1,3.49-3.76,0-5.85-2.3-5.85-6.06v-3.1c-6.17,6.94-11.05,10.35-14.77,10.35-1.75,0-3.32-.39-4.69-1.16,2.19,12.85,10.45,19.41,26.15,19.41,17.05,0,25.34-7.72,26.74-22.24-4.26,2.64-8.22,3.99-11.85,3.99-4.14,0-7.66-1.51-10.47-4.5Z"/>
      <path class="cls-1" d="M342.66,95.56c-3.92,1.09-8.42,2.15-13.5,3.16-3.75,5.71-5.65,10.54-5.65,14.33,0,4.64,2.45,6.89,7.5,6.89,3.52,0,7.4-1.42,11.6-4.21.03-.67.04-1.35.04-2.04v-18.14Z"/>
      <path class="cls-1" d="M314.65,82.56c3.18,3.5,4.79,5.8,5.37,11.21,3.55-5.3,9.49-10.26,17.7-14.75.7-.38,1.38-.73,2.06-1.08-.82-1.77-1.81-3.38-2.99-5-5.23-6.9-14.63-13.38-21.95-21.74-3.76-4.18-4.39-6.27-4.39-14v-.29c-4,6.44-9.01,14.51-14.98,24.15,4.83,8.13,12.6,14.31,19.16,21.49Z"/>
      <path class="cls-1" d="M302.52,98.02c-.7,1.13-1.45,2.31-2.29,3.54-6.89,10.19-8.34,13.98-8.34,15.36,0,2.18,1.02,3.2,3.2,3.2,3.08,0,7.75-3.76,13.92-11.17v-10.93h-6.5Z"/>
      <path class="cls-1" d="M361.29,121.63l-.97.07,9.51-15.42v-17.14c-.93,1.29-1.91,2.69-2.95,4.21-.11.18-.23.34-.35.48-.23.37-.67.96-1.31,1.77l-3.7,4.64c-4.56,5.63-8.9,10.19-13.01,13.68v25.68h21.32v-18.12c-1.83-.13-2.95-.2-3.33-.2-.12,0-.97.04-5.21.34Z"/>
      <path class="cls-1" d="M362.05,74.73c1.57,1.33,2.37,2.97,2.37,4.89,0,4.3-2.81,7.99-8.34,10.97-2.01,1.08-4.54,2.14-7.57,3.17v17.35c4.78-4.29,9.91-10.11,15.4-17.48.27-.37.54-.67.82-.92l1.5-2.08c1.26-1.68,2.46-3.23,3.6-4.67v-10.94h9.41v.63c2.24-1.92,4.04-2.89,5.39-2.89,4.9,0,7.39,3.15,7.39,9.35,0,3.57-1.52,8.1-4.53,13.49,1.75-1.8,3.44-3.37,5.08-4.69,2.14-4.99,4.83-9.23,7.99-12.64V.84h-21.32v55.18h-9.41V.84h-21.32v73.39c2.97-.96,5.63-1.46,7.94-1.46,2.17,0,4.06.66,5.61,1.97Z"/>
      <path class="cls-1" d="M350.24,87.68c5.56-3.75,8.37-7.3,8.37-10.54,0-1.56-.77-2.25-2.51-2.25-2.04,0-4.59,1.05-7.59,3.08v10.81c.59-.36,1.17-.73,1.73-1.1Z"/>
      <path class="cls-1" d="M390.84,98.96c0-1.28.21-2.83.64-4.63-3.02,2.75-5.54,5.5-7.51,8.19-1.14,1.56-2.72,3.97-4.73,7.21v29.88h21.32v-32.96c-.9.24-1.8.37-2.67.37-4.67,0-7.04-2.71-7.04-8.06Z"/>
      <path class="cls-1" d="M394.26,92.03c-.76,2.51-1.14,4.61-1.14,6.24,0,4.52,1.61,6.72,4.92,6.72.82,0,1.65-.13,2.5-.4v-16.65c-1.26.8-3.06,1.92-5.43,3.37l-.86.72Z"/>
      <path class="cls-1" d="M385.42,76.96c0-1.68-.75-1.91-1.48-1.91-.94,0-2.42.66-4.71,2.78v12.95c4.11-7.15,6.19-11.8,6.19-13.82Z"/>
      <path class="cls-2" d="M414.84,91.98c-.33,0-.8.16-2.56,2.11-4.18,5.86-8.11,9.38-11.73,10.51-.85.27-1.69.4-2.5.4-3.31,0-4.92-2.2-4.92-6.72,0-1.63.38-3.73,1.14-6.24l.86-.72c2.37-1.45,4.17-2.57,5.43-3.37.08-.05.17-.11.25-.16,8.19-5.25,12.18-9.23,12.18-12.19,0-1.82-1.12-2.82-3.16-2.82-2.71,0-5.77,1.79-9.09,5.31-.06.06-.12.13-.18.2-3.16,3.41-5.85,7.65-7.99,12.64-1.63,1.33-3.33,2.9-5.08,4.69,3.01-5.39,4.53-9.92,4.53-13.49,0-6.21-2.49-9.35-7.39-9.35-1.35,0-3.15.97-5.39,2.89-2.54,2.18-5.66,5.6-9.41,10.31-1.14,1.44-2.34,2.99-3.6,4.67l-1.5,2.08c-.28.26-.55.56-.82.92-5.48,7.38-10.62,13.2-15.4,17.48-2.03,1.82-4,3.36-5.89,4.62-4.2,2.79-8.08,4.21-11.6,4.21-5.05,0-7.5-2.25-7.5-6.89,0-3.8,1.9-8.62,5.65-14.33,5.07-1.02,9.57-2.08,13.5-3.16,2.12-.59,4.08-1.18,5.85-1.79,3.03-1.03,5.56-2.09,7.57-3.17,5.54-2.97,8.34-6.66,8.34-10.97,0-1.92-.8-3.57-2.37-4.89-1.55-1.3-3.43-1.97-5.61-1.97-2.31,0-4.97.5-7.94,1.46-2.65.86-5.57,2.1-8.72,3.71-.68.35-1.36.7-2.06,1.08-8.21,4.48-14.15,9.45-17.7,14.75-.63.93-1.19,1.88-1.66,2.83l-1.48,2.05c-2.85,4-5.48,7.42-7.88,10.31-6.17,7.41-10.84,11.17-13.92,11.17-2.18,0-3.2-1.02-3.2-3.2,0-1.38,1.45-5.17,8.34-15.36.83-1.23,1.59-2.41,2.29-3.54,3.6-5.86,5.36-10.41,5.36-13.84,0-3.14-.92-5.85-2.74-8.05-1.84-2.23-4.09-3.36-6.7-3.36-4.22,0-9.29,3.37-15.34,10.2-1.19,1.34-2.41,2.8-3.67,4.41,1.44-2.39,2.66-4.42,3.67-6.1,2.21-3.67,3.4-5.65,3.56-5.93,3.15-5.09,6.09-9.84,8.83-14.27,5.97-9.64,10.98-17.72,14.98-24.15,1-1.61,1.95-3.14,2.83-4.54l.68-1.09-1.24.34c-.74.2-1.5.36-2.27.49-1.33.23-2.71.35-4.13.35-1.17,0-2.61-.17-4.29-.51l-.35-.07-10.76,18.25-2.49,4.22c-1.95,3.32-3.73,6.37-5.37,9.16-6.52,11.1-10.57,17.95-12.08,20.41-2.04,3.65-3.76,6.77-5.17,9.35-1.4,2.06-2.76,3.99-4.07,5.81-2.22,3.09-4.32,5.85-6.27,8.26-6.87,8.48-12.06,12.76-15.5,12.76-2.42,0-3.54-1.07-3.54-3.37s1.16-5.34,3.46-9.2l15.59-26.64,3.43-5.86h11.27l1.22-2.29h-11.21l1.56-2.64,8.5-14.34-1.18.32c-2.51.67-4.83.84-7.31.48-.75-.11-1.52-.27-2.31-.48l-.36-.1-3.59,5.96-6.51,10.79h-8.58l-1.53,2.29h8.82l-10.31,17.31c-.18.18-.36.41-.53.69-3.48,5.12-6.94,9.72-10.36,13.78-1.68,1.99-3.34,3.85-4.99,5.57-1.07,1.11-2.07,2.1-3.01,2.97-3.4,3.15-5.97,4.75-7.64,4.75-1.23,0-2.86-.37-2.86-3.54,0-2.7,2.64-8.49,7.83-17.19l2.67-4.41,5.39-8.91,7.72-12.78-1.07.17c-2.42.39-4.42.59-5.94.59-.69,0-1.44-.06-2.25-.18-.69-.1-1.42-.23-2.19-.41l-.38-.09-1.33,2.53-1.63,3.09c.01-.2.02-.39.02-.58,0-3.7-2.02-5.66-5.83-5.66-2.93,0-6.52.94-10.71,2.75-1.89.82-3.9,1.8-6.03,2.99-1.29.7-2.52,1.42-3.71,2.15-7.54,4.61-12.98,9.62-16.18,14.92-3.74,4.9-7.31,9.06-10.72,12.49-.5.51-1,.98-1.49,1.46-7.23,6.92-13.66,10.44-19.21,10.44-.33,0-.65-.01-.97-.03.5-.6.73-1.12.73-1.57l-.03-.16c-.11-.32-.38-.56-.8-.73l-.19-.04s-.03,0-.04,0c-.19.01-.45.1-1.14.49l-.09.07c-.49.44-1,.86-1.52,1.27-2.32-.99-3.45-3.01-3.45-6.19,0-3.8,1.9-8.62,5.65-14.33.83-.17,1.64-.33,2.44-.5,11.23-2.37,19.46-4.93,24.48-7.63.44-.24.86-.48,1.26-.73.83-.5,1.6-1.03,2.28-1.57,3.18-2.51,4.79-5.41,4.79-8.67,0-1.92-.8-3.57-2.37-4.89-1.01-.85-2.16-1.42-3.44-1.72-.69-.16-1.41-.25-2.17-.25-1.15,0-2.38.13-3.69.36-4.2.76-9.23,2.72-15.02,5.88-1.6.87-3.09,1.76-4.51,2.67-11.49,7.31-17.32,15.71-17.32,25.01,0,4.47,1.42,8.24,4.22,11.21,1.25,1.33,2.68,2.38,4.23,3.13-3.61,2.18-7.54,3.29-11.69,3.29-3.32,0-6.82-.35-10.41-1.02-.8-.15-1.6-.29-2.41-.48-2.77-.62-9.12-2.22-18.9-4.79-1.85-.49-3.83-1-5.93-1.56-4.25-1.12-9.01-2.38-14.27-3.78,5.21-1.44,10-3.22,14.35-5.33,2.05-1,4-2.06,5.85-3.2,3.36-2.07,6.39-4.37,9.07-6.91,6.88-6.51,13.64-16.59,20.15-29.99.4-.83.8-1.66,1.2-2.52.3-.63.59-1.26.89-1.91,6.34-4.66,12.86-10.42,19.48-17.21,1.86-1.91,3.73-3.89,5.6-5.96,1.35-1.49,2.71-3.02,4.07-4.59,10.17-11.78,15.12-19.56,15.12-23.79,0-1.64-.7-3.59-4.02-3.59s-7.56,1.89-12.59,5.71c-2.52,1.92-5.26,4.31-8.23,7.21-1.25,1.22-2.53,2.52-3.86,3.91-5.43,5.72-10.16,11.46-14.06,17.07-.63.91-1.34,1.95-2.09,3.09-2.48,3.74-5.63,8.71-9.41,14.88-2.43,3.97-5.12,8.42-8.07,13.36-4.73,4-9.15,7.48-13.24,10.44-2.16,1.56-4.23,2.98-6.21,4.24-2.71,1.74-5.24,3.19-7.58,4.36-4.79,2.38-9.63,3.97-14.48,4.79-2.51.42-5.01.65-7.51.65-8.49,0-15.24-2.18-20.08-6.49-4.82-4.29-7.27-10.3-7.27-17.85,0-8.19,1.78-16.27,5.29-24.2,3.46-7.8,8.6-15.45,15.41-22.89,8.91-9.73,18.16-16.33,27.64-19.78,4.87-1.77,9.8-2.71,14.78-2.8.28,0,.55-.03.83-.03,6.14,0,11.24,1.88,15.17,5.58,3.13,2.96,5.01,6.62,5.64,10.89.16,1.07.26,2.17.26,3.31,0,2.04-.19,4.12-.58,6.22-1.64,8.99-6.77,18.51-15.33,28.39-2.02,2.33-4.01,4.44-5.99,6.32-4.01,3.83-7.94,6.75-11.78,8.75-4.14,2.17-8.17,3.27-12.06,3.27s-7.24-1.17-9.85-3.48c-2.6-2.29-3.91-5.21-3.91-8.65,0-2.98.48-4.73,1.32-4.82.06.12.22.57.17,1.97-.06,1.37.27,2.44.98,3.19.76.8,1.96,1.2,3.56,1.2,1.85,0,3.54-.79,5-2.35.88-.94,1.5-1.98,1.85-3.09.23-.73.35-1.48.35-2.28,0-3.76-2.02-5.74-5.83-5.74-.83,0-1.62.12-2.38.33-1.8.5-3.42,1.57-4.83,3.24-1.99,2.34-3,5.16-3,8.36,0,4.14,1.57,7.67,4.67,10.51,3.09,2.82,6.92,4.26,11.38,4.26s9.28-1.26,14.04-3.76c3.4-1.78,6.84-4.21,10.31-7.25,2.62-2.3,5.26-4.96,7.91-7.98,6.2-7.07,10.68-14.07,13.41-20.94,2.14-5.36,3.21-10.65,3.21-15.83,0-1.09-.08-2.12-.2-3.14-.63-5.32-2.86-9.71-6.72-13.05-4.41-3.82-10.34-5.8-17.61-5.94-.27,0-.53-.03-.81-.03-5.88,0-11.68.92-17.38,2.72-10.23,3.23-20.13,9.34-29.59,18.3-4.37,4.14-8.08,8.37-11.17,12.68-7.32,10.22-11.03,20.89-11.03,31.86,0,10.23,3.07,18.48,9.13,24.5,3.26,3.24,7.15,5.62,11.63,7.12,2.98,1,6.22,1.62,9.72,1.85,1.02.07,2.05.11,3.12.11,2.68,0,5.4-.25,8.16-.74,7.16-1.27,14.59-4.17,22.25-8.68,1.98-1.17,3.97-2.44,5.98-3.82,2.99-2.06,6-4.35,9.05-6.88-3.27,4.82-6.29,9-9.05,12.52-2.11,2.69-4.06,4.99-5.85,6.9-.53.56-1.05,1.1-1.55,1.59-4.79,4.73-10.34,8.36-16.49,10.79-1.47-.38-2.9-.75-4.32-1.1-3.95-.99-7.72-1.87-11.29-2.66-7.56-1.66-14.26-2.86-20.06-3.6-4.54-.57-8.55-.87-11.98-.87-14.21,0-21.12,2.69-21.12,8.23,0,5.89,8.99,8.75,27.48,8.75,2.03,0,4.06-.05,6.08-.13,6.86-.26,13.63-.96,20.22-2.1,1.08-.19,2.15-.38,3.22-.59,2.14.68,4.19,1.33,6.17,1.94,8.85,2.75,16.18,4.83,21.91,6.24,1.87.46,3.58.85,5.1,1.16.82.17,1.65.32,2.48.47,6.53,1.17,13.34,1.77,20.3,1.77.34,0,.68,0,1.02-.01,10.27-.12,18.26-2.09,23.75-5.86.61-.42,1.14-.82,1.63-1.2.53.1,1.06.17,1.6.22.45.04.9.06,1.35.06,5.71,0,12.22-3.3,19.44-9.82,1.52-1.37,3.07-2.88,4.64-4.54,1.56-1.63,3.14-3.38,4.76-5.29-.42,1.75-.64,3.52-.64,5.29,0,.04,0,.07,0,.11,0,3.86.99,7.14,2.92,9.76.09.13.18.26.28.39,2.15,2.72,4.86,4.1,8.04,4.1,2.98,0,6.07-1.46,9.19-4.34.82-.76,1.76-1.74,2.79-2.89,1.81-2.03,3.93-4.65,6.36-7.88.49-.65.99-1.32,1.5-2.01-.72,2.17-1.09,4.26-1.09,6.22,0,3.09.88,5.7,2.61,7.76,1.75,2.08,4.05,3.14,6.84,3.14,2.34,0,5.1-1.33,8.33-4.03,2.42-2.02,5.09-4.8,8.06-8.37.1-.12.19-.23.29-.35,1.24-1.48,2.42-2.88,3.49-4.18-.83,2.3-1.26,4.38-1.26,6.21,0,3.04.96,5.61,2.84,7.64,1.9,2.04,4.29,3.08,7.12,3.08,4.13,0,9.55-3.94,16.44-11.99.93-1.09,1.89-2.24,2.87-3.48l-2.87,5.2-5.53,10,1.01-.17c1.84-.3,3.34-.46,4.51-.49.16,0,.33-.02.48-.02,1.17,0,2.61.17,4.29.51l.36.07.18-.32c.33-.59.65-1.16.97-1.74,8.79-15.7,15.95-26.94,21.32-33.45.44-.53.87-1.04,1.28-1.51,5.83-6.62,10.45-9.97,13.72-9.97,2.06,0,3.02.91,3.02,2.85,0,1.22-1.76,5.27-10.14,17.6-.58.86-1.11,1.7-1.62,2.52-.15.24-.27.47-.41.71-3.03,5.09-4.59,9.39-4.59,12.78,0,3.09.92,5.7,2.75,7.76.73.82,1.54,1.48,2.44,1.98,1.37.77,2.94,1.16,4.69,1.16,3.72,0,8.6-3.41,14.77-10.35,2.22-2.49,4.6-5.43,7.17-8.85-.18,1.15-.28,2.32-.28,3.49,0,4.38,1.37,8.08,4.06,11.03.05.06.1.12.16.18,2.81,2.98,6.33,4.5,10.47,4.5,3.64,0,7.6-1.35,11.85-3.99,1.96-1.22,3.98-2.71,6.07-4.48,4.1-3.49,8.44-8.05,13.01-13.68l3.7-4.64c.64-.81,1.08-1.41,1.31-1.77.12-.15.23-.31.35-.48,1.04-1.53,2.02-2.92,2.95-4.21,4.11-5.71,7.15-9.22,9.41-11.3,2.29-2.12,3.77-2.78,4.71-2.78.73,0,1.48.23,1.48,1.91,0,2.03-2.08,6.67-6.19,13.82-1.25,2.18-2.68,4.58-4.31,7.23l-5.1,8.27-9.51,15.42.97-.07c4.24-.3,5.08-.34,5.21-.34.38,0,1.5.07,3.33.2.58.04,1.23.09,1.96.15l.31.02.16-.27c2.71-4.64,5.04-8.53,6.97-11.65,2.01-3.24,3.59-5.65,4.73-7.21,1.97-2.69,4.49-5.44,7.51-8.19-.42,1.8-.64,3.36-.64,4.63,0,5.35,2.37,8.06,7.04,8.06.88,0,1.77-.13,2.67-.37,3.19-.85,6.55-3.2,10.01-7.03,5.3-5.75,5.3-6.28,5.3-6.63,0-.62-.4-1.02-1.02-1.02ZM341.66,83.6c.93-.88,1.85-1.73,2.78-2.52,1.44-1.23,2.79-2.25,4.07-3.11,3.01-2.03,5.56-3.08,7.59-3.08,1.73,0,2.51.69,2.51,2.25,0,3.25-2.82,6.79-8.37,10.54-.56.38-1.14.74-1.73,1.1-1.84,1.14-3.82,2.19-5.91,3.16-3.6,1.67-7.54,3.11-11.83,4.29,3.56-4.9,7.21-9.12,10.89-12.63ZM143.92,94.65c4.09-5.42,8.28-9.98,12.49-13.56,3.1-2.63,5.82-4.42,8.14-5.38,1.3-.54,2.48-.82,3.53-.82,1.73,0,2.51.69,2.51,2.25,0,2.92-2.29,6.09-6.8,9.42-.5.37-1.02.74-1.58,1.12-5.09,3.44-11.28,6.2-18.41,8.25-.35.1-.7.21-1.06.31.39-.54.79-1.06,1.18-1.59ZM143.7,27.47c1.26-1.75,2.5-3.33,3.7-4.75,1.39-1.62,2.72-3.09,3.99-4.41,5.4-5.57,9.78-8.39,13.07-8.39,1.1,0,1.56.42,1.56,1.39,0,3.41-4.47,10.37-13.29,20.69-1,1.17-2.01,2.33-3.03,3.47-1.98,2.23-3.99,4.4-6.02,6.51-5.61,5.85-11.39,11.27-17.28,16.17,6.19-13.05,11.98-23.33,17.28-30.68ZM33.52,117.81c-1.62.05-3.26.07-4.94.07-21.39,0-25.88-3.37-25.88-6.2,0-2.98,3.62-4.48,10.75-4.48,4.28,0,10.93,1.15,19.88,3.44,5.48,1.4,11.81,3.22,18.99,5.46-5.77.96-12.08,1.52-18.82,1.71ZM202.73,100.64c-.82,1.11-1.62,2.15-2.4,3.17-2.43,3.16-4.66,5.86-6.68,8.1-4.91,5.45-8.62,8.21-11.06,8.21-3.06,0-4.48-1.62-4.48-5.09,0-6.21,4.28-14.52,12.73-24.69.21-.25.42-.49.63-.74,3.19-3.78,6.15-6.83,8.86-9.14,4.22-3.59,7.86-5.41,10.88-5.41,2.3,0,3.37,1.18,3.37,3.71,0,3.88-3.99,11.24-11.85,21.87Z"/>
    </g>
  </g>
</svg>