<?xml version="1.0" encoding="UTF-8"?>
<svg id="Capa_2" data-name="Capa 2" xmlns="http://www.w3.org/2000/svg" viewBox="0 0 34.38 32.15">
  <defs>
    <style>
      .cls-1 {
        fill: #fff;
      }

      .cls-2, .cls-3 {
        fill: none;
      }

      .cls-3 {
        stroke: #fff;
        stroke-miterlimit: 10;
        stroke-width: .25px;
      }
    </style>
  </defs>
  <g id="Capa_1-2" data-name="Capa 1">
    <g>
      <path class="cls-2" d="M5.28,29.88c-.28,0-.55.1-.74.28-.17.17-.27.42-.27.68s.09.51.27.68c.18.18.45.28.74.28s.55-.1.73-.28c.18-.18.27-.41.27-.68s-.09-.51-.27-.68c-.18-.18-.45-.28-.73-.28Z"/>
      <path class="cls-3" d="M29.5,13.78c.37,0,.68-.3.68-.68s-.3-.68-.68-.68-.68.3-.68.68.3.68.68.68Z"/>
      <path class="cls-3" d="M27.04,6.4c.37,0,.68-.3.68-.68s-.3-.68-.68-.68-.68.3-.68.68.3.68.68.68Z"/>
      <circle class="cls-3" cx="29.5" cy="10.65" r=".68"/>
      <path class="cls-3" d="M27.04,13.78c.37,0,.68-.3.68-.68s-.3-.68-.68-.68-.68.3-.68.68.3.68.68.68Z"/>
      <circle class="cls-3" cx="9.81" cy="10.65" r=".68"/>
      <path class="cls-3" d="M9.81,3.94c.37,0,.68-.3.68-.68s-.3-.68-.68-.68-.68.3-.68.68.3.68.68.68Z"/>
      <path class="cls-3" d="M12.27,23.63c.37,0,.68-.3.68-.68s-.3-.68-.68-.68-.68.3-.68.68.3.68.68.68Z"/>
      <path class="cls-3" d="M12.27,6.4c.37,0,.68-.3.68-.68s-.3-.68-.68-.68-.68.3-.68.68.3.68.68.68Z"/>
      <path class="cls-3" d="M9.81,8.86c.37,0,.68-.3.68-.68s-.3-.68-.68-.68-.68.3-.68.68.3.68.68.68Z"/>
      <path class="cls-3" d="M9.81,18.71c.37,0,.68-.3.68-.68s-.3-.68-.68-.68-.68.3-.68.68.3.68.68.68Z"/>
      <path class="cls-3" d="M9.81,13.78c.37,0,.68-.3.68-.68s-.3-.68-.68-.68-.68.3-.68.68.3.68.68.68Z"/>
      <path class="cls-3" d="M9.81,21.17c.37,0,.68-.3.68-.68s-.3-.68-.68-.68-.68.3-.68.68.3.68.68.68Z"/>
      <path class="cls-3" d="M9.81,5.05c-.37,0-.68.3-.68.68s.3.68.68.68.68-.3.68-.68-.3-.68-.68-.68Z"/>
      <path class="cls-3" d="M12.27,8.86c.37,0,.68-.3.68-.68s-.3-.68-.68-.68-.68.3-.68.68.3.68.68.68Z"/>
      <circle class="cls-3" cx="9.81" cy="15.57" r=".68"/>
      <path class="cls-3" d="M12.27,9.97c-.37,0-.68.3-.68.68s.3.68.68.68.68-.3.68-.68-.3-.68-.68-.68Z"/>
      <path class="cls-3" d="M14.73,23.63c.37,0,.68-.3.68-.68s-.3-.68-.68-.68-.68.3-.68.68.3.68.68.68Z"/>
      <path class="cls-3" d="M14.73,21.17c.37,0,.68-.3.68-.68s-.3-.68-.68-.68-.68.3-.68.68.3.68.68.68Z"/>
      <circle class="cls-3" cx="14.73" cy="15.57" r=".68"/>
      <path class="cls-3" d="M12.27,3.94c.37,0,.68-.3.68-.68s-.3-.68-.68-.68-.68.3-.68.68.3.68.68.68Z"/>
      <path class="cls-3" d="M14.73,18.71c.37,0,.68-.3.68-.68s-.3-.68-.68-.68-.68.3-.68.68.3.68.68.68Z"/>
      <path class="cls-3" d="M12.27,19.81c-.37,0-.68.3-.68.68s.3.68.68.68.68-.3.68-.68-.3-.68-.68-.68Z"/>
      <path class="cls-3" d="M12.27,12.43c-.37,0-.68.3-.68.68s.3.68.68.68.68-.3.68-.68-.3-.68-.68-.68Z"/>
      <path class="cls-3" d="M12.27,14.89c-.37,0-.68.3-.68.68s.3.68.68.68.68-.3.68-.68-.3-.68-.68-.68Z"/>
      <path class="cls-3" d="M12.27,17.35c-.37,0-.68.3-.68.68s.3.68.68.68.68-.3.68-.68-.3-.68-.68-.68Z"/>
      <path class="cls-3" d="M9.81,23.63c.37,0,.68-.3.68-.68s-.3-.68-.68-.68-.68.3-.68.68.3.68.68.68Z"/>
      <path class="cls-3" d="M7.35,6.4c.37,0,.68-.3.68-.68s-.3-.68-.68-.68-.68.3-.68.68.3.68.68.68Z"/>
      <path class="cls-3" d="M24.58,17.35c-.37,0-.68.3-.68.68s.3.68.68.68.68-.3.68-.68-.3-.68-.68-.68Z"/>
      <path class="cls-3" d="M24.58,12.43c-.37,0-.68.3-.68.68s.3.68.68.68.68-.3.68-.68-.3-.68-.68-.68Z"/>
      <circle class="cls-3" cx="24.58" cy="15.57" r=".68"/>
      <path class="cls-3" d="M24.58,22.27c-.37,0-.68.3-.68.68s.3.68.68.68.68-.3.68-.68-.3-.68-.68-.68Z"/>
      <path class="cls-3" d="M17.19,26.09c.37,0,.68-.3.68-.68s-.3-.68-.68-.68-.68.3-.68.68.3.68.68.68Z"/>
      <circle class="cls-3" cx="24.58" cy="10.65" r=".68"/>
      <circle class="cls-3" cx="29.5" cy="15.57" r=".68"/>
      <path class="cls-3" d="M24.58,2.59c-.37,0-.68.3-.68.68s.3.68.68.68.68-.3.68-.68-.3-.68-.68-.68Z"/>
      <circle class="cls-3" cx="24.58" cy="8.18" r=".68"/>
      <circle class="cls-3" cx="27.04" cy="10.65" r=".68"/>
      <path class="cls-3" d="M24.58,5.05c-.37,0-.68.3-.68.68s.3.68.68.68.68-.3.68-.68-.3-.68-.68-.68Z"/>
      <path class="cls-3" d="M24.58,21.17c.37,0,.68-.3.68-.68s-.3-.68-.68-.68-.68.3-.68.68.3.68.68.68Z"/>
      <circle class="cls-3" cx="7.35" cy="15.57" r=".68"/>
      <path class="cls-3" d="M7.35,7.51c-.37,0-.68.3-.68.68s.3.68.68.68.68-.3.68-.68-.3-.68-.68-.68Z"/>
      <path class="cls-3" d="M14.73,24.74c-.37,0-.68.3-.68.68s.3.68.68.68.68-.3.68-.68-.3-.68-.68-.68Z"/>
      <path class="cls-3" d="M7.35,13.78c.37,0,.68-.3.68-.68s-.3-.68-.68-.68-.68.3-.68.68.3.68.68.68Z"/>
      <circle class="cls-3" cx="7.35" cy="10.65" r=".68"/>
      <path class="cls-3" d="M7.35,18.71c.37,0,.68-.3.68-.68s-.3-.68-.68-.68-.68.3-.68.68.3.68.68.68Z"/>
      <path class="cls-3" d="M8.03,20.49c0-.37-.3-.68-.68-.68s-.68.3-.68.68.3.68.68.68.68-.3.68-.68Z"/>
      <circle class="cls-3" cx="4.89" cy="15.57" r=".68"/>
      <path class="cls-3" d="M4.89,13.78c.37,0,.68-.3.68-.68s-.3-.68-.68-.68-.68.3-.68.68.3.68.68.68Z"/>
      <circle class="cls-3" cx="4.89" cy="10.65" r=".68"/>
      <path class="cls-3" d="M14.73,13.78c.37,0,.68-.3.68-.68s-.3-.68-.68-.68-.68.3-.68.68.3.68.68.68Z"/>
      <path class="cls-3" d="M19.65,1.48c.37,0,.68-.3.68-.68s-.3-.68-.68-.68-.68.3-.68.68.3.68.68.68Z"/>
      <circle class="cls-3" cx="19.65" cy="3.26" r=".68"/>
      <path class="cls-3" d="M22.11,23.63c.37,0,.68-.3.68-.68s-.3-.68-.68-.68-.68.3-.68.68.3.68.68.68Z"/>
      <circle class="cls-3" cx="27.04" cy="15.57" r=".68"/>
      <circle class="cls-3" cx="22.11" cy="10.65" r=".68"/>
      <circle class="cls-3" cx="19.65" cy="15.57" r=".68"/>
      <path class="cls-3" d="M19.65,13.78c.37,0,.68-.3.68-.68s-.3-.68-.68-.68-.68.3-.68.68.3.68.68.68Z"/>
      <circle class="cls-3" cx="22.11" cy="5.72" r=".68"/>
      <circle class="cls-3" cx="19.65" cy="8.18" r=".68"/>
      <circle class="cls-3" cx="19.65" cy="5.72" r=".68"/>
      <circle class="cls-3" cx="19.65" cy="10.65" r=".68"/>
      <circle class="cls-3" cx="22.11" cy="8.18" r=".68"/>
      <circle class="cls-3" cx="22.11" cy="20.49" r=".68"/>
      <circle class="cls-3" cx="14.73" cy="10.65" r=".68"/>
      <path class="cls-3" d="M22.11,18.71c.37,0,.68-.3.68-.68s-.3-.68-.68-.68-.68.3-.68.68.3.68.68.68Z"/>
      <circle class="cls-3" cx="22.11" cy="15.57" r=".68"/>
      <path class="cls-3" d="M27.04,7.51c-.37,0-.68.3-.68.68s.3.68.68.68.68-.3.68-.68-.3-.68-.68-.68Z"/>
      <path class="cls-3" d="M27.04,21.17c.37,0,.68-.3.68-.68s-.3-.68-.68-.68-.68.3-.68.68.3.68.68.68Z"/>
      <path class="cls-3" d="M27.04,18.71c.37,0,.68-.3.68-.68s-.3-.68-.68-.68-.68.3-.68.68.3.68.68.68Z"/>
      <path class="cls-3" d="M22.11,13.78c.37,0,.68-.3.68-.68s-.3-.68-.68-.68-.68.3-.68.68.3.68.68.68Z"/>
      <path class="cls-3" d="M17.19,23.63c.37,0,.68-.3.68-.68s-.3-.68-.68-.68-.68.3-.68.68.3.68.68.68Z"/>
      <path class="cls-3" d="M17.19,21.17c.37,0,.68-.3.68-.68s-.3-.68-.68-.68-.68.3-.68.68.3.68.68.68Z"/>
      <path class="cls-3" d="M17.19,18.71c.37,0,.68-.3.68-.68s-.3-.68-.68-.68-.68.3-.68.68.3.68.68.68Z"/>
      <path class="cls-3" d="M22.11,3.94c.37,0,.68-.3.68-.68s-.3-.68-.68-.68-.68.3-.68.68.3.68.68.68Z"/>
      <path class="cls-3" d="M17.19,13.78c.37,0,.68-.3.68-.68s-.3-.68-.68-.68-.68.3-.68.68.3.68.68.68Z"/>
      <path class="cls-3" d="M19.65,18.71c.37,0,.68-.3.68-.68s-.3-.68-.68-.68-.68.3-.68.68.3.68.68.68Z"/>
      <path class="cls-3" d="M14.73,1.48c.37,0,.68-.3.68-.68s-.3-.68-.68-.68-.68.3-.68.68.3.68.68.68Z"/>
      <path class="cls-3" d="M14.73,8.86c.37,0,.68-.3.68-.68s-.3-.68-.68-.68-.68.3-.68.68.3.68.68.68Z"/>
      <path class="cls-3" d="M17.19,11.32c.37,0,.68-.3.68-.68s-.3-.68-.68-.68-.68.3-.68.68.3.68.68.68Z"/>
      <path class="cls-3" d="M14.73,6.4c.37,0,.68-.3.68-.68s-.3-.68-.68-.68-.68.3-.68.68.3.68.68.68Z"/>
      <path class="cls-3" d="M14.73,3.94c.37,0,.68-.3.68-.68s-.3-.68-.68-.68-.68.3-.68.68.3.68.68.68Z"/>
      <path class="cls-3" d="M17.19,16.24c.37,0,.68-.3.68-.68s-.3-.68-.68-.68-.68.3-.68.68.3.68.68.68Z"/>
      <path class="cls-3" d="M17.19,1.48c.37,0,.68-.3.68-.68s-.3-.68-.68-.68-.68.3-.68.68.3.68.68.68Z"/>
      <path class="cls-3" d="M19.65,26.09c.37,0,.68-.3.68-.68s-.3-.68-.68-.68-.68.3-.68.68.3.68.68.68Z"/>
      <circle class="cls-3" cx="19.65" cy="20.49" r=".68"/>
      <path class="cls-3" d="M17.19,3.94c.37,0,.68-.3.68-.68s-.3-.68-.68-.68-.68.3-.68.68.3.68.68.68Z"/>
      <path class="cls-3" d="M17.19,6.4c.37,0,.68-.3.68-.68s-.3-.68-.68-.68-.68.3-.68.68.3.68.68.68Z"/>
      <circle class="cls-3" cx="19.65" cy="22.95" r=".68"/>
      <path class="cls-3" d="M17.19,8.86c.37,0,.68-.3.68-.68s-.3-.68-.68-.68-.68.3-.68.68.3.68.68.68Z"/>
      <path class="cls-1" d="M30.26,31.62v-1.53s-.01-.1.12-.1h.32v-.29h-1.61v.29h.31c.13,0,.12.1.12.1v1.53s0,.1-.13.1h-.31v.29h1.62v-.29h-.32c-.13,0-.12-.1-.12-.1Z"/>
      <path class="cls-1" d="M34.04,31.18c-.05.18-.24.39-.41.47-.16.08-.37.16-.7.15,0,0-.05,0-.07,0-.06,0-.11-.01-.17-.02-.19-.04-.37-.13-.5-.26-.17-.17-.27-.42-.27-.68s.09-.51.27-.68c.18-.18.44-.27.71-.27h.05c.3,0,.48.04.71.16.14.07.34.28.39.49h.31v-.86h-.33v.09s0,.03-.02.04c-.02,0-.04,0-.07,0-.14-.07-.51-.27-1.02-.27h0s-.04,0-.06,0h0c-.49.01-1.01.19-1.31.46-.07.06-.13.14-.18.21-.13.19-.19.41-.19.63,0,.02,0,.04,0,.07.02.29.14.57.37.78.28.25.68.4,1.11.45.42.04.85-.03,1.14-.19.29-.16.49-.44.56-.74,0,0,0-.01,0-.02h-.34Z"/>
      <path class="cls-1" d="M18.74,31.21l-.69-1.52h-1.5v.29h.25c.18,0,.2.1.2.19v1.36c0,.08,0,.19-.11.19h-.31v.29h1.26v-.29h-.25c-.13,0-.14-.06-.14-.19v-1.48h.01l.88,1.95h.5l.87-1.95h.01v1.48c0,.13,0,.19-.13.19h-.25v.29h1.53v-.29h-.31c-.12,0-.11-.11-.11-.19v-1.36c0-.09,0-.19.19-.19h.25v-.29h-1.47l-.69,1.52Z"/>
      <path class="cls-1" d="M23.63,29.98h.27c.13,0,.16.05.16.17v1.17c0,.27-.1.56-.84.56-.7,0-.67-.48-.67-.56v-1.17c0-.12.02-.16.15-.16h.29v-.29h-1.65v.29h.28c.14,0,.16.05.16.18h0v1.12c0,.74.77.88,1.43.88s1.33-.14,1.33-.85v-1.21c0-.08.03-.11.14-.11h.29v-.29h-1.35v.29Z"/>
      <path class="cls-1" d="M9.63,29.98h.3c.14,0,.16.05.16.18l.02.97-1.59-1.44h-1.14v.29h.25c.18,0,.2.1.2.19v1.36c0,.08,0,.19-.11.19h-.31v.29h1.34v-.29h-.33c-.13,0-.14-.06-.14-.19v-1.16l1.84,1.64h.47l-.02-1.85c0-.13.01-.18.15-.18h.29v-.29h-1.36v.29Z"/>
      <path class="cls-1" d="M5.28,29.54c-.51,0-1.06.18-1.37.46-.25.22-.37.53-.37.85s.12.62.37.85c.33.3.83.46,1.37.46s1.05-.16,1.37-.46c.24-.22.37-.55.37-.85s-.12-.62-.37-.84c-.35-.32-.8-.46-1.37-.46ZM6.02,31.53c-.18.18-.45.28-.73.28s-.55-.1-.74-.28c-.17-.17-.27-.42-.27-.68s.09-.51.27-.68c.18-.18.45-.28.74-.28s.55.1.73.28c.18.17.27.42.27.68s-.09.5-.27.68Z"/>
      <path class="cls-1" d="M13.51,29.98h.2c.06,0,.07.06.05.09l-.55.65h-.02l-.54-.65s0-.09.04-.09h.19v-.29h-1.6v.29h.28c.12,0,.2.08.25.13.04.04.85.96.87.99.02.03.02.03.02.04v.47c0,.12-.12.11-.12.11h-.31v.29h1.59v-.29h-.33s-.12,0-.12-.1v-.47s0-.04.01-.05c.02-.03.85-.96.88-1.01.08-.09.12-.11.23-.11h.29v-.29h-1.31v.29Z"/>
      <path class="cls-1" d="M2.58,30.7c-.08-.04-.19-.08-.29-.1-.19-.04-.61-.1-.81-.12-.21-.02-.58-.05-.73-.1-.04-.01-.14-.06-.14-.16,0-.07.04-.14.12-.19.13-.08.39-.13.67-.13.32,0,.6.07.77.15.06.03.13.07.18.11.06.05.15.16.18.3h.29v-.79h-.33v.09s-.03.07-.09.04c-.15-.08-.56-.24-1.07-.25-.29,0-.61.06-.89.18-.26.11-.47.3-.47.61,0,.28.18.44.17.43.08.07.2.19.51.25.14.03.44.08.74.11.3.03.59.06.71.09.1.02.25.06.25.23s-.17.23-.2.24c-.03.01-.23.1-.59.1-.27,0-.59-.08-.7-.12-.13-.05-.27-.11-.41-.27-.03-.04-.08-.15-.08-.26H.07v.91h.36v-.12s.02-.07.08-.04c.08.04.3.12.53.17.19.04.31.07.55.07.39,0,.59-.06.74-.1.14-.04.3-.11.44-.22.07-.06.23-.21.23-.48s-.14-.42-.19-.47c-.07-.07-.15-.12-.23-.16Z"/>
      <path class="cls-1" d="M28.04,30.71c-.08-.04-.18-.07-.28-.09-.19-.04-.62-.1-.82-.13-.21-.02-.58-.06-.72-.11-.05-.01-.14-.07-.14-.18,0-.07.04-.14.12-.19.13-.08.39-.13.67-.13.32,0,.6.07.77.15.06.03.13.07.18.11.06.05.15.16.18.3h.29v-.79h-.33v.09s-.03.07-.09.04c-.15-.08-.56-.24-1.07-.25-.29,0-.61.06-.89.18-.26.11-.47.3-.47.61,0,.27.18.43.17.42.08.07.2.18.51.25.14.03.44.07.74.11.3.03.58.07.7.1.1.02.25.07.25.24s-.17.23-.2.24c-.03.01-.23.1-.59.1-.27,0-.59-.08-.7-.12-.13-.05-.27-.11-.41-.27-.03-.04-.08-.15-.08-.26h-.33v.91h.36v-.12s.02-.07.08-.04c.08.04.3.12.53.17.19.04.31.07.55.07.39,0,.59-.06.74-.1.14-.04.3-.11.44-.22.07-.06.23-.21.23-.48s-.14-.41-.19-.46c-.07-.07-.15-.12-.23-.16Z"/>
    </g>
  </g>
</svg>