<?xml version="1.0" encoding="UTF-8"?>
<svg id="Capa_2" data-name="Capa 2" xmlns="http://www.w3.org/2000/svg" viewBox="0 0 213.41 46.72">
  <defs>
    <style>
      .cls-1 {
        fill: #fff;
      }
    </style>
  </defs>
  <g id="Capa_1-2" data-name="Capa 1">
    <g>
      <path class="cls-1" d="M35.85,6.14c0,.61-.56.91-1.68.88-.88-.02-2.99-.47-6.3-1.4-1.55.83-2.32,1.91-2.32,3.25,0,.65.22,1.1.67,1.37.65-.03,1.13-.04,1.46-.03.95.03,1.42.16,1.42.39,0,.15-.25.21-.75.19-.64-.02-1.33-.14-2.08-.35-1.01.11-2.19.45-3.53,1.03-3.41,1.48-5.12,3.48-5.12,6.08,0,1.72.93,2.87,2.79,3.43-.34-.57-.51-1.22-.51-1.95,0-1.8.92-3.4,2.75-4.83s3.84-2.1,6.02-2.03c1,.03,1.8.3,2.39.81s.89,1.18.89,2.01c0,1.78-.98,3.36-2.93,4.72-1.95,1.36-4.15,2-6.6,1.88-.49-.02-.95-.07-1.38-.15.88,1.22,2.18,1.87,3.9,1.94,1.07.04,1.94-.08,2.62-.38.07,0,.1-.01.16-.02.05.02.08.06.08.11,0,.13-.34.25-1.01.37-.68.12-1.29.16-1.85.14-1.91-.08-3.37-.84-4.37-2.27-1.39-.38-2.48-.97-3.26-1.76-.79-.79-1.18-1.68-1.18-2.66,0-1.32.55-2.52,1.64-3.61s2.56-1.88,4.38-2.39c1.1-.31,2.37-.52,3.79-.63-1.01-.47-1.52-1.17-1.52-2.1,0-1.19.74-2.16,2.21-2.91-2.11-.59-3.86-.92-5.24-.99-2.7-.13-5,.4-6.9,1.63-1.9,1.22-2.85,2.78-2.85,4.69,0,.86.25,1.61.75,2.26.5.65,1.1.99,1.8,1.04.48.03.72-.03.72-.18,0-.08-.1-.1-.26-.1-.45,0-.72-.27-.72-.72,0-.25.11-.47.32-.63.21-.17.47-.24.77-.22.58.04.87.34.87.9,0,.37-.17.68-.5.92-.33.24-.74.34-1.21.31-.85-.06-1.57-.49-2.17-1.29-.6-.8-.9-1.75-.9-2.82,0-1.61.7-3.04,2.11-4.29,1.67-1.49,4.01-2.14,7.03-1.98,1.68.09,3.91.53,6.7,1.32,1.26-.56,2.72-.82,4.39-.78,1.24.03,2.3.22,3.17.57s1.31.76,1.31,1.23ZM31.71,14.87c0-.66-.26-1.2-.78-1.65s-1.18-.68-1.97-.7c-1.96-.06-3.88.68-5.75,2.22-1.87,1.54-2.81,3.15-2.81,4.85,0,.49.15,1,.45,1.53.53.13,1.02.2,1.46.22,2.15.1,4.26-.56,6.31-1.99,2.05-1.42,3.08-2.93,3.08-4.48ZM35.56,6.11c0-.36-.38-.68-1.13-.96s-1.62-.44-2.59-.47c-1.34-.03-2.56.22-3.66.77,2.42.86,4.45,1.31,6.1,1.34.86.02,1.29-.21,1.29-.67Z"/>
      <path class="cls-1" d="M37.52,11.89c0,.36-.57,1.08-1.71,2.14-.05.28-.08.53-.08.74,0,.53.24,1.37.72,2.53.25.58.37,1.06.37,1.46,0,.82-.4,1.53-1.2,2.11-.8.59-1.74.87-2.84.84-.62-.01-1.11-.2-1.48-.56s-.55-.84-.55-1.43c0-.68.24-1.34.73-1.98.49-.63.99-.95,1.51-.93.09,0,.17.02.25.06.44-.53.66-.79,1.09-1.32.33-.38.77-.92,1.31-1.6.16-.63.39-1.18.71-1.63s.63-.67.94-.67c.15,0,.22.08.22.24ZM35.62,17.25c0-.27,0-.54-.03-.81-.02-.27-.03-.65-.03-1.16,0-.41.02-.75.05-1.02-.51.64-1.25,1.54-2.21,2.69.17.15.26.33.26.54,0,.54-.44.89-1.33,1.06-.36.07-.66.26-.92.56s-.39.62-.39.95c0,.36.13.67.4.93.26.25.59.38.98.39.77.02,1.49-.41,2.18-1.28s1.03-1.82,1.03-2.84Z"/>
      <path class="cls-1" d="M43.39,14.1c-.04.08-.07.12-.11.2-.72,0-1.07,0-1.79,0-1.22,2.08-1.83,3.11-3.05,5.18-.37.62-.56,1.12-.56,1.5,0,.41.21.62.64.62.83.01,2.23-1.42,4.2-4.31.06-.09.12-.14.16-.14.05,0,.09.04.08.08,0,.02-.05.1-.14.22-.24.32-.35.48-.59.8-1.72,2.37-3.01,3.55-3.87,3.54-.43,0-.79-.17-1.07-.48-.29-.31-.43-.7-.43-1.17,0-.55.24-1.23.72-2.04.92-1.53,1.38-2.3,2.3-3.83-.56,0-.84,0-1.39-.02.05-.08.08-.12.14-.2.55,0,.82,0,1.37.01.64-1.05.96-1.58,1.6-2.64.27.07.53.11.78.11.25,0,.52-.03.79-.11-.63,1.06-.94,1.59-1.57,2.64.72,0,1.07,0,1.79,0Z"/>
      <path class="cls-1" d="M52.59,17.2c0,.19-.68,1.09-2,2.68-1.08,1.3-1.93,1.96-2.55,1.96-.42,0-.76-.15-1.03-.47-.26-.31-.4-.71-.4-1.18s.15-1.03.44-1.6c-.91,1.28-1.61,2.14-2.09,2.59-.48.45-.95.67-1.41.67-.48,0-.89-.21-1.22-.63-.33-.42-.49-.94-.49-1.57,0-1.75,1.24-3.29,3.71-4.64,1.08-.6,1.96-.91,2.63-.91.57,0,.85.27.85.82,0,.16-.04.36-.11.62.28-.53.42-.8.7-1.33.27.06.51.09.72.09.25,0,.57-.04.96-.1-.97,1.61-1.45,2.42-2.42,4.03-.84,1.41-1.26,2.34-1.26,2.78s.18.64.53.64c.37,0,.95-.42,1.75-1.26.8-.84,1.62-1.88,2.45-3.11.05-.09.1-.14.15-.14.05,0,.08.03.08.08ZM48.82,14.97c0-.45-.21-.67-.62-.67-.84,0-1.94.83-3.3,2.47s-2.04,2.96-2.04,3.97c0,.59.26.89.79.89.63,0,1.72-1.04,3.27-3.13,1.27-1.71,1.9-2.9,1.9-3.54Z"/>
      <path class="cls-1" d="M65.21,16.9c0,.11-.29.47-.86,1.08-.79.85-1.49,1.29-2.08,1.3-.4.01-.74-.2-1-.63-.81,1.14-1.47,1.93-1.98,2.38-.51.44-1.03.67-1.54.68-.46,0-.86-.15-1.18-.46-.32-.32-.48-.7-.48-1.16,0-.54.31-1.33.92-2.37.86-1.47,1.3-2.2,2.16-3.67.45.04.75.05.9.05.34,0,.61-.04.81-.09-1.14,1.88-1.71,2.81-2.86,4.68-.63,1.05-.94,1.78-.94,2.18,0,.43.24.64.72.63.45,0,.9-.22,1.37-.64.47-.42,1.14-1.21,2.02-2.37-.08-.27-.12-.51-.12-.72,0-.83.25-1.69.77-2.58.51-.89,1-1.34,1.48-1.35.23,0,.34.12.34.39,0,.68-.76,2.11-2.27,4.28.19.41.49.6.89.59.69-.02,1.54-.66,2.53-1.92.18-.23.3-.34.36-.34.04,0,.05.02.05.05Z"/>
      <path class="cls-1" d="M69.88,16.78s-.05.1-.14.22c-.24.33-.35.5-.59.83-1.72,2.44-3.03,3.67-3.93,3.7-.43.01-.79-.13-1.07-.43-.29-.3-.43-.67-.43-1.13,0-.53.31-1.34.94-2.43.85-1.47,1.28-2.21,2.13-3.69.28.05.51.08.67.07.25,0,.59-.05,1.04-.13-1.24,2.08-1.86,3.12-3.1,5.2-.45.75-.67,1.33-.67,1.73s.21.61.64.6c.81-.02,2.24-1.51,4.29-4.48.05-.09.09-.14.14-.14.05,0,.09.03.08.08ZM69.69,11.13c0,.32-.13.62-.4.91-.27.29-.56.44-.88.45-.41.01-.62-.19-.62-.6,0-.3.14-.59.42-.88.28-.29.58-.44.89-.45.39-.01.59.18.59.57Z"/>
      <path class="cls-1" d="M82.32,6.73c-3.42,5.59-5.58,9.15-6.47,10.69-.9,1.57-1.35,2.56-1.35,2.97s.19.61.56.59c.83-.03,2.24-1.54,4.23-4.52.05-.09.1-.14.15-.14.05,0,.09.03.08.08,0,.02-.05.1-.14.22-.24.33-.35.5-.59.83-1.73,2.46-3,3.7-3.82,3.73-.42.02-.76-.13-1.03-.43-.26-.3-.4-.7-.4-1.19s.16-1.07.49-1.73c-1.59,2.32-2.78,3.49-3.55,3.52-.48.02-.89-.18-1.22-.58-.33-.4-.49-.92-.49-1.55,0-1.5.94-2.9,2.8-4.19,1.48-1.03,2.65-1.56,3.5-1.6.57-.02.85.24.85.79,0,.25-.08.55-.23.87,1.95-3.35,2.93-5.02,4.88-8.38.3.08.6.11.89.1.07,0,.36-.03.85-.09ZM75.73,14.35c0-.48-.22-.72-.67-.7-.82.03-1.9.89-3.25,2.58s-2.02,3.03-2.02,4.03c0,.61.25.91.75.89.73-.03,1.98-1.34,3.76-3.94.95-1.4,1.42-2.36,1.42-2.86Z"/>
      <path class="cls-1" d="M89.16,15.96c0,.19-.68,1.11-2,2.75-1.08,1.34-1.93,2.04-2.55,2.07-.42.02-.76-.12-1.03-.42-.26-.3-.4-.69-.4-1.16s.15-1.03.44-1.62c-.91,1.32-1.61,2.21-2.09,2.68-.48.47-.95.71-1.41.73-.48.02-.89-.17-1.22-.57-.33-.4-.49-.92-.49-1.54,0-1.75,1.24-3.35,3.71-4.81,1.08-.65,1.96-.99,2.62-1.02.57-.03.85.23.85.78,0,.16-.04.36-.11.62.28-.54.42-.82.7-1.36.27.05.51.07.72.06.25-.01.57-.06.96-.14-.97,1.65-1.45,2.47-2.42,4.12-.84,1.44-1.26,2.39-1.26,2.83s.18.63.53.62c.37-.02.95-.46,1.75-1.34.8-.87,1.62-1.94,2.45-3.21.05-.09.1-.14.15-.14.05,0,.08.02.08.08ZM85.39,13.88c0-.45-.21-.66-.62-.64-.84.04-1.94.91-3.3,2.61-1.36,1.7-2.04,3.06-2.04,4.07,0,.59.26.88.79.85.63-.03,1.72-1.12,3.27-3.28,1.27-1.77,1.9-2.98,1.9-3.62Z"/>
      <path class="cls-1" d="M109.34,14.9s-.05.1-.14.23c-.24.34-.35.5-.59.84-1.72,2.47-2.98,3.73-3.81,3.78-.43.02-.78-.12-1.05-.42-.27-.3-.41-.71-.41-1.21s.17-1.07.52-1.68c.06-.11.4-.62,1-1.52.76-1.13,1.15-1.87,1.15-2.21,0-.37-.19-.55-.56-.53-1.2.06-3.27,2.65-6.19,7.74-.18-.03-.43-.03-.75-.02-.37.02-.69.05-.96.1.78-1.27,1.16-1.91,1.94-3.18,1.27-2.09,1.9-3.36,1.9-3.82,0-.41-.17-.61-.51-.59-.5.03-1.32.79-2.46,2.29-1.14,1.5-2.27,3.31-3.39,5.43-.21-.03-.48-.03-.81-.01-.36.02-.67.05-.93.1.78-1.27,1.17-1.91,1.96-3.18,1.35-2.18,2.02-3.53,2.02-4.03,0-.27-.1-.4-.31-.39-.45.02-1.38,1.05-2.78,3.08-.09.13-.17.21-.22.2-.03,0-.05-.03-.05-.08,0-.08.42-.67,1.26-1.77.82-1.07,1.46-1.62,1.9-1.64.29-.02.54.11.75.38s.31.59.31.97c0,.53-.27,1.28-.81,2.24,1.64-2.49,2.86-3.76,3.66-3.8.38-.02.7.12.94.41s.37.68.37,1.14c0,.52-.24,1.19-.72,2.02,1.73-2.5,3.03-3.77,3.9-3.82.39-.02.72.13.99.45s.4.73.4,1.21c0,.57-.22,1.24-.67,2.02,0,0-.4.61-1.18,1.81-.45.68-.67,1.19-.67,1.54,0,.37.19.55.56.53.71-.04,1.89-1.25,3.53-3.64l.42-.61c.1-.13.15-.19.25-.31.05-.09.09-.14.14-.14.05,0,.09.03.08.08Z"/>
      <path class="cls-1" d="M116.26,14.55s-.08.15-.25.37c-.24.31-.35.46-.59.77-1.89,2.43-3.51,3.68-4.86,3.75-.64.03-1.17-.17-1.61-.6-.43-.44-.65-1-.65-1.69,0-1.64,1.14-3.15,3.43-4.52,1.2-.72,2.18-1.1,2.94-1.14.33-.02.61.07.84.25s.35.42.35.7c0,.66-.43,1.24-1.29,1.74s-3.24.76-4.29,1.52c-.59.43-.93,1.77-.93,2.4,0,.78.42,1.15,1.27,1.11,1.44-.08,3.21-1.58,5.3-4.5.11-.15.21-.24.27-.23.03,0,.05.03.05.08ZM115.1,12.07c0-.29-.16-.43-.48-.41-.48.03-1.12.39-1.91,1.11-.79.71-1.56,1.62-2.32,2.73,1.31-.41,2.42-.94,3.34-1.61.91-.66,1.37-1.27,1.37-1.82Z"/>
      <path class="cls-1" d="M125.82,8.75c0,.36-.57,1.11-1.71,2.25-.05.28-.08.53-.08.74,0,.53.24,1.36.72,2.48.25.56.37,1.04.37,1.43,0,.82-.4,1.55-1.2,2.19s-1.74.99-2.84,1.04c-.62.03-1.11-.12-1.48-.45-.37-.33-.55-.79-.55-1.39,0-.68.24-1.36.73-2.03s.99-1.02,1.51-1.05c.09,0,.17.01.25.04.44-.56.66-.84,1.09-1.39.33-.41.77-.97,1.31-1.69.16-.65.39-1.2.71-1.68.32-.47.63-.71.94-.73.15,0,.22.07.22.23ZM123.92,14.23c0-.27,0-.54-.03-.81-.02-.27-.03-.65-.03-1.15,0-.41.02-.75.05-1.03-.51.67-1.25,1.62-2.21,2.84.17.14.26.31.26.52,0,.54-.44.92-1.33,1.16-.36.1-.66.31-.92.63-.26.32-.39.65-.39.98,0,.36.13.66.4.9.26.23.59.34.98.32.77-.04,1.49-.52,2.18-1.44.69-.92,1.03-1.9,1.03-2.92Z"/>
      <path class="cls-1" d="M136.27,13.58c0,.19-.68,1.1-2,2.74-1.08,1.33-1.93,2.03-2.55,2.06-.42.02-.76-.12-1.03-.43-.26-.3-.4-.69-.4-1.16s.15-1.03.44-1.62c-.91,1.32-1.61,2.21-2.09,2.68-.48.47-.95.71-1.41.74-.48.02-.89-.17-1.22-.56-.33-.4-.49-.91-.49-1.54,0-1.75,1.24-3.36,3.71-4.82,1.08-.65,1.96-.99,2.62-1.02.57-.03.85.24.85.78,0,.16-.04.36-.11.62.28-.54.42-.81.7-1.36.27.05.51.07.72.06.25-.01.57-.06.96-.14-.97,1.64-1.45,2.47-2.42,4.11-.84,1.44-1.26,2.39-1.26,2.83,0,.43.18.63.53.62.37-.02.95-.46,1.75-1.33.8-.87,1.62-1.93,2.45-3.19.05-.09.1-.14.15-.14.05,0,.08.02.08.08ZM132.51,11.48c0-.45-.21-.66-.62-.64-.84.04-1.94.91-3.3,2.61s-2.04,3.06-2.04,4.08c0,.59.26.88.79.85.63-.03,1.72-1.13,3.27-3.28,1.27-1.77,1.9-2.97,1.9-3.61Z"/>
      <path class="cls-1" d="M143.64,3.78c-2.46,3.96-3.68,5.95-6.14,9.92.96-1.35,1.67-2.26,2.15-2.72s.92-.7,1.35-.72c.51-.02.93.17,1.25.58.32.4.49.92.49,1.55,0,1.38-.87,2.76-2.62,4.16-1.3,1.04-2.46,1.59-3.47,1.63-.47.02-.86-.15-1.16-.49-.3-.35-.44-.81-.44-1.38,0-.68.44-1.75,1.31-3.19,2.26-3.72,3.4-5.58,5.66-9.3.25.06.51.09.79.08.22,0,.5-.04.83-.11ZM141.74,11.35c0-.61-.25-.91-.77-.89-.67.02-1.8,1.17-3.4,3.43-1.2,1.69-1.8,2.82-1.8,3.38,0,.48.24.71.71.7.82-.03,1.9-.9,3.25-2.58,1.34-1.69,2.02-3.03,2.02-4.03Z"/>
      <path class="cls-1" d="M150.56,13.11s-.08.15-.25.36c-.24.3-.35.45-.59.75-1.89,2.38-3.51,3.6-4.86,3.64-.64.02-1.17-.19-1.61-.64-.43-.45-.65-1.01-.65-1.71,0-1.64,1.14-3.13,3.43-4.45,1.2-.69,2.18-1.05,2.94-1.07.33,0,.61.08.84.27.23.19.35.43.35.71,0,.66-.43,1.23-1.29,1.71-.86.48-3.25.69-4.29,1.42-.58.41-.93,1.75-.93,2.38,0,.78.42,1.16,1.27,1.13,1.44-.05,3.21-1.51,5.3-4.38.11-.15.21-.23.27-.23.03,0,.05.03.05.08ZM149.41,10.6c0-.29-.16-.43-.48-.42-.48.01-1.12.37-1.91,1.06-.79.69-1.56,1.59-2.32,2.68,1.31-.38,2.42-.89,3.34-1.53s1.37-1.24,1.37-1.78Z"/>
      <path class="cls-1" d="M165.12,12.85c0,.19-.68,1.08-2,2.67-1.08,1.3-1.93,1.96-2.55,1.97-.42,0-.76-.15-1.03-.46-.26-.31-.4-.7-.4-1.18s.15-1.03.44-1.61c-.91,1.29-1.61,2.16-2.09,2.62-.48.45-.95.69-1.41.7-.48,0-.89-.19-1.22-.6-.33-.41-.49-.93-.49-1.56,0-1.75,1.24-3.33,3.71-4.72,1.08-.62,1.96-.93,2.62-.94.57,0,.85.26.85.81,0,.16-.04.36-.11.62.28-.53.42-.8.7-1.33.27.06.51.09.72.09.25,0,.57-.04.96-.1-.97,1.61-1.45,2.42-2.42,4.03-.84,1.41-1.26,2.34-1.26,2.79s.18.64.53.64c.37,0,.95-.43,1.75-1.27.8-.84,1.62-1.88,2.45-3.11.05-.09.1-.14.15-.14.05,0,.08.03.08.08ZM161.36,10.62c0-.45-.21-.67-.62-.66-.84.01-1.94.85-3.3,2.51-1.36,1.66-2.04,3-2.04,4.02,0,.59.26.88.79.87.63-.01,1.72-1.08,3.27-3.19,1.27-1.73,1.9-2.91,1.9-3.55Z"/>
      <path class="cls-1" d="M176.6,11.96c0,1.49-.92,2.82-2.78,4.03-1.5.98-2.68,1.47-3.53,1.47-.58,0-.88-.28-.88-.82,0-.16.05-.39.14-.67-2.09,3.49-3.14,5.24-5.24,8.75-.32-.07-.58-.11-.78-.1-.3,0-.6.06-.89.17,4.49-7.42,6.73-11.12,11.22-18.46.25.08.49.13.72.13.25,0,.55-.03.9-.11-1.62,2.6-2.44,3.91-4.06,6.52.98-1.29,1.68-2.13,2.13-2.53s.88-.59,1.32-.59c.48,0,.89.22,1.22.65.33.42.49.95.49,1.57ZM175.59,10.85c0-.59-.26-.89-.79-.9-.67,0-1.78,1.05-3.35,3.18-1.21,1.65-1.82,2.79-1.82,3.41,0,.46.21.7.64.7.84,0,1.93-.81,3.29-2.43,1.35-1.62,2.03-2.94,2.03-3.96Z"/>
      <path class="cls-1" d="M185.62,13.12c0,.15-.27.48-.81.99-.8.77-1.54,1.15-2.22,1.13-.28,0-.53-.07-.75-.18-1.2,1.67-2.33,2.5-3.39,2.48-.55-.01-1.02-.24-1.4-.7-.39-.46-.58-1-.58-1.63,0-1.4.92-2.75,2.76-4.01,1.29-.89,2.36-1.33,3.2-1.3.78.02,1.18.45,1.18,1.29,0,1.05-.55,2.29-1.65,3.74.18.11.39.17.62.18.41.01.89-.17,1.44-.53.55-.36,1-.81,1.34-1.33.1-.12.17-.18.22-.18.04,0,.05.02.05.06ZM183.39,11.21c0-.74-.33-1.12-1-1.14-.83-.02-1.84.74-3.04,2.31-1.19,1.56-1.79,2.89-1.79,3.97,0,.63.3.95.9.96.98.02,2.06-.77,3.23-2.36-.26-.3-.4-.6-.4-.91,0-.45.18-.9.53-1.37s.7-.69,1.04-.68c.15,0,.25.1.3.28.15-.31.22-.67.22-1.06Z"/>
      <path class="cls-1" d="M192.42,13.42c0,.12-.64.86-1.93,2.21-1.4,1.47-2.6,2.19-3.58,2.15-.64-.02-1.19-.29-1.64-.79s-.68-1.09-.68-1.77c0-.77.31-1.55.93-2.35.62-.8,1.46-1.47,2.5-2.03.88-.47,1.6-.7,2.16-.67.67.03,1.01.45,1.01,1.25,0,.63-.21,1.25-.64,1.86s-.85.91-1.26.89c-.41-.02-.62-.23-.62-.64,0-.48.42-.91,1.26-1.29.65-.29.97-.69.97-1.21,0-.41-.22-.63-.67-.65-.76-.03-1.69.68-2.79,2.14-1.1,1.46-1.65,2.71-1.65,3.73,0,.86.4,1.3,1.21,1.33,1.26.05,2.96-1.3,5.12-4.04.12-.14.21-.21.26-.21.03,0,.05.04.05.08Z"/>
      <path class="cls-1" d="M200.52,13.89c0,.15-.27.47-.81.97-.8.74-1.54,1.1-2.22,1.05-.28-.02-.53-.09-.75-.21-1.2,1.63-2.33,2.42-3.39,2.36-.55-.03-1.02-.28-1.4-.75-.39-.47-.58-1.02-.58-1.65,0-1.4.92-2.72,2.76-3.92,1.29-.85,2.36-1.25,3.2-1.19.78.05,1.18.49,1.18,1.33,0,1.05-.55,2.27-1.65,3.68.18.12.39.19.62.2.41.03.89-.14,1.44-.48.55-.35,1-.77,1.34-1.29.1-.12.17-.18.22-.18.04,0,.05.02.05.06ZM198.3,11.9c0-.74-.33-1.13-1-1.17-.83-.05-1.84.68-3.04,2.2-1.19,1.52-1.79,2.83-1.79,3.91,0,.63.3.96.9.99.98.05,2.06-.7,3.23-2.25-.26-.31-.4-.62-.4-.93,0-.45.18-.9.53-1.35.36-.45.7-.67,1.04-.65.15,0,.25.11.3.29.15-.31.22-.66.22-1.05Z"/>
      <path class="cls-1" d="M202.22,16.66c0,.62-.33,1.27-1,1.95-.26.25-.61.5-1.03.75s-.72.36-.89.35c-.05,0-.08-.03-.08-.09s.04-.09.11-.12c.38-.11.73-.28,1.03-.51.31-.23.46-.43.46-.61,0-.05-.05-.09-.14-.09-.41-.03-.62-.24-.62-.63,0-.36.18-.72.55-1.1.37-.38.71-.55,1.03-.53.37.03.56.24.56.63Z"/>
      <path class="cls-1" d="M11.45,32.05c0,.07-.05.15-.14.24-.24.31-.35.46-.59.76-1.71,2.25-2.99,3.33-3.83,3.26-.44-.04-.8-.23-1.07-.57-.28-.34-.42-.75-.42-1.22,0-.64.35-1.44,1.04-2.41,1.08-1.5,1.63-2.4,1.63-2.7,0-.36-.19-.55-.56-.58-.55-.05-1.29.43-2.24,1.42-.91.95-2.16,2.78-3.76,5.49-.27-.08-.51-.13-.7-.15-.2-.02-.47-.02-.81,0,.8-1.37,1.21-2.05,2.01-3.43.27-.49.69-1.22,1.26-2.17.3-.46,1.23-1.94,2.78-4.44.83-1.34,1.25-2.01,2.08-3.35.27.08.51.12.7.14.36.03.71.01,1.04-.05-.95,1.45-2.36,3.61-4.24,6.48-.05.09-.76,1.2-2.12,3.33,1.71-2.38,3.07-3.53,4.06-3.45.39.03.73.23,1,.59s.42.78.42,1.26c0,.63-.4,1.5-1.2,2.62-.89,1.25-1.34,2.04-1.34,2.37,0,.39.2.61.59.64.71.06,1.89-.99,3.53-3.16.17-.22.25-.33.42-.56.1-.11.15-.17.25-.28.05-.09.1-.13.16-.12.04,0,.05.02.05.06Z"/>
      <path class="cls-1" d="M19.57,32.58c0,.15-.27.47-.81.98-.8.76-1.54,1.11-2.22,1.07-.28-.02-.53-.09-.75-.21-1.2,1.63-2.33,2.4-3.39,2.33-.55-.04-1.02-.3-1.4-.78-.39-.48-.58-1.04-.58-1.66,0-1.4.92-2.68,2.76-3.86,1.29-.83,2.36-1.22,3.2-1.17.78.05,1.18.49,1.18,1.33,0,1.05-.55,2.28-1.65,3.69.18.12.39.19.62.2.41.03.89-.14,1.44-.49.55-.35,1-.78,1.34-1.3.1-.12.17-.18.22-.18.04,0,.05.02.05.06ZM17.35,30.62c0-.74-.33-1.13-1-1.17-.83-.05-1.84.68-3.04,2.18-1.19,1.5-1.79,2.79-1.79,3.88,0,.63.3.97.9,1.01.98.07,2.06-.67,3.23-2.22-.26-.31-.4-.62-.4-.93,0-.45.18-.9.53-1.35s.7-.67,1.04-.65c.15,0,.25.11.3.29.15-.31.22-.66.22-1.05Z"/>
      <path class="cls-1" d="M28.2,32.99c0,.14-.5.75-1.51,1.82-1.11,1.18-2.56,2.22-4.35,3.12-.27.47-.4.7-.67,1.17-1.32,2.3-2.7,4-4.14,5.07-1.49,1.11-2.78,1.62-3.87,1.54-.37-.03-.69-.17-.94-.42-.25-.26-.38-.56-.38-.9,0-1.83,2.11-3.56,6.33-5.28.35-.15.87-.37,1.56-.64.08-.05.12-.07.21-.11.96-1.66,1.44-2.49,2.41-4.16-.95,1.26-1.64,2.08-2.06,2.46-.43.38-.86.56-1.3.54-.37-.02-.7-.2-.98-.53-.28-.33-.42-.72-.42-1.14,0-.52.32-1.31.97-2.38.84-1.38,1.26-2.06,2.11-3.44.21.05.45.08.72.09.24.01.57,0,.98-.05-1.08,1.7-1.62,2.55-2.69,4.24-.77,1.2-1.15,1.99-1.15,2.37,0,.41.19.63.56.65.98.05,2.5-1.61,4.54-5.02.5-.84.75-1.26,1.26-2.09.21.04.46.07.77.08.25,0,.55-.01.92-.06-1.13,1.76-2.66,4.33-4.59,7.71,1.11-.52,2.05-1.1,2.82-1.74.77-.64,1.62-1.55,2.57-2.74.13-.16.21-.24.25-.24.05,0,.08.03.08.08ZM20.3,38.58c-.15.07-.66.31-1.54.7-4.15,1.83-6.22,3.52-6.22,5.16,0,.68.38,1.05,1.15,1.11.97.07,1.93-.4,2.88-1.39.96-.99,2.14-2.76,3.55-5.31.07-.11.11-.16.18-.26Z"/>
      <path class="cls-1" d="M48.38,33.23s-.05.1-.14.22c-.24.32-.35.49-.59.81-1.72,2.39-2.98,3.58-3.81,3.58-.43,0-.78-.16-1.05-.48-.27-.32-.41-.73-.41-1.23s.17-1.06.52-1.65c.06-.11.4-.6,1-1.46.76-1.09,1.15-1.81,1.15-2.15,0-.37-.19-.56-.56-.56-1.2,0-3.27,2.46-6.19,7.37-.18-.04-.43-.06-.75-.06-.37,0-.69,0-.96.04.78-1.22,1.16-1.83,1.94-3.05,1.27-2.01,1.9-3.24,1.9-3.7,0-.41-.17-.62-.51-.62-.5,0-1.32.71-2.46,2.13-1.14,1.42-2.27,3.15-3.39,5.19-.21-.04-.48-.06-.81-.07-.36,0-.67,0-.93.03.78-1.21,1.17-1.82,1.96-3.03,1.35-2.09,2.02-3.39,2.02-3.89,0-.27-.1-.41-.31-.42-.45,0-1.38.95-2.78,2.88-.09.13-.17.19-.22.19-.03,0-.05-.04-.05-.08,0-.08.42-.64,1.26-1.68.82-1.01,1.46-1.51,1.9-1.51.29,0,.54.15.75.43s.31.61.31,1c0,.53-.27,1.26-.81,2.19,1.64-2.38,2.86-3.57,3.66-3.56.38,0,.7.16.94.47.25.31.37.7.37,1.16,0,.52-.24,1.18-.72,1.98,1.73-2.39,3.03-3.59,3.9-3.59.39,0,.72.17.99.51s.4.75.4,1.23c0,.57-.22,1.23-.67,1.98,0,0-.4.59-1.18,1.75-.45.66-.67,1.16-.67,1.5,0,.37.19.56.56.56.71,0,1.89-1.15,3.53-3.46.17-.24.25-.35.42-.59.1-.12.15-.18.25-.3.05-.09.09-.14.14-.14.05,0,.09.04.08.08Z"/>
      <path class="cls-1" d="M55.3,33.17s-.08.15-.25.36c-.24.3-.35.45-.59.75-1.89,2.36-3.51,3.54-4.86,3.55-.64,0-1.17-.22-1.61-.68-.43-.46-.65-1.03-.65-1.73,0-1.64,1.14-3.09,3.43-4.36,1.2-.67,2.18-1.01,2.94-1.02.33,0,.61.09.84.28.23.19.35.43.35.71,0,.66-.43,1.22-1.29,1.69-.86.47-3.26.64-4.29,1.34-.58.39-.93,1.73-.93,2.36,0,.78.42,1.17,1.27,1.17,1.44-.01,3.21-1.44,5.3-4.28.11-.15.21-.23.27-.22.03,0,.05.04.05.08ZM54.14,30.65c0-.29-.16-.44-.48-.43-.48,0-1.12.35-1.91,1.03-.79.68-1.56,1.55-2.32,2.63,1.31-.35,2.42-.84,3.34-1.46.91-.63,1.37-1.21,1.37-1.76Z"/>
      <path class="cls-1" d="M67.14,32.88s-.08.15-.25.36c-.24.3-.35.45-.59.76-1.89,2.39-3.51,3.6-4.86,3.63-.64.02-1.17-.2-1.61-.65-.43-.45-.65-1.02-.65-1.72,0-1.64,1.14-3.11,3.43-4.42,1.2-.69,2.18-1.04,2.94-1.07.33,0,.61.08.84.27.23.19.35.42.35.71,0,.66-.43,1.23-1.29,1.71s-3.25.69-4.29,1.41c-.58.4-.93,1.74-.93,2.37,0,.78.42,1.17,1.27,1.15,1.44-.04,3.21-1.49,5.3-4.37.11-.15.21-.23.27-.23.03,0,.05.03.05.08ZM65.98,30.38c0-.29-.16-.43-.48-.42-.48.01-1.12.37-1.91,1.06-.79.69-1.56,1.58-2.32,2.66,1.31-.37,2.42-.88,3.34-1.52.91-.64,1.37-1.24,1.37-1.78Z"/>
      <path class="cls-1" d="M71.75,27.41c0,.36-.57,1.11-1.71,2.23-.05.28-.08.53-.08.74,0,.53.24,1.36.72,2.49.25.57.37,1.04.37,1.44,0,.82-.4,1.55-1.2,2.17-.8.63-1.74.96-2.84,1-.62.02-1.11-.14-1.48-.48s-.55-.81-.55-1.4c0-.68.24-1.36.73-2.02.49-.66.99-1,1.51-1.02.09,0,.17.01.25.05.44-.55.66-.82,1.09-1.38.33-.4.77-.96,1.31-1.67.16-.64.39-1.2.71-1.67s.63-.71.94-.72c.15,0,.22.07.22.23ZM69.85,32.87c0-.27,0-.54-.03-.81-.02-.27-.03-.65-.03-1.15,0-.41.02-.75.05-1.03-.51.66-1.25,1.6-2.21,2.81.17.14.26.31.26.52,0,.54-.44.92-1.33,1.14-.36.09-.66.3-.92.61-.26.31-.39.64-.39.98,0,.36.13.67.4.9.26.24.59.35.98.34.77-.02,1.49-.49,2.18-1.4s1.03-1.88,1.03-2.9Z"/>
      <path class="cls-1" d="M79.37,32.41c0,.12-.64.92-1.93,2.38-1.4,1.59-2.6,2.41-3.58,2.44-.64.02-1.19-.2-1.64-.67-.46-.47-.68-1.04-.68-1.72,0-.77.31-1.57.93-2.41s1.46-1.58,2.5-2.21c.88-.54,1.6-.83,2.16-.85.67-.03,1.01.36,1.01,1.16,0,.63-.21,1.27-.64,1.91-.42.65-.85.98-1.26,1-.41.02-.62-.18-.62-.59,0-.48.42-.95,1.26-1.39.65-.34.97-.78.97-1.3,0-.41-.22-.61-.67-.59-.76.03-1.69.82-2.79,2.37-1.1,1.55-1.65,2.83-1.65,3.85,0,.86.4,1.27,1.21,1.24,1.26-.05,2.96-1.54,5.12-4.47.12-.15.21-.23.26-.23.03,0,.05.03.05.08Z"/>
      <path class="cls-1" d="M88.98,31.97c0,.19-.68,1.11-2,2.75-1.08,1.34-1.93,2.04-2.55,2.06-.42.02-.76-.12-1.03-.42-.26-.3-.4-.69-.4-1.16s.15-1.03.44-1.62c-.91,1.32-1.61,2.21-2.09,2.68s-.95.71-1.41.73c-.48.02-.89-.17-1.22-.57-.33-.4-.49-.92-.49-1.54,0-1.75,1.24-3.35,3.71-4.81,1.08-.65,1.96-.99,2.62-1.02.57-.03.85.23.85.78,0,.16-.04.36-.11.62.28-.54.42-.82.7-1.36.27.05.51.07.72.06.25-.01.57-.06.96-.14-.97,1.65-1.45,2.47-2.42,4.12-.84,1.44-1.26,2.39-1.26,2.83s.18.63.53.62c.37-.02.95-.46,1.75-1.34.8-.87,1.62-1.94,2.45-3.21.05-.09.1-.14.15-.14.05,0,.08.02.08.08ZM85.22,29.88c0-.45-.21-.66-.62-.64-.84.04-1.94.91-3.3,2.61s-2.04,3.06-2.04,4.07c0,.59.26.88.79.85.63-.03,1.72-1.12,3.27-3.28,1.27-1.77,1.9-2.98,1.9-3.62Z"/>
      <path class="cls-1" d="M95.51,30.69c0,1.49-.92,2.89-2.78,4.2-1.5,1.07-2.68,1.62-3.53,1.67-.58.03-.88-.23-.88-.78,0-.16.05-.39.14-.68-2.09,3.6-3.14,5.39-5.24,8.98-.32-.06-.58-.08-.78-.07-.3.01-.6.08-.89.2,4.49-7.58,6.73-11.39,11.22-19,.25.07.49.1.72.09.25-.01.55-.07.9-.17-1.62,2.71-2.44,4.06-4.06,6.77.98-1.34,1.68-2.23,2.13-2.65s.88-.65,1.32-.67c.48-.02.89.16,1.22.57.33.4.49.91.49,1.53ZM94.5,29.64c0-.59-.26-.88-.79-.85-.67.03-1.78,1.16-3.35,3.38-1.21,1.72-1.82,2.89-1.82,3.51,0,.46.21.69.64.67.84-.04,1.93-.91,3.29-2.62s2.03-3.07,2.03-4.09Z"/>
      <path class="cls-1" d="M104.53,31.15c0,.15-.27.5-.81,1.06-.8.84-1.54,1.28-2.22,1.32-.28.02-.53-.03-.75-.12-1.2,1.77-2.33,2.68-3.39,2.74-.55.03-1.02-.17-1.4-.6-.39-.43-.58-.96-.58-1.59,0-1.4.92-2.8,2.76-4.2,1.29-.99,2.36-1.51,3.2-1.55.78-.04,1.18.36,1.18,1.2,0,1.05-.55,2.34-1.65,3.88.18.1.39.14.62.13.41-.02.89-.24,1.44-.65.55-.41,1-.89,1.34-1.45.1-.13.17-.2.22-.2.04,0,.05.02.05.05ZM102.31,29.43c0-.74-.33-1.09-1-1.05-.83.04-1.84.89-3.04,2.54s-1.79,3.01-1.79,4.1c0,.63.3.93.9.9.98-.05,2.06-.92,3.23-2.6-.26-.28-.4-.57-.4-.88,0-.45.18-.92.53-1.41s.7-.75,1.04-.77c.15,0,.25.08.3.26.15-.33.22-.69.22-1.08Z"/>
      <path class="cls-1" d="M116.29,30.53c0,.12-.64.92-1.93,2.4-1.4,1.61-2.6,2.44-3.58,2.49-.64.03-1.19-.18-1.64-.64-.46-.46-.68-1.03-.68-1.71,0-.77.31-1.58.93-2.43.62-.85,1.46-1.6,2.5-2.25.88-.55,1.6-.85,2.16-.88.67-.04,1.01.35,1.01,1.15,0,.63-.21,1.27-.64,1.92-.42.65-.85.99-1.26,1.01-.41.02-.62-.17-.62-.58,0-.48.42-.95,1.26-1.41.65-.35.97-.79.97-1.31,0-.41-.22-.6-.67-.58-.76.04-1.69.84-2.79,2.4-1.1,1.56-1.65,2.85-1.65,3.88,0,.86.4,1.26,1.21,1.22,1.26-.07,2.96-1.58,5.12-4.53.12-.15.21-.24.26-.23.03,0,.05.03.05.08Z"/>
      <path class="cls-1" d="M124.38,30.11c0,.15-.27.5-.81,1.06-.8.84-1.54,1.28-2.22,1.31-.28.01-.53-.03-.75-.13-1.2,1.77-2.33,2.68-3.39,2.73-.55.03-1.02-.17-1.4-.6-.39-.43-.58-.96-.58-1.59,0-1.4.92-2.81,2.76-4.2,1.29-.99,2.36-1.5,3.2-1.54.78-.04,1.18.36,1.18,1.2,0,1.05-.55,2.34-1.65,3.87.18.1.39.14.62.13.41-.02.89-.24,1.44-.64.55-.41,1-.89,1.34-1.44.1-.13.17-.2.22-.2.04,0,.05.02.05.05ZM122.16,28.38c0-.74-.33-1.09-1-1.06-.83.04-1.84.89-3.04,2.53-1.19,1.65-1.79,3.01-1.79,4.1,0,.63.3.93.9.9.98-.05,2.06-.92,3.23-2.6-.26-.28-.4-.57-.4-.88,0-.45.18-.92.53-1.41s.7-.75,1.04-.76c.15,0,.25.08.3.26.15-.33.22-.69.22-1.08Z"/>
      <path class="cls-1" d="M139.61,29.45s-.05.1-.14.22c-.24.33-.35.5-.59.83-1.72,2.45-2.98,3.69-3.81,3.73-.43.02-.78-.13-1.05-.43-.27-.31-.41-.71-.41-1.21,0-.51.17-1.07.52-1.68.06-.11.4-.62,1-1.51.76-1.13,1.15-1.86,1.15-2.19,0-.37-.19-.55-.56-.54-1.2.05-3.27,2.61-6.19,7.68-.18-.03-.43-.03-.75-.02-.37.02-.69.05-.96.1.78-1.27,1.16-1.9,1.94-3.17,1.27-2.08,1.9-3.35,1.9-3.81,0-.41-.17-.61-.51-.59-.5.02-1.32.78-2.46,2.27-1.14,1.49-2.27,3.3-3.39,5.41-.21-.03-.48-.03-.81-.02-.36.02-.67.05-.93.1.78-1.27,1.17-1.9,1.96-3.17,1.35-2.18,2.02-3.52,2.02-4.02,0-.27-.1-.41-.31-.4-.45.02-1.38,1.04-2.78,3.07-.09.13-.17.21-.22.2-.03,0-.05-.03-.05-.08,0-.08.42-.67,1.26-1.77.82-1.07,1.46-1.61,1.9-1.63.29-.01.54.11.75.38.21.27.31.59.31.98,0,.53-.27,1.28-.81,2.24,1.64-2.48,2.86-3.74,3.66-3.78.38-.02.7.12.94.42.25.3.37.68.37,1.15,0,.52-.24,1.19-.72,2.01,1.73-2.48,3.03-3.74,3.9-3.78.39-.02.72.14.99.47s.4.73.4,1.21c0,.57-.22,1.23-.67,2.01,0,0-.4.61-1.18,1.8-.45.67-.67,1.19-.67,1.53,0,.37.19.55.56.54.71-.03,1.89-1.23,3.53-3.59l.42-.61c.1-.12.15-.19.25-.31.05-.09.09-.14.14-.14.05,0,.09.03.08.08Z"/>
      <path class="cls-1" d="M147.73,29.16c0,.15-.27.49-.81,1.05-.8.82-1.54,1.25-2.22,1.27-.28,0-.53-.04-.75-.14-1.2,1.75-2.33,2.64-3.39,2.68-.55.02-1.02-.19-1.4-.62-.39-.44-.58-.97-.58-1.6,0-1.4.92-2.79,2.76-4.17,1.29-.97,2.36-1.46,3.2-1.49.78-.03,1.18.38,1.18,1.22,0,1.05-.55,2.33-1.65,3.84.18.1.39.15.62.14.41-.01.89-.22,1.44-.62.55-.4,1-.87,1.34-1.42.1-.13.17-.2.22-.2.04,0,.05.02.05.05ZM145.51,27.39c0-.74-.33-1.1-1-1.07-.83.03-1.84.86-3.04,2.49-1.19,1.63-1.79,2.99-1.79,4.07,0,.63.3.93.9.91.98-.04,2.06-.89,3.23-2.55-.26-.28-.4-.58-.4-.89,0-.45.18-.91.53-1.4.36-.49.7-.73,1.04-.75.15,0,.25.08.3.26.15-.32.22-.68.22-1.07Z"/>
      <path class="cls-1" d="M161.47,28.88c0,.21-.66,1.1-1.98,2.68-1.09,1.31-1.96,1.97-2.6,1.99-.4,0-.74-.15-1.02-.47-.28-.32-.42-.7-.42-1.16,0-.36.18-.86.53-1.5-.11.15-.16.22-.27.37-.84,1.09-1.46,1.83-1.85,2.2-.43.41-.83.63-1.22.64-.4,0-.74-.14-1.01-.45-.27-.31-.41-.69-.41-1.14,0-.53.21-1.14.62-1.83,1-1.7,1.49-2.55,2.49-4.24.31.06.55.08.72.08.17,0,.48-.04.93-.11-1.3,2.17-1.95,3.25-3.25,5.43-.33.55-.49,1.04-.49,1.46,0,.41.17.61.52.6.92-.02,2.4-1.77,4.43-5.25.54-.92.8-1.38,1.34-2.29.28.06.52.09.71.08.23,0,.55-.04.97-.11-.88,1.44-1.31,2.16-2.19,3.6-1.04,1.71-1.56,2.81-1.56,3.29,0,.39.19.58.56.58.73-.01,1.92-1.18,3.56-3.51.17-.24.25-.36.42-.59.1-.12.15-.18.25-.3.05-.09.09-.14.14-.14.05,0,.08.03.08.08Z"/>
      <path class="cls-1" d="M172.42,28.86c0,.19-.66,1.07-1.98,2.65-1.09,1.29-1.94,1.94-2.56,1.94-.41,0-.75-.16-1.03-.48-.28-.32-.42-.71-.42-1.17,0-.41.08-.79.25-1.14s.61-1.05,1.32-2.09c.74-1.09,1.11-1.79,1.11-2.09,0-.37-.2-.56-.59-.56-1.33,0-3.38,2.47-6.15,7.44-.45-.03-.72-.05-.81-.05-.32,0-.62.02-.9.07.85-1.36,1.28-2.04,2.13-3.4,1.21-1.94,1.82-3.15,1.82-3.64,0-.27-.11-.41-.34-.41-.47,0-1.38.99-2.75,2.97-.08.12-.15.19-.19.19-.04,0-.07-.03-.08-.08,0-.05.03-.08.05-.11.1-.14.16-.21.26-.35,1.4-1.89,2.34-2.83,2.82-2.83.31,0,.58.14.79.42.22.28.33.62.33,1.01,0,.58-.34,1.4-1.03,2.44,1.08-1.49,1.9-2.51,2.48-3.06.58-.55,1.11-.82,1.61-.82.4,0,.74.16,1.01.49.27.33.41.73.41,1.22,0,.61-.42,1.54-1.26,2.8-.86,1.28-1.29,2.11-1.29,2.46,0,.37.19.56.56.56.81,0,2.21-1.45,4.2-4.33.05-.09.09-.14.14-.14.05,0,.08.03.08.08Z"/>
      <path class="cls-1" d="M183.87,28.12c0,1.49-.92,2.81-2.78,3.98-1.5.96-2.68,1.43-3.53,1.42-.58-.01-.88-.29-.88-.83,0-.16.05-.39.14-.67-2.09,3.46-3.14,5.2-5.24,8.68-.32-.08-.58-.11-.78-.11-.3,0-.6.05-.89.16,4.49-7.37,6.73-11.03,11.22-18.31.25.09.49.14.72.14.25,0,.55-.03.9-.1-1.62,2.58-2.44,3.87-4.06,6.47.98-1.27,1.68-2.11,2.13-2.5.44-.39.88-.58,1.32-.57.48.01.89.23,1.22.66.33.43.49.95.49,1.57ZM182.86,27c0-.59-.26-.9-.79-.91-.67-.02-1.78,1.02-3.35,3.14-1.21,1.63-1.82,2.77-1.82,3.39,0,.46.21.7.64.71.84.01,1.93-.78,3.29-2.39,1.35-1.6,2.03-2.91,2.03-3.93Z"/>
      <path class="cls-1" d="M192.89,29.43c0,.15-.27.47-.81.98-.8.76-1.54,1.13-2.22,1.1-.28-.01-.53-.08-.75-.2-1.2,1.65-2.33,2.46-3.39,2.43-.55-.02-1.02-.26-1.4-.72-.39-.46-.58-1.01-.58-1.64,0-1.4.92-2.73,2.76-3.97,1.29-.87,2.36-1.29,3.2-1.25.78.03,1.18.47,1.18,1.31,0,1.05-.55,2.28-1.65,3.71.18.12.39.18.62.19.41.02.89-.15,1.44-.51.55-.36,1-.79,1.34-1.31.1-.12.17-.18.22-.18.04,0,.05.02.05.06ZM190.67,27.48c0-.74-.33-1.12-1-1.15-.83-.04-1.84.72-3.04,2.26-1.19,1.54-1.79,2.86-1.79,3.94,0,.63.3.95.9.97.98.03,2.06-.74,3.23-2.31-.26-.3-.4-.61-.4-.92,0-.45.18-.9.53-1.36.36-.46.7-.68,1.04-.67.15,0,.25.1.3.29.15-.31.22-.66.22-1.06Z"/>
      <path class="cls-1" d="M197.96,26.59c-.04.08-.07.12-.11.2-.72-.05-1.07-.07-1.79-.11-1.22,2.01-1.83,3.02-3.05,5.04-.37.61-.56,1.1-.56,1.48,0,.41.21.63.64.65.83.04,2.23-1.33,4.2-4.1.06-.09.12-.13.16-.13.05,0,.09.04.08.09,0,.02-.05.1-.14.21-.24.31-.35.46-.59.77-1.72,2.28-3.01,3.4-3.87,3.36-.43-.02-.79-.2-1.07-.52-.29-.32-.43-.72-.43-1.18,0-.55.24-1.22.72-2.02.92-1.5,1.38-2.24,2.3-3.74-.56-.03-.84-.05-1.39-.07.05-.08.08-.12.14-.2.55.03.82.04,1.37.07.64-1.03.96-1.54,1.6-2.56.27.09.53.14.78.16.25.02.52,0,.79-.06-.63,1.02-.94,1.53-1.57,2.56.72.04,1.07.06,1.79.11Z"/>
      <path class="cls-1" d="M205.33,30.27c0,.07-.28.38-.82.93-.69.7-1.35,1.04-1.96,1-.69-.05-1.04-.48-1.04-1.28,0-.25.05-.57.16-.96-.57.46-1.04.92-1.4,1.39-.36.47-.98,1.43-1.87,2.88-.48-.07-.77-.1-.85-.11-.04,0-.31,0-.83,0,.9-1.4,1.35-2.1,2.24-3.49,1.12-1.75,1.68-2.84,1.68-3.28,0-.25-.1-.39-.31-.41-.51-.04-1.44.88-2.78,2.76-.08.12-.16.19-.22.18-.03,0-.06-.04-.05-.09,0-.04.03-.08.05-.11.1-.13.15-.2.25-.33,1.41-1.78,2.36-2.65,2.86-2.62.73.05,1.1.55,1.1,1.49,0,.7-.37,1.6-1.12,2.71.47-.51,1.11-.94,1.35-1.24.4-.5.78-1.43,1.29-1.94.51-.51.98-.74,1.39-.71.28.02.42.16.42.4,0,.44-.63,1.01-1.9,1.72-.2.11-.5.28-.9.49-.07.05-.1.07-.16.12-.13.41-.19.75-.19,1.02,0,.77.29,1.17.86,1.21.71.05,1.49-.47,2.33-1.58.18-.19.3-.28.34-.27.05,0,.08.03.08.09Z"/>
      <path class="cls-1" d="M213.41,31.03c0,.15-.27.46-.81.94-.8.72-1.54,1.04-2.22.98-.28-.03-.53-.11-.75-.24-1.2,1.59-2.33,2.34-3.39,2.25-.55-.05-1.02-.31-1.4-.79-.39-.48-.58-1.04-.58-1.67,0-1.4.92-2.69,2.76-3.83,1.29-.81,2.36-1.17,3.2-1.08.78.08,1.18.54,1.18,1.37,0,1.05-.55,2.25-1.65,3.62.18.13.39.2.62.22.41.04.89-.1,1.44-.43.55-.33,1-.74,1.34-1.24.1-.12.17-.17.22-.17.04,0,.05.02.05.06ZM211.19,28.96c0-.74-.33-1.14-1-1.21-.83-.08-1.84.62-3.04,2.1-1.19,1.48-1.79,2.77-1.79,3.85,0,.63.3.97.9,1.02.98.08,2.06-.63,3.23-2.14-.26-.32-.4-.63-.4-.94,0-.45.18-.89.53-1.33.36-.44.7-.64,1.04-.61.15.01.25.12.3.3.15-.3.22-.65.22-1.04Z"/>
    </g>
  </g>
</svg>